Mayek_Rounded-Regular.ufo
<glyph name="exclam" format="1">
  <advance width="322"/>
  <unicode hex="0021"/>
  <outline>
    <contour>
      <point x="195" y="188"/>
      <point x="206" y="202"/>
      <point x="206" y="221" type="curve" smooth="yes"/>
      <point x="206" y="579" type="line" smooth="yes"/>
      <point x="206" y="597"/>
      <point x="194" y="611"/>
      <point x="179" y="611" type="curve" smooth="yes"/>
      <point x="164" y="611"/>
      <point x="152" y="597"/>
      <point x="152" y="579" type="curve" smooth="yes"/>
      <point x="152" y="221" type="line" smooth="yes"/>
      <point x="152" y="202"/>
      <point x="164" y="188"/>
      <point x="179" y="188" type="curve" smooth="yes"/>
    </contour>
    <contour>
      <point x="197" y="43"/>
      <point x="218" y="54"/>
      <point x="218" y="78" type="curve" smooth="yes"/>
      <point x="218" y="102"/>
      <point x="202" y="120"/>
      <point x="177" y="120" type="curve" smooth="yes"/>
      <point x="157" y="120"/>
      <point x="140" y="105"/>
      <point x="140" y="85" type="curve" smooth="yes"/>
      <point x="140" y="62"/>
      <point x="157" y="43"/>
      <point x="181" y="43" type="curve" smooth="yes"/>
    </contour>
  </outline>
</glyph>
<glyph name="quotesingle" format="1">
  <advance width="300"/>
  <unicode hex="0027"/>
  <outline>
    <contour>
      <point x="220" y="501"/>
      <point x="231" y="515"/>
      <point x="231" y="533" type="curve" smooth="yes"/>
      <point x="231" y="601" type="line" smooth="yes"/>
      <point x="231" y="620"/>
      <point x="219" y="634"/>
      <point x="204" y="634" type="curve" smooth="yes"/>
      <point x="189" y="634"/>
      <point x="177" y="620"/>
      <point x="177" y="601" type="curve" smooth="yes"/>
      <point x="177" y="533" type="line" smooth="yes"/>
      <point x="177" y="515"/>
      <point x="189" y="501"/>
      <point x="204" y="501" type="curve" smooth="yes"/>
    </contour>
  </outline>
</glyph>
<glyph name="parenleft" format="1">
  <advance width="322"/>
  <unicode hex="0028"/>
  <outline>
    <contour>
      <point x="209" y="-82"/>
      <point x="214" y="-70"/>
      <point x="214" y="-60" type="curve" smooth="yes"/>
      <point x="214" y="-17"/>
      <point x="126" y="96"/>
      <point x="126" y="289" type="curve" smooth="yes"/>
      <point x="126" y="475"/>
      <point x="215" y="617"/>
      <point x="215" y="651" type="curve" smooth="yes"/>
      <point x="215" y="659"/>
      <point x="210" y="672"/>
      <point x="195" y="672" type="curve" smooth="yes"/>
      <point x="180" y="672"/>
      <point x="168" y="658"/>
      <point x="160" y="639" type="curve" smooth="yes"/>
      <point x="111" y="524"/>
      <point x="72" y="430"/>
      <point x="72" y="297" type="curve" smooth="yes"/>
      <point x="72" y="145"/>
      <point x="123" y="33"/>
      <point x="151" y="-33" type="curve" smooth="yes"/>
      <point x="167" y="-66"/>
      <point x="177" y="-82"/>
      <point x="194" y="-82" type="curve" smooth="yes"/>
    </contour>
  </outline>
</glyph>
<glyph name="parenright" format="1">
  <advance width="322"/>
  <unicode hex="0029"/>
  <outline>
    <contour>
      <point x="155" y="-82"/>
      <point x="165" y="-66"/>
      <point x="181" y="-33" type="curve" smooth="yes"/>
      <point x="209" y="33"/>
      <point x="260" y="145"/>
      <point x="260" y="297" type="curve" smooth="yes"/>
      <point x="260" y="430"/>
      <point x="221" y="524"/>
      <point x="172" y="639" type="curve" smooth="yes"/>
      <point x="164" y="658"/>
      <point x="152" y="672"/>
      <point x="137" y="672" type="curve" smooth="yes"/>
      <point x="122" y="672"/>
      <point x="117" y="659"/>
      <point x="117" y="651" type="curve" smooth="yes"/>
      <point x="117" y="617"/>
      <point x="206" y="475"/>
      <point x="206" y="289" type="curve" smooth="yes"/>
      <point x="206" y="96"/>
      <point x="118" y="-17"/>
      <point x="118" y="-60" type="curve" smooth="yes"/>
      <point x="118" y="-70"/>
      <point x="123" y="-82"/>
      <point x="138" y="-82" type="curve" smooth="yes"/>
    </contour>
  </outline>
</glyph>
<glyph name="comma" format="1">
  <advance width="200"/>
  <unicode hex="002C"/>
  <outline>
    <contour>
      <point x="126" y="-111"/>
      <point x="175" y="-68"/>
      <point x="175" y="-8" type="curve" smooth="yes"/>
      <point x="175" y="35"/>
      <point x="146" y="73"/>
      <point x="105" y="73" type="curve" smooth="yes"/>
      <point x="77" y="73"/>
      <point x="57" y="55"/>
      <point x="57" y="30" type="curve" smooth="yes"/>
      <point x="57" y="5"/>
      <point x="77" y="-14"/>
      <point x="101" y="-14" type="curve" smooth="yes"/>
      <point x="127" y="-14"/>
      <point x="141" y="7"/>
      <point x="141" y="29" type="curve"/>
      <point x="116" y="17" type="line"/>
      <point x="129" y="7"/>
      <point x="134" y="-4"/>
      <point x="134" y="-19" type="curve" smooth="yes"/>
      <point x="134" y="-48"/>
      <point x="113" y="-66"/>
      <point x="90" y="-77" type="curve" smooth="yes"/>
      <point x="80" y="-82"/>
      <point x="74" y="-87"/>
      <point x="74" y="-95" type="curve" smooth="yes"/>
      <point x="74" y="-104"/>
      <point x="79" y="-111"/>
      <point x="92" y="-111" type="curve" smooth="yes"/>
    </contour>
  </outline>
</glyph>
<glyph name="hyphen" format="1">
  <advance width="378"/>
  <unicode hex="002D"/>
  <outline>
    <contour>
      <point x="316" y="249" type="line" smooth="yes"/>
      <point x="330" y="249"/>
      <point x="342" y="259"/>
      <point x="342" y="272" type="curve" smooth="yes"/>
      <point x="342" y="285"/>
      <point x="330" y="295"/>
      <point x="316" y="295" type="curve" smooth="yes"/>
      <point x="63" y="295" type="line" smooth="yes"/>
      <point x="48" y="295"/>
      <point x="36" y="285"/>
      <point x="36" y="272" type="curve" smooth="yes"/>
      <point x="36" y="259"/>
      <point x="48" y="249"/>
      <point x="63" y="249" type="curve" smooth="yes"/>
    </contour>
  </outline>
</glyph>
<glyph name="period" format="1">
  <advance width="200"/>
  <unicode hex="002E"/>
  <outline>
    <contour>
      <point x="128" y="-12"/>
      <point x="148" y="-2"/>
      <point x="148" y="21" type="curve" smooth="yes"/>
      <point x="148" y="43"/>
      <point x="133" y="61"/>
      <point x="109" y="61" type="curve" smooth="yes"/>
      <point x="91" y="61"/>
      <point x="74" y="47"/>
      <point x="74" y="28" type="curve" smooth="yes"/>
      <point x="74" y="6"/>
      <point x="90" y="-12"/>
      <point x="113" y="-12" type="curve" smooth="yes"/>
    </contour>
  </outline>
</glyph>
<glyph name="colon" format="1">
  <advance width="200"/>
  <unicode hex="003A"/>
  <outline>
    <contour>
      <point x="137" y="78"/>
      <point x="158" y="89"/>
      <point x="158" y="113" type="curve" smooth="yes"/>
      <point x="158" y="137"/>
      <point x="142" y="155"/>
      <point x="117" y="155" type="curve" smooth="yes"/>
      <point x="97" y="155"/>
      <point x="80" y="140"/>
      <point x="80" y="120" type="curve" smooth="yes"/>
      <point x="80" y="97"/>
      <point x="97" y="78"/>
      <point x="121" y="78" type="curve" smooth="yes"/>
    </contour>
    <contour>
      <point x="137" y="354"/>
      <point x="158" y="365"/>
      <point x="158" y="390" type="curve" smooth="yes"/>
      <point x="158" y="413"/>
      <point x="142" y="432"/>
      <point x="117" y="432" type="curve" smooth="yes"/>
      <point x="97" y="432"/>
      <point x="80" y="417"/>
      <point x="80" y="396" type="curve" smooth="yes"/>
      <point x="80" y="373"/>
      <point x="97" y="354"/>
      <point x="121" y="354" type="curve" smooth="yes"/>
    </contour>
  </outline>
</glyph>
<glyph name="semicolon" format="1">
  <advance width="170"/>
  <unicode hex="003B"/>
  <outline>
    <contour>
      <point x="119" y="143"/>
      <point x="140" y="154"/>
      <point x="140" y="178" type="curve" smooth="yes"/>
      <point x="140" y="202"/>
      <point x="124" y="220"/>
      <point x="99" y="220" type="curve" smooth="yes"/>
      <point x="79" y="220"/>
      <point x="62" y="205"/>
      <point x="62" y="185" type="curve" smooth="yes"/>
      <point x="62" y="162"/>
      <point x="79" y="143"/>
      <point x="103" y="143" type="curve" smooth="yes"/>
    </contour>
    <component base="comma" xOffset="-13"/>
  </outline>
</glyph>
<glyph name="question" format="1">
  <advance width="400"/>
  <unicode hex="003F"/>
  <outline>
    <contour>
      <point x="208" y="122"/>
      <point x="218" y="138"/>
      <point x="219" y="157" type="curve" smooth="yes"/>
      <point x="220" y="211" type="line" smooth="yes"/>
      <point x="221" y="240"/>
      <point x="231" y="263"/>
      <point x="266" y="298" type="curve" smooth="yes"/>
      <point x="316" y="350"/>
      <point x="373" y="386"/>
      <point x="373" y="464" type="curve" smooth="yes"/>
      <point x="373" y="545"/>
      <point x="314" y="599"/>
      <point x="228" y="599" type="curve" smooth="yes"/>
      <point x="141" y="599"/>
      <point x="83" y="544"/>
      <point x="83" y="481" type="curve" smooth="yes"/>
      <point x="83" y="407"/>
      <point x="145" y="380"/>
      <point x="173" y="380" type="curve" smooth="yes"/>
      <point x="190" y="380"/>
      <point x="201" y="388"/>
      <point x="201" y="402" type="curve" smooth="yes"/>
      <point x="201" y="412"/>
      <point x="195" y="418"/>
      <point x="186" y="422" type="curve" smooth="yes"/>
      <point x="165" y="429"/>
      <point x="137" y="442"/>
      <point x="137" y="480" type="curve" smooth="yes"/>
      <point x="137" y="521"/>
      <point x="171" y="550"/>
      <point x="228" y="550" type="curve" smooth="yes"/>
      <point x="288" y="550"/>
      <point x="324" y="509"/>
      <point x="324" y="468" type="curve" smooth="yes"/>
      <point x="324" y="416"/>
      <point x="289" y="388"/>
      <point x="231" y="335" type="curve" smooth="yes"/>
      <point x="180" y="291"/>
      <point x="163" y="261"/>
      <point x="163" y="210" type="curve" smooth="yes"/>
      <point x="163" y="158" type="line" smooth="yes"/>
      <point x="163" y="137"/>
      <point x="173" y="122"/>
      <point x="191" y="122" type="curve" smooth="yes"/>
    </contour>
    <contour>
      <point x="211" y="-12"/>
      <point x="232" y="-1"/>
      <point x="232" y="23" type="curve" smooth="yes"/>
      <point x="232" y="48"/>
      <point x="216" y="66"/>
      <point x="191" y="66" type="curve" smooth="yes"/>
      <point x="171" y="66"/>
      <point x="154" y="51"/>
      <point x="154" y="30" type="curve" smooth="yes"/>
      <point x="154" y="8"/>
      <point x="171" y="-12"/>
      <point x="195" y="-12" type="curve" smooth="yes"/>
    </contour>
  </outline>
</glyph>
<glyph name="bracketleft" format="1">
  <advance width="300"/>
  <unicode hex="005B"/>
  <outline>
    <contour>
      <point x="104" y="-67"/>
      <point x="115" y="-53"/>
      <point x="115" y="-34" type="curve" smooth="yes"/>
      <point x="115" y="631" type="line" smooth="yes"/>
      <point x="115" y="650"/>
      <point x="103" y="664"/>
      <point x="88" y="664" type="curve" smooth="yes"/>
      <point x="73" y="664"/>
      <point x="61" y="650"/>
      <point x="61" y="631" type="curve" smooth="yes"/>
      <point x="61" y="-34" type="line" smooth="yes"/>
      <point x="61" y="-53"/>
      <point x="73" y="-67"/>
      <point x="88" y="-67" type="curve" smooth="yes"/>
    </contour>
    <contour>
      <point x="88" y="618" type="line"/>
      <point x="171" y="618" type="line" smooth="yes"/>
      <point x="185" y="618"/>
      <point x="197" y="629"/>
      <point x="197" y="642" type="curve" smooth="yes"/>
      <point x="197" y="654"/>
      <point x="185" y="664"/>
      <point x="171" y="664" type="curve" smooth="yes"/>
      <point x="88" y="664" type="line"/>
    </contour>
    <contour>
      <point x="88" y="-67" type="line"/>
      <point x="171" y="-67" type="line" smooth="yes"/>
      <point x="185" y="-67"/>
      <point x="197" y="-57"/>
      <point x="197" y="-44" type="curve" smooth="yes"/>
      <point x="197" y="-31"/>
      <point x="185" y="-21"/>
      <point x="171" y="-21" type="curve" smooth="yes"/>
      <point x="88" y="-21" type="line"/>
    </contour>
  </outline>
</glyph>
<glyph name="bracketright" format="1">
  <advance width="300"/>
  <unicode hex="005D"/>
  <outline>
    <contour>
      <point x="242" y="-67"/>
      <point x="254" y="-53"/>
      <point x="254" y="-34" type="curve" smooth="yes"/>
      <point x="254" y="631" type="line" smooth="yes"/>
      <point x="254" y="650"/>
      <point x="242" y="664"/>
      <point x="227" y="664" type="curve" smooth="yes"/>
      <point x="212" y="664"/>
      <point x="200" y="650"/>
      <point x="200" y="631" type="curve" smooth="yes"/>
      <point x="200" y="-34" type="line" smooth="yes"/>
      <point x="200" y="-53"/>
      <point x="211" y="-67"/>
      <point x="227" y="-67" type="curve" smooth="yes"/>
    </contour>
    <contour>
      <point x="145" y="664" type="line" smooth="yes"/>
      <point x="130" y="664"/>
      <point x="118" y="654"/>
      <point x="118" y="642" type="curve" smooth="yes"/>
      <point x="118" y="629"/>
      <point x="130" y="618"/>
      <point x="145" y="618" type="curve" smooth="yes"/>
      <point x="227" y="618" type="line"/>
      <point x="227" y="664" type="line"/>
    </contour>
    <contour>
      <point x="145" y="-21" type="line" smooth="yes"/>
      <point x="130" y="-21"/>
      <point x="118" y="-31"/>
      <point x="118" y="-44" type="curve" smooth="yes"/>
      <point x="118" y="-57"/>
      <point x="130" y="-67"/>
      <point x="145" y="-67" type="curve" smooth="yes"/>
      <point x="227" y="-67" type="line"/>
      <point x="227" y="-21" type="line"/>
    </contour>
  </outline>
</glyph>
<glyph name="quoteleft" format="1">
  <advance width="300"/>
  <unicode hex="2018"/>
  <outline>
    <contour>
      <point x="168" y="505"/>
      <point x="174" y="512"/>
      <point x="174" y="520" type="curve" smooth="yes"/>
      <point x="174" y="528"/>
      <point x="168" y="533"/>
      <point x="157" y="539" type="curve" smooth="yes"/>
      <point x="134" y="550"/>
      <point x="114" y="568"/>
      <point x="114" y="596" type="curve" smooth="yes"/>
      <point x="114" y="611"/>
      <point x="119" y="623"/>
      <point x="132" y="633" type="curve"/>
      <point x="106" y="644" type="line"/>
      <point x="106" y="622"/>
      <point x="121" y="601"/>
      <point x="147" y="601" type="curve" smooth="yes"/>
      <point x="171" y="601"/>
      <point x="191" y="620"/>
      <point x="191" y="645" type="curve" smooth="yes"/>
      <point x="191" y="670"/>
      <point x="171" y="688"/>
      <point x="143" y="688" type="curve" smooth="yes"/>
      <point x="102" y="688"/>
      <point x="73" y="650"/>
      <point x="73" y="607" type="curve" smooth="yes"/>
      <point x="73" y="548"/>
      <point x="122" y="505"/>
      <point x="156" y="505" type="curve" smooth="yes"/>
    </contour>
  </outline>
</glyph>
<glyph name="quoteright" format="1">
  <advance width="300"/>
  <unicode hex="2019"/>
  <outline>
    <contour>
      <point x="200" y="505"/>
      <point x="249" y="548"/>
      <point x="249" y="607" type="curve" smooth="yes"/>
      <point x="249" y="650"/>
      <point x="220" y="688"/>
      <point x="179" y="688" type="curve" smooth="yes"/>
      <point x="151" y="688"/>
      <point x="131" y="670"/>
      <point x="131" y="645" type="curve" smooth="yes"/>
      <point x="131" y="620"/>
      <point x="151" y="601"/>
      <point x="175" y="601" type="curve" smooth="yes"/>
      <point x="201" y="601"/>
      <point x="215" y="622"/>
      <point x="215" y="644" type="curve"/>
      <point x="190" y="633" type="line"/>
      <point x="203" y="623"/>
      <point x="208" y="611"/>
      <point x="208" y="596" type="curve" smooth="yes"/>
      <point x="208" y="568"/>
      <point x="187" y="550"/>
      <point x="164" y="539" type="curve" smooth="yes"/>
      <point x="154" y="533"/>
      <point x="148" y="528"/>
      <point x="148" y="520" type="curve" smooth="yes"/>
      <point x="148" y="512"/>
      <point x="153" y="505"/>
      <point x="166" y="505" type="curve" smooth="yes"/>
    </contour>
  </outline>
</glyph>
<glyph name="ellipsis" format="1">
  <advance width="500"/>
  <unicode hex="2026"/>
  <outline>
    <contour>
      <point x="123" y="-12"/>
      <point x="143" y="-2"/>
      <point x="143" y="21" type="curve" smooth="yes"/>
      <point x="143" y="43"/>
      <point x="128" y="61"/>
      <point x="104" y="61" type="curve" smooth="yes"/>
      <point x="86" y="61"/>
      <point x="69" y="47"/>
      <point x="69" y="28" type="curve" smooth="yes"/>
      <point x="69" y="6"/>
      <point x="85" y="-12"/>
      <point x="108" y="-12" type="curve" smooth="yes"/>
    </contour>
    <contour>
      <point x="268" y="-12"/>
      <point x="288" y="-2"/>
      <point x="288" y="21" type="curve" smooth="yes"/>
      <point x="288" y="43"/>
      <point x="273" y="61"/>
      <point x="249" y="61" type="curve" smooth="yes"/>
      <point x="231" y="61"/>
      <point x="214" y="47"/>
      <point x="214" y="28" type="curve" smooth="yes"/>
      <point x="214" y="6"/>
      <point x="230" y="-12"/>
      <point x="253" y="-12" type="curve" smooth="yes"/>
    </contour>
    <contour>
      <point x="406" y="-12"/>
      <point x="426" y="-2"/>
      <point x="426" y="21" type="curve" smooth="yes"/>
      <point x="426" y="43"/>
      <point x="411" y="61"/>
      <point x="387" y="61" type="curve" smooth="yes"/>
      <point x="369" y="61"/>
      <point x="352" y="47"/>
      <point x="352" y="28" type="curve" smooth="yes"/>
      <point x="352" y="6"/>
      <point x="368" y="-12"/>
      <point x="391" y="-12" type="curve" smooth="yes"/>
    </contour>
  </outline>
</glyph>
<glyph name="BASE" format="1">
  <advance width="623"/>
  <outline>
    <contour>
      <point x="311" y="459" type="curve" smooth="yes"/>
      <point x="333" y="459"/>
      <point x="348" y="474"/>
      <point x="348" y="497" type="curve" smooth="yes"/>
      <point x="348" y="521"/>
      <point x="332" y="534"/>
      <point x="311" y="534" type="curve" smooth="yes"/>
      <point x="292" y="534"/>
      <point x="276" y="521"/>
      <point x="276" y="497" type="curve" smooth="yes"/>
      <point x="276" y="474"/>
      <point x="292" y="459"/>
    </contour>
    <contour>
      <point x="311" y="-10" type="curve" smooth="yes"/>
      <point x="333" y="-10"/>
      <point x="348" y="5"/>
      <point x="348" y="29" type="curve" smooth="yes"/>
      <point x="348" y="53"/>
      <point x="332" y="65"/>
      <point x="311" y="65" type="curve" smooth="yes"/>
      <point x="292" y="65"/>
      <point x="276" y="53"/>
      <point x="276" y="29" type="curve" smooth="yes"/>
      <point x="276" y="5"/>
      <point x="292" y="-10"/>
    </contour>
    <contour>
      <point x="537" y="224" type="curve" smooth="yes"/>
      <point x="559" y="224"/>
      <point x="574" y="239"/>
      <point x="574" y="263" type="curve" smooth="yes"/>
      <point x="574" y="287"/>
      <point x="557" y="300"/>
      <point x="537" y="300" type="curve" smooth="yes"/>
      <point x="518" y="300"/>
      <point x="502" y="287"/>
      <point x="502" y="263" type="curve" smooth="yes"/>
      <point x="502" y="239"/>
      <point x="518" y="224"/>
    </contour>
    <contour>
      <point x="84" y="224" type="curve" smooth="yes"/>
      <point x="106" y="224"/>
      <point x="121" y="239"/>
      <point x="121" y="263" type="curve" smooth="yes"/>
      <point x="121" y="287"/>
      <point x="105" y="300"/>
      <point x="84" y="300" type="curve" smooth="yes"/>
      <point x="65" y="300"/>
      <point x="49" y="287"/>
      <point x="49" y="263" type="curve" smooth="yes"/>
      <point x="49" y="239"/>
      <point x="65" y="224"/>
    </contour>
    <contour>
      <point x="197" y="430" type="curve" smooth="yes"/>
      <point x="219" y="430"/>
      <point x="234" y="445"/>
      <point x="234" y="468" type="curve" smooth="yes"/>
      <point x="234" y="493"/>
      <point x="218" y="505"/>
      <point x="197" y="505" type="curve" smooth="yes"/>
      <point x="178" y="505"/>
      <point x="162" y="493"/>
      <point x="162" y="468" type="curve" smooth="yes"/>
      <point x="162" y="445"/>
      <point x="178" y="430"/>
    </contour>
    <contour>
      <point x="114" y="343" type="curve" smooth="yes"/>
      <point x="136" y="343"/>
      <point x="151" y="358"/>
      <point x="151" y="381" type="curve" smooth="yes"/>
      <point x="151" y="406"/>
      <point x="135" y="418"/>
      <point x="114" y="418" type="curve" smooth="yes"/>
      <point x="95" y="418"/>
      <point x="79" y="406"/>
      <point x="79" y="381" type="curve" smooth="yes"/>
      <point x="79" y="358"/>
      <point x="95" y="343"/>
    </contour>
    <contour>
      <point x="114" y="107" type="curve" smooth="yes"/>
      <point x="136" y="107"/>
      <point x="151" y="122"/>
      <point x="151" y="146" type="curve" smooth="yes"/>
      <point x="151" y="170"/>
      <point x="135" y="183"/>
      <point x="114" y="183" type="curve" smooth="yes"/>
      <point x="95" y="183"/>
      <point x="79" y="170"/>
      <point x="79" y="146" type="curve" smooth="yes"/>
      <point x="79" y="122"/>
      <point x="95" y="107"/>
    </contour>
    <contour>
      <point x="197" y="20" type="curve" smooth="yes"/>
      <point x="219" y="20"/>
      <point x="234" y="35"/>
      <point x="234" y="59" type="curve" smooth="yes"/>
      <point x="234" y="83"/>
      <point x="218" y="95"/>
      <point x="197" y="95" type="curve" smooth="yes"/>
      <point x="178" y="95"/>
      <point x="162" y="83"/>
      <point x="162" y="59" type="curve" smooth="yes"/>
      <point x="162" y="35"/>
      <point x="178" y="20"/>
    </contour>
    <contour>
      <point x="424" y="20" type="curve" smooth="yes"/>
      <point x="446" y="20"/>
      <point x="461" y="35"/>
      <point x="461" y="59" type="curve" smooth="yes"/>
      <point x="461" y="83"/>
      <point x="445" y="95"/>
      <point x="424" y="95" type="curve" smooth="yes"/>
      <point x="405" y="95"/>
      <point x="389" y="83"/>
      <point x="389" y="59" type="curve" smooth="yes"/>
      <point x="389" y="35"/>
      <point x="405" y="20"/>
    </contour>
    <contour>
      <point x="508" y="107" type="curve" smooth="yes"/>
      <point x="530" y="107"/>
      <point x="545" y="122"/>
      <point x="545" y="146" type="curve" smooth="yes"/>
      <point x="545" y="170"/>
      <point x="529" y="183"/>
      <point x="508" y="183" type="curve" smooth="yes"/>
      <point x="489" y="183"/>
      <point x="473" y="170"/>
      <point x="473" y="146" type="curve" smooth="yes"/>
      <point x="473" y="122"/>
      <point x="489" y="107"/>
    </contour>
    <contour>
      <point x="424" y="429" type="curve" smooth="yes"/>
      <point x="446" y="429"/>
      <point x="461" y="444"/>
      <point x="461" y="467" type="curve" smooth="yes"/>
      <point x="461" y="491"/>
      <point x="445" y="504"/>
      <point x="424" y="504" type="curve" smooth="yes"/>
      <point x="405" y="504"/>
      <point x="389" y="491"/>
      <point x="389" y="467" type="curve" smooth="yes"/>
      <point x="389" y="444"/>
      <point x="405" y="429"/>
    </contour>
    <contour>
      <point x="508" y="342" type="curve" smooth="yes"/>
      <point x="530" y="342"/>
      <point x="545" y="356"/>
      <point x="545" y="380" type="curve" smooth="yes"/>
      <point x="545" y="404"/>
      <point x="529" y="417"/>
      <point x="508" y="417" type="curve" smooth="yes"/>
      <point x="489" y="417"/>
      <point x="473" y="404"/>
      <point x="473" y="380" type="curve" smooth="yes"/>
      <point x="473" y="356"/>
      <point x="489" y="342"/>
    </contour>
  </outline>
</glyph>
<glyph name="Danda" format="1">
  <advance width="322"/>
  <outline>
    <contour>
      <point x="227" y="-12"/>
      <point x="238" y="2"/>
      <point x="238" y="21" type="curve" smooth="yes"/>
      <point x="238" y="616" type="line" smooth="yes"/>
      <point x="238" y="635"/>
      <point x="226" y="649"/>
      <point x="211" y="649" type="curve" smooth="yes"/>
      <point x="196" y="649"/>
      <point x="184" y="635"/>
      <point x="184" y="616" type="curve" smooth="yes"/>
      <point x="184" y="21" type="line" smooth="yes"/>
      <point x="184" y="2"/>
      <point x="196" y="-12"/>
      <point x="211" y="-12" type="curve" smooth="yes"/>
    </contour>
  </outline>
</glyph>
<glyph name="ZWJ" format="1">
  <advance width="0"/>
  <outline>
    <contour>
      <point x="0" y="759" type="line" smooth="yes"/>
      <point x="0" y="802"/>
      <point x="16" y="841"/>
      <point x="78" y="841" type="curve" smooth="yes"/>
      <point x="192" y="841" type="line" smooth="yes"/>
      <point x="207" y="841"/>
      <point x="219" y="831"/>
      <point x="219" y="818" type="curve" smooth="yes"/>
      <point x="219" y="805"/>
      <point x="207" y="795"/>
      <point x="192" y="795" type="curve" smooth="yes"/>
      <point x="85" y="795" type="line" smooth="yes"/>
      <point x="62" y="795"/>
      <point x="54" y="785"/>
      <point x="54" y="759" type="curve" smooth="yes"/>
      <point x="54" y="-216" type="line" smooth="yes"/>
      <point x="54" y="-232"/>
      <point x="41" y="-243"/>
      <point x="26" y="-243" type="curve" smooth="yes"/>
      <point x="11" y="-243"/>
      <point x="0" y="-231"/>
      <point x="0" y="-216" type="curve" smooth="yes"/>
    </contour>
  </outline>
</glyph>
<glyph name="ZWNJ" format="1">
  <advance width="0"/>
  <outline>
    <contour>
      <point x="0" y="814" type="line" smooth="yes"/>
      <point x="0" y="829"/>
      <point x="11" y="841"/>
      <point x="27" y="841" type="curve" smooth="yes"/>
      <point x="43" y="841"/>
      <point x="54" y="828"/>
      <point x="54" y="813" type="curve" smooth="yes"/>
      <point x="54" y="-216" type="line" smooth="yes"/>
      <point x="54" y="-232"/>
      <point x="43" y="-243"/>
      <point x="27" y="-243" type="curve" smooth="yes"/>
      <point x="11" y="-243"/>
      <point x="0" y="-231"/>
      <point x="0" y="-216" type="curve" smooth="yes"/>
    </contour>
  </outline>
</glyph>
<glyph name="bA" format="1">
  <advance width="732"/>
  <outline>
    <contour>
      <point x="628" y="-12"/>
      <point x="640" y="3"/>
      <point x="640" y="21" type="curve" smooth="yes"/>
      <point x="640" y="461" type="line" smooth="yes"/>
      <point x="640" y="531"/>
      <point x="645" y="541"/>
      <point x="679" y="541" type="curve" smooth="yes"/>
      <point x="732" y="541" type="line" smooth="yes"/>
      <point x="746" y="541"/>
      <point x="758" y="551"/>
      <point x="758" y="565" type="curve" smooth="yes"/>
      <point x="758" y="577"/>
      <point x="746" y="587"/>
      <point x="732" y="587" type="curve" smooth="yes"/>
      <point x="665" y="587" type="line" smooth="yes"/>
      <point x="627" y="587"/>
      <point x="592" y="566"/>
      <point x="592" y="499" type="curve"/>
      <point x="612" y="512" type="line"/>
      <point x="612" y="569"/>
      <point x="578" y="587"/>
      <point x="530" y="587" type="curve" smooth="yes"/>
      <point x="-1" y="587" type="line" smooth="yes"/>
      <point x="-15" y="587"/>
      <point x="-27" y="577"/>
      <point x="-27" y="565" type="curve" smooth="yes"/>
      <point x="-27" y="551"/>
      <point x="-15" y="541"/>
      <point x="-1" y="541" type="curve" smooth="yes"/>
      <point x="527" y="541" type="line" smooth="yes"/>
      <point x="578" y="541"/>
      <point x="586" y="519"/>
      <point x="586" y="468" type="curve" smooth="yes"/>
      <point x="586" y="21" type="line" smooth="yes"/>
      <point x="586" y="3"/>
      <point x="598" y="-12"/>
      <point x="613" y="-12" type="curve" smooth="yes"/>
    </contour>
    <contour>
      <point x="427" y="95"/>
      <point x="503" y="174"/>
      <point x="503" y="280" type="curve" smooth="yes"/>
      <point x="503" y="388"/>
      <point x="424" y="474"/>
      <point x="318" y="474" type="curve" smooth="yes"/>
      <point x="256" y="474"/>
      <point x="212" y="437"/>
      <point x="212" y="383" type="curve" smooth="yes"/>
      <point x="212" y="336"/>
      <point x="248" y="296"/>
      <point x="298" y="296" type="curve" smooth="yes"/>
      <point x="348" y="296"/>
      <point x="379" y="335"/>
      <point x="379" y="377" type="curve" smooth="yes"/>
      <point x="379" y="418"/>
      <point x="351" y="448"/>
      <point x="308" y="451" type="curve"/>
      <point x="315" y="437" type="line"/>
      <point x="375" y="437"/>
      <point x="453" y="391"/>
      <point x="453" y="296" type="curve" smooth="yes"/>
      <point x="453" y="213"/>
      <point x="394" y="156"/>
      <point x="312" y="156" type="curve" smooth="yes"/>
      <point x="171" y="156"/>
      <point x="112" y="325"/>
      <point x="77" y="433" type="curve" smooth="yes"/>
      <point x="72" y="448"/>
      <point x="65" y="455"/>
      <point x="53" y="455" type="curve" smooth="yes"/>
      <point x="38" y="455"/>
      <point x="32" y="441"/>
      <point x="32" y="430" type="curve" smooth="yes"/>
      <point x="32" y="397"/>
      <point x="107" y="95"/>
      <point x="319" y="95" type="curve" smooth="yes"/>
    </contour>
    <contour>
      <point x="615" y="83" type="line"/>
      <point x="599" y="152"/>
      <point x="535" y="218"/>
      <point x="476" y="270" type="curve"/>
      <point x="456" y="211" type="line"/>
      <point x="524" y="169"/>
      <point x="587" y="109"/>
      <point x="587" y="41" type="curve"/>
    </contour>
    <contour>
      <point x="282" y="347"/>
      <point x="265" y="364"/>
      <point x="265" y="384" type="curve" smooth="yes"/>
      <point x="265" y="405"/>
      <point x="282" y="422"/>
      <point x="303" y="422" type="curve" smooth="yes"/>
      <point x="323" y="422"/>
      <point x="340" y="405"/>
      <point x="340" y="384" type="curve" smooth="yes"/>
      <point x="340" y="364"/>
      <point x="323" y="347"/>
      <point x="303" y="347" type="curve" smooth="yes"/>
    </contour>
  </outline>
</glyph>
<glyph name="bAi" format="1">
  <advance width="700"/>
  <outline>
    <contour>
      <point x="563" y="281"/>
      <point x="670" y="368"/>
      <point x="670" y="488" type="curve" smooth="yes"/>
      <point x="670" y="638"/>
      <point x="551" y="685"/>
      <point x="425" y="736" type="curve" smooth="yes"/>
      <point x="347" y="768"/>
      <point x="302" y="801"/>
      <point x="298" y="855" type="curve" smooth="yes"/>
      <point x="296" y="875"/>
      <point x="293" y="897"/>
      <point x="274" y="897" type="curve" smooth="yes"/>
      <point x="256" y="897"/>
      <point x="249" y="880"/>
      <point x="249" y="857" type="curve" smooth="yes"/>
      <point x="249" y="778"/>
      <point x="309" y="731"/>
      <point x="405" y="689" type="curve" smooth="yes"/>
      <point x="512" y="643"/>
      <point x="623" y="611"/>
      <point x="623" y="498" type="curve" smooth="yes"/>
      <point x="623" y="427"/>
      <point x="563" y="347"/>
      <point x="490" y="347" type="curve"/>
      <point x="490" y="281" type="line"/>
    </contour>
    <component base="bE"/>
  </outline>
</glyph>
<glyph name="bAnusvara" format="1">
  <advance width="342"/>
  <outline>
    <contour>
      <point x="357" y="-11"/>
      <point x="364" y="-3"/>
      <point x="364" y="11" type="curve" smooth="yes"/>
      <point x="364" y="19"/>
      <point x="360" y="28"/>
      <point x="352" y="37" type="curve" smooth="yes"/>
      <point x="324" y="68"/>
      <point x="300" y="135"/>
      <point x="258" y="205" type="curve" smooth="yes"/>
      <point x="226" y="259"/>
      <point x="176" y="314"/>
      <point x="90" y="314" type="curve" smooth="yes"/>
      <point x="62" y="314"/>
      <point x="53" y="300"/>
      <point x="53" y="287" type="curve" smooth="yes"/>
      <point x="53" y="269"/>
      <point x="69" y="260"/>
      <point x="86" y="259" type="curve" smooth="yes"/>
      <point x="153" y="256"/>
      <point x="193" y="227"/>
      <point x="225" y="166" type="curve" smooth="yes"/>
      <point x="268" y="88"/>
      <point x="301" y="-11"/>
      <point x="344" y="-11" type="curve" smooth="yes"/>
    </contour>
    <contour>
      <point x="219" y="357"/>
      <point x="270" y="391"/>
      <point x="270" y="456" type="curve" smooth="yes"/>
      <point x="270" y="517"/>
      <point x="223" y="563"/>
      <point x="160" y="563" type="curve" smooth="yes"/>
      <point x="93" y="563"/>
      <point x="57" y="514"/>
      <point x="57" y="464" type="curve" smooth="yes"/>
      <point x="57" y="406"/>
      <point x="108" y="357"/>
      <point x="168" y="357" type="curve" smooth="yes"/>
    </contour>
    <contour>
      <point x="141" y="405"/>
      <point x="107" y="424"/>
      <point x="107" y="461" type="curve" smooth="yes"/>
      <point x="107" y="488"/>
      <point x="125" y="515"/>
      <point x="161" y="515" type="curve" smooth="yes"/>
      <point x="193" y="515"/>
      <point x="221" y="494"/>
      <point x="221" y="462" type="curve" smooth="yes"/>
      <point x="221" y="429"/>
      <point x="195" y="405"/>
      <point x="166" y="405" type="curve" smooth="yes"/>
    </contour>
  </outline>
</glyph>
<glyph name="bAu" format="1">
  <advance width="660"/>
  <outline>
    <contour>
      <point x="536" y="297"/>
      <point x="640" y="368"/>
      <point x="640" y="488" type="curve" smooth="yes"/>
      <point x="640" y="638"/>
      <point x="521" y="685"/>
      <point x="395" y="736" type="curve" smooth="yes"/>
      <point x="317" y="768"/>
      <point x="271" y="801"/>
      <point x="265" y="855" type="curve" smooth="yes"/>
      <point x="264" y="873"/>
      <point x="263" y="897"/>
      <point x="243" y="897" type="curve" smooth="yes"/>
      <point x="226" y="897"/>
      <point x="219" y="880"/>
      <point x="219" y="857" type="curve" smooth="yes"/>
      <point x="219" y="778"/>
      <point x="279" y="731"/>
      <point x="375" y="689" type="curve" smooth="yes"/>
      <point x="482" y="643"/>
      <point x="593" y="611"/>
      <point x="593" y="495" type="curve" smooth="yes"/>
      <point x="593" y="425"/>
      <point x="533" y="355"/>
      <point x="461" y="355" type="curve"/>
      <point x="475" y="297" type="line"/>
    </contour>
    <component base="bO"/>
  </outline>
</glyph>
<glyph name="bAuMark" format="1">
  <advance width="220"/>
  <outline>
    <contour>
      <point x="125" y="474" type="line"/>
      <point x="125" y="516"/>
      <point x="137" y="551"/>
      <point x="137" y="598" type="curve" smooth="yes"/>
      <point x="137" y="735"/>
      <point x="57" y="741"/>
      <point x="-114" y="788" type="curve" smooth="yes"/>
      <point x="-169" y="802"/>
      <point x="-211" y="834"/>
      <point x="-213" y="870" type="curve" smooth="yes"/>
      <point x="-215" y="895"/>
      <point x="-228" y="901"/>
      <point x="-238" y="901" type="curve" smooth="yes"/>
      <point x="-249" y="901"/>
      <point x="-260" y="893"/>
      <point x="-260" y="873" type="curve" smooth="yes"/>
      <point x="-260" y="797"/>
      <point x="-191" y="759"/>
      <point x="-119" y="738" type="curve" smooth="yes"/>
      <point x="4" y="701"/>
      <point x="93" y="699"/>
      <point x="93" y="599" type="curve" smooth="yes"/>
      <point x="93" y="559"/>
      <point x="81" y="525"/>
      <point x="81" y="474" type="curve"/>
    </contour>
    <contour>
      <point x="116" y="-12"/>
      <point x="128" y="3"/>
      <point x="128" y="21" type="curve" smooth="yes"/>
      <point x="128" y="461" type="line" smooth="yes"/>
      <point x="128" y="531"/>
      <point x="133" y="541"/>
      <point x="167" y="541" type="curve" smooth="yes"/>
      <point x="220" y="541" type="line" smooth="yes"/>
      <point x="234" y="541"/>
      <point x="246" y="551"/>
      <point x="246" y="565" type="curve" smooth="yes"/>
      <point x="246" y="577"/>
      <point x="234" y="587"/>
      <point x="220" y="587" type="curve" smooth="yes"/>
      <point x="153" y="587" type="line" smooth="yes"/>
      <point x="115" y="587"/>
      <point x="82" y="566"/>
      <point x="82" y="499" type="curve"/>
      <point x="100" y="512" type="line"/>
      <point x="100" y="569"/>
      <point x="66" y="587"/>
      <point x="23" y="587" type="curve" smooth="yes"/>
      <point x="-1" y="587" type="line" smooth="yes"/>
      <point x="-15" y="587"/>
      <point x="-27" y="577"/>
      <point x="-27" y="565" type="curve" smooth="yes"/>
      <point x="-27" y="551"/>
      <point x="-15" y="541"/>
      <point x="-1" y="541" type="curve" smooth="yes"/>
      <point x="25" y="541" type="line" smooth="yes"/>
      <point x="68" y="541"/>
      <point x="74" y="521"/>
      <point x="74" y="468" type="curve" smooth="yes"/>
      <point x="74" y="21" type="line" smooth="yes"/>
      <point x="74" y="3"/>
      <point x="86" y="-12"/>
      <point x="101" y="-12" type="curve" smooth="yes"/>
    </contour>
  </outline>
</glyph>
<glyph name="bAvagraha" format="1">
  <advance width="502"/>
  <outline>
    <contour>
      <point x="446" y="55"/>
      <point x="456" y="66"/>
      <point x="456" y="79" type="curve" smooth="yes"/>
      <point x="456" y="98"/>
      <point x="435" y="97"/>
      <point x="400" y="109" type="curve" smooth="yes"/>
      <point x="339" y="128"/>
      <point x="309" y="175"/>
      <point x="263" y="234" type="curve" smooth="yes"/>
      <point x="223" y="286"/>
      <point x="188" y="314"/>
      <point x="145" y="314" type="curve" smooth="yes"/>
      <point x="104" y="314"/>
      <point x="79" y="288"/>
      <point x="79" y="257" type="curve" smooth="yes"/>
      <point x="79" y="220"/>
      <point x="115" y="190"/>
      <point x="172" y="190" type="curve" smooth="yes"/>
      <point x="296" y="190"/>
      <point x="410" y="286"/>
      <point x="410" y="395" type="curve" smooth="yes"/>
      <point x="410" y="504"/>
      <point x="330" y="568"/>
      <point x="231" y="568" type="curve" smooth="yes"/>
      <point x="162" y="568"/>
      <point x="81" y="537"/>
      <point x="81" y="465" type="curve" smooth="yes"/>
      <point x="81" y="423"/>
      <point x="112" y="387"/>
      <point x="161" y="387" type="curve" smooth="yes"/>
      <point x="208" y="387"/>
      <point x="239" y="422"/>
      <point x="239" y="462" type="curve" smooth="yes"/>
      <point x="239" y="503"/>
      <point x="204" y="527"/>
      <point x="176" y="527" type="curve" smooth="yes"/>
      <point x="156" y="527"/>
      <point x="140" y="522"/>
      <point x="128" y="509" type="curve"/>
      <point x="146" y="505" type="line"/>
      <point x="166" y="518"/>
      <point x="197" y="528"/>
      <point x="226" y="528" type="curve" smooth="yes"/>
      <point x="287" y="528"/>
      <point x="355" y="480"/>
      <point x="355" y="406" type="curve" smooth="yes"/>
      <point x="355" y="311"/>
      <point x="263" y="243"/>
      <point x="163" y="243" type="curve" smooth="yes"/>
      <point x="139" y="243"/>
      <point x="126" y="252"/>
      <point x="126" y="258" type="curve" smooth="yes"/>
      <point x="126" y="262"/>
      <point x="131" y="266"/>
      <point x="141" y="266" type="curve" smooth="yes"/>
      <point x="166" y="266"/>
      <point x="193" y="228"/>
      <point x="216" y="203" type="curve" smooth="yes"/>
      <point x="260" y="154"/>
      <point x="331" y="55"/>
      <point x="418" y="55" type="curve" smooth="yes"/>
    </contour>
    <contour>
      <point x="143" y="433"/>
      <point x="128" y="448"/>
      <point x="128" y="466" type="curve" smooth="yes"/>
      <point x="128" y="485"/>
      <point x="143" y="500"/>
      <point x="162" y="500" type="curve" smooth="yes"/>
      <point x="180" y="500"/>
      <point x="195" y="485"/>
      <point x="195" y="466" type="curve" smooth="yes"/>
      <point x="195" y="448"/>
      <point x="180" y="433"/>
      <point x="162" y="433" type="curve" smooth="yes"/>
    </contour>
  </outline>
</glyph>
<glyph name="bBBa" format="1">
  <advance width="815"/>
  <outline>
    <contour>
      <point x="710" y="61" type="line"/>
      <point x="710" y="177"/>
      <point x="518" y="291"/>
      <point x="376" y="314" type="curve"/>
      <point x="389" y="296" type="line"/>
      <point x="629" y="392"/>
      <point x="701" y="440"/>
      <point x="701" y="508" type="curve" smooth="yes"/>
      <point x="701" y="554"/>
      <point x="659" y="587"/>
      <point x="595" y="587" type="curve" smooth="yes"/>
      <point x="452" y="587" type="line"/>
      <point x="452" y="541" type="line"/>
      <point x="588" y="541" type="line" smooth="yes"/>
      <point x="634" y="541"/>
      <point x="663" y="531"/>
      <point x="663" y="512" type="curve" smooth="yes"/>
      <point x="663" y="483"/>
      <point x="598" y="448"/>
      <point x="362" y="348" type="curve"/>
      <point x="362" y="265" type="line"/>
      <point x="446" y="242"/>
      <point x="669" y="164"/>
      <point x="669" y="48" type="curve"/>
    </contour>
    <contour>
      <point x="712" y="-12"/>
      <point x="724" y="2"/>
      <point x="724" y="21" type="curve" smooth="yes"/>
      <point x="724" y="461" type="line" smooth="yes"/>
      <point x="724" y="531"/>
      <point x="729" y="541"/>
      <point x="763" y="541" type="curve" smooth="yes"/>
      <point x="815" y="541" type="line" smooth="yes"/>
      <point x="830" y="541"/>
      <point x="842" y="551"/>
      <point x="842" y="565" type="curve" smooth="yes"/>
      <point x="842" y="577"/>
      <point x="830" y="587"/>
      <point x="815" y="587" type="curve" smooth="yes"/>
      <point x="748" y="587" type="line" smooth="yes"/>
      <point x="696" y="587"/>
      <point x="670" y="555"/>
      <point x="670" y="476" type="curve" smooth="yes"/>
      <point x="670" y="21" type="line" smooth="yes"/>
      <point x="670" y="2"/>
      <point x="682" y="-12"/>
      <point x="697" y="-12" type="curve" smooth="yes"/>
    </contour>
    <component base="bBa"/>
  </outline>
</glyph>
<glyph name="bBBha" format="1">
  <advance width="616"/>
  <outline>
    <contour>
      <point x="492" y="-74"/>
      <point x="572" y="7"/>
      <point x="572" y="103" type="curve" smooth="yes"/>
      <point x="572" y="166"/>
      <point x="538" y="211"/>
      <point x="513" y="231" type="curve"/>
      <point x="465" y="194" type="line"/>
      <point x="465" y="151"/>
      <point x="418" y="122"/>
      <point x="369" y="122" type="curve" smooth="yes"/>
      <point x="338" y="122"/>
      <point x="305" y="133"/>
      <point x="281" y="158" type="curve"/>
      <point x="258" y="154" type="line"/>
      <point x="269" y="140"/>
      <point x="288" y="131"/>
      <point x="309" y="131" type="curve" smooth="yes"/>
      <point x="350" y="131"/>
      <point x="380" y="166"/>
      <point x="380" y="205" type="curve" smooth="yes"/>
      <point x="380" y="245"/>
      <point x="348" y="285"/>
      <point x="300" y="285" type="curve" smooth="yes"/>
      <point x="256" y="285"/>
      <point x="213" y="252"/>
      <point x="213" y="200" type="curve" smooth="yes"/>
      <point x="213" y="138"/>
      <point x="275" y="71"/>
      <point x="367" y="71" type="curve" smooth="yes"/>
      <point x="469" y="71"/>
      <point x="508" y="155"/>
      <point x="508" y="188" type="curve"/>
      <point x="491" y="186" type="line"/>
      <point x="503" y="173"/>
      <point x="524" y="150"/>
      <point x="524" y="111" type="curve" smooth="yes"/>
      <point x="524" y="40"/>
      <point x="460" y="-15"/>
      <point x="373" y="-15" type="curve" smooth="yes"/>
      <point x="172" y="-15"/>
      <point x="102" y="277"/>
      <point x="79" y="410" type="curve" smooth="yes"/>
      <point x="77" y="427"/>
      <point x="70" y="439"/>
      <point x="55" y="439" type="curve" smooth="yes"/>
      <point x="38" y="439"/>
      <point x="33" y="425"/>
      <point x="33" y="405" type="curve" smooth="yes"/>
      <point x="33" y="325"/>
      <point x="111" y="-74"/>
      <point x="374" y="-74" type="curve" smooth="yes"/>
    </contour>
    <contour>
      <point x="278" y="165"/>
      <point x="259" y="177"/>
      <point x="259" y="200" type="curve" smooth="yes"/>
      <point x="259" y="224"/>
      <point x="278" y="235"/>
      <point x="295" y="235" type="curve" smooth="yes"/>
      <point x="312" y="235"/>
      <point x="330" y="224"/>
      <point x="330" y="200" type="curve" smooth="yes"/>
      <point x="330" y="176"/>
      <point x="312" y="165"/>
      <point x="295" y="165" type="curve" smooth="yes"/>
    </contour>
    <contour>
      <point x="510" y="234" type="line"/>
      <point x="446" y="323"/>
      <point x="292" y="358"/>
      <point x="209" y="371" type="curve"/>
      <point x="208" y="356" type="line"/>
      <point x="352" y="401"/>
      <point x="498" y="439"/>
      <point x="498" y="516" type="curve" smooth="yes"/>
      <point x="498" y="561"/>
      <point x="452" y="587"/>
      <point x="387" y="587" type="curve" smooth="yes"/>
      <point x="0" y="587" type="line" smooth="yes"/>
      <point x="-10" y="587"/>
      <point x="-22" y="580"/>
      <point x="-22" y="565" type="curve" smooth="yes"/>
      <point x="-22" y="551"/>
      <point x="-12" y="541"/>
      <point x="0" y="541" type="curve" smooth="yes"/>
      <point x="380" y="541" type="line" smooth="yes"/>
      <point x="422" y="541"/>
      <point x="458" y="531"/>
      <point x="458" y="514" type="curve" smooth="yes"/>
      <point x="458" y="477"/>
      <point x="277" y="440"/>
      <point x="200" y="405" type="curve" smooth="yes"/>
      <point x="184" y="399"/>
      <point x="167" y="389"/>
      <point x="167" y="366" type="curve" smooth="yes"/>
      <point x="167" y="344"/>
      <point x="182" y="330"/>
      <point x="209" y="322" type="curve" smooth="yes"/>
      <point x="258" y="308"/>
      <point x="465" y="278"/>
      <point x="465" y="197" type="curve"/>
    </contour>
    <contour>
      <point x="516" y="202" type="line"/>
      <point x="516" y="461" type="line" smooth="yes"/>
      <point x="516" y="531"/>
      <point x="521" y="541"/>
      <point x="555" y="541" type="curve" smooth="yes"/>
      <point x="620" y="541" type="line" smooth="yes"/>
      <point x="635" y="541"/>
      <point x="646" y="551"/>
      <point x="646" y="565" type="curve" smooth="yes"/>
      <point x="646" y="577"/>
      <point x="635" y="587"/>
      <point x="620" y="587" type="curve" smooth="yes"/>
      <point x="540" y="587" type="line" smooth="yes"/>
      <point x="488" y="587"/>
      <point x="462" y="555"/>
      <point x="462" y="476" type="curve" smooth="yes"/>
      <point x="462" y="202" type="line"/>
    </contour>
  </outline>
</glyph>
<glyph name="bBDRa" format="1">
  <advance width="730"/>
  <outline>
    <contour>
      <point x="612" y="-58" type="line"/>
      <point x="603" y="18"/>
      <point x="535" y="49"/>
      <point x="480" y="49" type="curve" smooth="yes"/>
      <point x="399" y="49"/>
      <point x="334" y="16"/>
      <point x="277" y="16" type="curve" smooth="yes"/>
      <point x="237" y="16"/>
      <point x="211" y="33"/>
      <point x="211" y="74" type="curve" smooth="yes"/>
      <point x="211" y="97"/>
      <point x="219" y="118"/>
      <point x="219" y="130" type="curve" smooth="yes"/>
      <point x="219" y="142"/>
      <point x="213" y="151"/>
      <point x="200" y="151" type="curve" smooth="yes"/>
      <point x="172" y="151"/>
      <point x="161" y="105"/>
      <point x="161" y="74" type="curve" smooth="yes"/>
      <point x="161" y="13"/>
      <point x="201" y="-37"/>
      <point x="277" y="-37" type="curve" smooth="yes"/>
      <point x="341" y="-37"/>
      <point x="430" y="-3"/>
      <point x="491" y="-3" type="curve" smooth="yes"/>
      <point x="546" y="-3"/>
      <point x="584" y="-32"/>
      <point x="584" y="-89" type="curve"/>
    </contour>
    <contour>
      <point x="629" y="-125"/>
      <point x="639" y="-108"/>
      <point x="639" y="-88" type="curve" smooth="yes"/>
      <point x="639" y="39" type="line" smooth="yes"/>
      <point x="639" y="153"/>
      <point x="625" y="189"/>
      <point x="625" y="235" type="curve" smooth="yes"/>
      <point x="625" y="317"/>
      <point x="654" y="383"/>
      <point x="654" y="414" type="curve" smooth="yes"/>
      <point x="654" y="427"/>
      <point x="648" y="441"/>
      <point x="629" y="441" type="curve" smooth="yes"/>
      <point x="590" y="441"/>
      <point x="419" y="328"/>
      <point x="319" y="219" type="curve"/>
      <point x="343" y="197" type="line"/>
      <point x="343" y="444" type="line" smooth="yes"/>
      <point x="343" y="488"/>
      <point x="343" y="541"/>
      <point x="392" y="541" type="curve" smooth="yes"/>
      <point x="730" y="541" type="line" smooth="yes"/>
      <point x="745" y="541"/>
      <point x="757" y="552"/>
      <point x="757" y="565" type="curve" smooth="yes"/>
      <point x="757" y="577"/>
      <point x="745" y="587"/>
      <point x="730" y="587" type="curve" smooth="yes"/>
      <point x="376" y="587" type="line" smooth="yes"/>
      <point x="332" y="587"/>
      <point x="289" y="558"/>
      <point x="289" y="492" type="curve" smooth="yes"/>
      <point x="289" y="179" type="line" smooth="yes"/>
      <point x="289" y="153"/>
      <point x="302" y="145"/>
      <point x="315" y="145" type="curve" smooth="yes"/>
      <point x="328" y="145"/>
      <point x="335" y="152"/>
      <point x="367" y="185" type="curve" smooth="yes"/>
      <point x="415" y="235"/>
      <point x="546" y="348"/>
      <point x="620" y="377" type="curve"/>
      <point x="613" y="396" type="line"/>
      <point x="581" y="349"/>
      <point x="573" y="293"/>
      <point x="573" y="240" type="curve" smooth="yes"/>
      <point x="573" y="188"/>
      <point x="585" y="153"/>
      <point x="585" y="38" type="curve" smooth="yes"/>
      <point x="585" y="-89" type="line" smooth="yes"/>
      <point x="585" y="-110"/>
      <point x="597" y="-125"/>
      <point x="613" y="-125" type="curve" smooth="yes"/>
    </contour>
    <contour>
      <point x="318" y="218" type="line"/>
      <point x="294" y="300"/>
      <point x="155" y="365"/>
      <point x="80" y="365" type="curve"/>
      <point x="85" y="347" type="line"/>
      <point x="164" y="383"/>
      <point x="327" y="427"/>
      <point x="326" y="514" type="curve" smooth="yes"/>
      <point x="326" y="557"/>
      <point x="290" y="587"/>
      <point x="230" y="587" type="curve" smooth="yes"/>
      <point x="-1" y="587" type="line" smooth="yes"/>
      <point x="-15" y="587"/>
      <point x="-27" y="577"/>
      <point x="-27" y="565" type="curve" smooth="yes"/>
      <point x="-27" y="552"/>
      <point x="-15" y="541"/>
      <point x="-1" y="541" type="curve" smooth="yes"/>
      <point x="233" y="541" type="line" smooth="yes"/>
      <point x="280" y="541"/>
      <point x="288" y="529"/>
      <point x="288" y="519" type="curve" smooth="yes"/>
      <point x="288" y="476"/>
      <point x="165" y="435"/>
      <point x="81" y="400" type="curve" smooth="yes"/>
      <point x="49" y="387"/>
      <point x="39" y="376"/>
      <point x="39" y="358" type="curve" smooth="yes"/>
      <point x="39" y="344"/>
      <point x="50" y="331"/>
      <point x="68" y="327" type="curve" smooth="yes"/>
      <point x="201" y="288"/>
      <point x="288" y="231"/>
      <point x="288" y="184" type="curve"/>
    </contour>
  </outline>
</glyph>
<glyph name="bBDa" format="1">
  <advance width="730"/>
  <outline>
    <contour>
      <point x="629" y="-23"/>
      <point x="639" y="-6"/>
      <point x="639" y="18" type="curve" smooth="yes"/>
      <point x="639" y="139"/>
      <point x="625" y="183"/>
      <point x="625" y="235" type="curve" smooth="yes"/>
      <point x="625" y="317"/>
      <point x="654" y="383"/>
      <point x="654" y="414" type="curve" smooth="yes"/>
      <point x="654" y="427"/>
      <point x="648" y="441"/>
      <point x="629" y="441" type="curve" smooth="yes"/>
      <point x="590" y="441"/>
      <point x="419" y="328"/>
      <point x="319" y="219" type="curve"/>
      <point x="343" y="197" type="line"/>
      <point x="343" y="444" type="line" smooth="yes"/>
      <point x="343" y="488"/>
      <point x="343" y="541"/>
      <point x="392" y="541" type="curve" smooth="yes"/>
      <point x="730" y="541" type="line" smooth="yes"/>
      <point x="745" y="541"/>
      <point x="757" y="552"/>
      <point x="757" y="565" type="curve" smooth="yes"/>
      <point x="757" y="577"/>
      <point x="745" y="587"/>
      <point x="730" y="587" type="curve" smooth="yes"/>
      <point x="376" y="587" type="line" smooth="yes"/>
      <point x="332" y="587"/>
      <point x="289" y="558"/>
      <point x="289" y="492" type="curve" smooth="yes"/>
      <point x="289" y="179" type="line" smooth="yes"/>
      <point x="289" y="153"/>
      <point x="302" y="145"/>
      <point x="315" y="145" type="curve" smooth="yes"/>
      <point x="328" y="145"/>
      <point x="335" y="152"/>
      <point x="367" y="185" type="curve" smooth="yes"/>
      <point x="415" y="235"/>
      <point x="546" y="348"/>
      <point x="620" y="377" type="curve"/>
      <point x="613" y="396" type="line"/>
      <point x="581" y="349"/>
      <point x="573" y="293"/>
      <point x="573" y="240" type="curve" smooth="yes"/>
      <point x="573" y="182"/>
      <point x="583" y="153"/>
      <point x="585" y="17" type="curve" smooth="yes"/>
      <point x="585" y="-8"/>
      <point x="597" y="-23"/>
      <point x="613" y="-23" type="curve" smooth="yes"/>
    </contour>
    <contour>
      <point x="318" y="218" type="line"/>
      <point x="294" y="300"/>
      <point x="155" y="365"/>
      <point x="80" y="365" type="curve"/>
      <point x="85" y="347" type="line"/>
      <point x="164" y="383"/>
      <point x="327" y="427"/>
      <point x="326" y="514" type="curve" smooth="yes"/>
      <point x="326" y="557"/>
      <point x="290" y="587"/>
      <point x="230" y="587" type="curve" smooth="yes"/>
      <point x="-1" y="587" type="line" smooth="yes"/>
      <point x="-15" y="587"/>
      <point x="-27" y="577"/>
      <point x="-27" y="565" type="curve" smooth="yes"/>
      <point x="-27" y="552"/>
      <point x="-15" y="541"/>
      <point x="-1" y="541" type="curve" smooth="yes"/>
      <point x="233" y="541" type="line" smooth="yes"/>
      <point x="280" y="541"/>
      <point x="288" y="529"/>
      <point x="288" y="519" type="curve" smooth="yes"/>
      <point x="288" y="476"/>
      <point x="165" y="435"/>
      <point x="81" y="400" type="curve" smooth="yes"/>
      <point x="49" y="387"/>
      <point x="39" y="376"/>
      <point x="39" y="358" type="curve" smooth="yes"/>
      <point x="39" y="344"/>
      <point x="50" y="331"/>
      <point x="68" y="327" type="curve" smooth="yes"/>
      <point x="201" y="288"/>
      <point x="288" y="231"/>
      <point x="288" y="184" type="curve"/>
    </contour>
  </outline>
</glyph>
<glyph name="bBDda" format="1">
  <advance width="620"/>
  <outline>
    <contour>
      <point x="512" y="16"/>
      <point x="587" y="112"/>
      <point x="587" y="225" type="curve" smooth="yes"/>
      <point x="587" y="310"/>
      <point x="543" y="378"/>
      <point x="509" y="378" type="curve" smooth="yes"/>
      <point x="493" y="378"/>
      <point x="490" y="365"/>
      <point x="490" y="350" type="curve" smooth="yes"/>
      <point x="489" y="301"/>
      <point x="467" y="265"/>
      <point x="429" y="265" type="curve" smooth="yes"/>
      <point x="373" y="265"/>
      <point x="350" y="314"/>
      <point x="350" y="386" type="curve" smooth="yes"/>
      <point x="350" y="478"/>
      <point x="385" y="541"/>
      <point x="446" y="541" type="curve" smooth="yes"/>
      <point x="620" y="541" type="line" smooth="yes"/>
      <point x="635" y="541"/>
      <point x="646" y="552"/>
      <point x="646" y="565" type="curve" smooth="yes"/>
      <point x="646" y="577"/>
      <point x="635" y="587"/>
      <point x="620" y="587" type="curve" smooth="yes"/>
      <point x="439" y="587" type="line" smooth="yes"/>
      <point x="349" y="587"/>
      <point x="303" y="485"/>
      <point x="303" y="381" type="curve" smooth="yes"/>
      <point x="303" y="291"/>
      <point x="338" y="211"/>
      <point x="428" y="211" type="curve" smooth="yes"/>
      <point x="512" y="211"/>
      <point x="526" y="305"/>
      <point x="521" y="332" type="curve"/>
      <point x="505" y="333" type="line"/>
      <point x="531" y="298"/>
      <point x="539" y="260"/>
      <point x="539" y="232" type="curve" smooth="yes"/>
      <point x="539" y="149"/>
      <point x="479" y="76"/>
      <point x="385" y="76" type="curve" smooth="yes"/>
      <point x="198" y="76"/>
      <point x="93" y="248"/>
      <point x="65" y="413" type="curve" smooth="yes"/>
      <point x="61" y="432"/>
      <point x="55" y="447"/>
      <point x="38" y="447" type="curve" smooth="yes"/>
      <point x="26" y="447"/>
      <point x="17" y="436"/>
      <point x="17" y="415" type="curve" smooth="yes"/>
      <point x="17" y="303"/>
      <point x="136" y="16"/>
      <point x="386" y="16" type="curve" smooth="yes"/>
    </contour>
    <contour>
      <point x="374" y="260" type="line"/>
      <point x="335" y="326"/>
      <point x="201" y="374"/>
      <point x="156" y="374" type="curve"/>
      <point x="166" y="363" type="line"/>
      <point x="259" y="402"/>
      <point x="352" y="460"/>
      <point x="352" y="513" type="curve" smooth="yes"/>
      <point x="352" y="562"/>
      <point x="309" y="587"/>
      <point x="239" y="587" type="curve" smooth="yes"/>
      <point x="-1" y="587" type="line" smooth="yes"/>
      <point x="-15" y="587"/>
      <point x="-27" y="577"/>
      <point x="-27" y="565" type="curve" smooth="yes"/>
      <point x="-27" y="552"/>
      <point x="-15" y="541"/>
      <point x="-1" y="541" type="curve" smooth="yes"/>
      <point x="240" y="541" type="line" smooth="yes"/>
      <point x="271" y="541"/>
      <point x="317" y="538"/>
      <point x="317" y="513" type="curve" smooth="yes"/>
      <point x="317" y="479"/>
      <point x="224" y="437"/>
      <point x="160" y="405" type="curve" smooth="yes"/>
      <point x="134" y="392"/>
      <point x="128" y="381"/>
      <point x="128" y="369" type="curve" smooth="yes"/>
      <point x="128" y="354"/>
      <point x="136" y="343"/>
      <point x="166" y="335" type="curve" smooth="yes"/>
      <point x="241" y="314"/>
      <point x="315" y="282"/>
      <point x="342" y="249" type="curve"/>
    </contour>
  </outline>
</glyph>
<glyph name="bBDdha" format="1">
  <advance width="738"/>
  <outline>
    <contour>
      <point x="562" y="-12"/>
      <point x="687" y="193"/>
      <point x="687" y="310" type="curve" smooth="yes"/>
      <point x="687" y="367"/>
      <point x="657" y="421"/>
      <point x="593" y="421" type="curve" smooth="yes"/>
      <point x="545" y="421"/>
      <point x="506" y="387"/>
      <point x="506" y="336" type="curve" smooth="yes"/>
      <point x="506" y="284"/>
      <point x="551" y="253"/>
      <point x="591" y="253" type="curve" smooth="yes"/>
      <point x="621" y="253"/>
      <point x="651" y="272"/>
      <point x="662" y="306" type="curve"/>
      <point x="629" y="288" type="line"/>
      <point x="626" y="192"/>
      <point x="507" y="47"/>
      <point x="441" y="47" type="curve" smooth="yes"/>
      <point x="397" y="47"/>
      <point x="395" y="92"/>
      <point x="395" y="139" type="curve" smooth="yes"/>
      <point x="394" y="486" type="line" smooth="yes"/>
      <point x="394" y="540"/>
      <point x="413" y="541"/>
      <point x="455" y="541" type="curve" smooth="yes"/>
      <point x="738" y="541" type="line" smooth="yes"/>
      <point x="752" y="541"/>
      <point x="764" y="552"/>
      <point x="764" y="565" type="curve" smooth="yes"/>
      <point x="764" y="577"/>
      <point x="752" y="587"/>
      <point x="738" y="587" type="curve" smooth="yes"/>
      <point x="417" y="587" type="line" smooth="yes"/>
      <point x="363" y="587"/>
      <point x="341" y="559"/>
      <point x="341" y="497" type="curve" smooth="yes"/>
      <point x="341" y="127" type="line" smooth="yes"/>
      <point x="341" y="81"/>
      <point x="340" y="-12"/>
      <point x="438" y="-12" type="curve" smooth="yes"/>
    </contour>
    <contour>
      <point x="384" y="92" type="line"/>
      <point x="387" y="194"/>
      <point x="192" y="293"/>
      <point x="47" y="314" type="curve"/>
      <point x="60" y="296" type="line"/>
      <point x="300" y="392"/>
      <point x="371" y="440"/>
      <point x="371" y="508" type="curve" smooth="yes"/>
      <point x="371" y="554"/>
      <point x="330" y="587"/>
      <point x="265" y="587" type="curve" smooth="yes"/>
      <point x="0" y="587" type="line" smooth="yes"/>
      <point x="-10" y="587"/>
      <point x="-22" y="580"/>
      <point x="-22" y="565" type="curve" smooth="yes"/>
      <point x="-22" y="551"/>
      <point x="-12" y="541"/>
      <point x="0" y="541" type="curve" smooth="yes"/>
      <point x="258" y="541" type="line" smooth="yes"/>
      <point x="305" y="541"/>
      <point x="333" y="531"/>
      <point x="333" y="512" type="curve" smooth="yes"/>
      <point x="333" y="483"/>
      <point x="270" y="448"/>
      <point x="40" y="348" type="curve" smooth="yes"/>
      <point x="17" y="338"/>
      <point x="8" y="324"/>
      <point x="8" y="308" type="curve" smooth="yes"/>
      <point x="8" y="287"/>
      <point x="24" y="272"/>
      <point x="50" y="265" type="curve" smooth="yes"/>
      <point x="123" y="245"/>
      <point x="343" y="177"/>
      <point x="343" y="80" type="curve"/>
    </contour>
    <contour>
      <point x="574" y="295"/>
      <point x="557" y="312"/>
      <point x="557" y="332" type="curve" smooth="yes"/>
      <point x="557" y="353"/>
      <point x="574" y="369"/>
      <point x="594" y="369" type="curve" smooth="yes"/>
      <point x="615" y="369"/>
      <point x="632" y="353"/>
      <point x="632" y="332" type="curve" smooth="yes"/>
      <point x="632" y="312"/>
      <point x="615" y="295"/>
      <point x="594" y="295" type="curve" smooth="yes"/>
    </contour>
  </outline>
</glyph>
<glyph name="bBDha" format="1">
  <advance width="622"/>
  <outline>
    <contour>
      <point x="382" y="-82"/>
      <point x="394" y="-68"/>
      <point x="394" y="-49" type="curve" smooth="yes"/>
      <point x="394" y="461" type="line" smooth="yes"/>
      <point x="394" y="531"/>
      <point x="399" y="541"/>
      <point x="433" y="541" type="curve" smooth="yes"/>
      <point x="622" y="541" type="line" smooth="yes"/>
      <point x="637" y="541"/>
      <point x="649" y="551"/>
      <point x="649" y="565" type="curve" smooth="yes"/>
      <point x="649" y="577"/>
      <point x="637" y="587"/>
      <point x="622" y="587" type="curve" smooth="yes"/>
      <point x="418" y="587" type="line" smooth="yes"/>
      <point x="366" y="587"/>
      <point x="340" y="555"/>
      <point x="340" y="476" type="curve" smooth="yes"/>
      <point x="340" y="-49" type="line" smooth="yes"/>
      <point x="340" y="-68"/>
      <point x="352" y="-82"/>
      <point x="367" y="-82" type="curve" smooth="yes"/>
    </contour>
    <contour>
      <point x="369" y="-4" type="line"/>
      <point x="341" y="82"/>
      <point x="193" y="161"/>
      <point x="138" y="161" type="curve"/>
      <point x="136" y="138" type="line"/>
      <point x="510" y="324" type="line"/>
      <point x="507" y="335" type="line"/>
      <point x="472" y="290"/>
      <point x="471" y="241"/>
      <point x="471" y="172" type="curve" smooth="yes"/>
      <point x="471" y="27" type="line" smooth="yes"/>
      <point x="471" y="-5"/>
      <point x="486" y="-12"/>
      <point x="497" y="-12" type="curve" smooth="yes"/>
      <point x="510" y="-12"/>
      <point x="522" y="-2"/>
      <point x="522" y="27" type="curve" smooth="yes"/>
      <point x="522" y="191" type="line" smooth="yes"/>
      <point x="522" y="301"/>
      <point x="546" y="320"/>
      <point x="546" y="349" type="curve" smooth="yes"/>
      <point x="546" y="363"/>
      <point x="537" y="381"/>
      <point x="518" y="381" type="curve" smooth="yes"/>
      <point x="503" y="381"/>
      <point x="476" y="365"/>
      <point x="447" y="351" type="curve" smooth="yes"/>
      <point x="129" y="200" type="line" smooth="yes"/>
      <point x="96" y="184"/>
      <point x="83" y="171"/>
      <point x="83" y="152" type="curve" smooth="yes"/>
      <point x="83" y="133"/>
      <point x="94" y="123"/>
      <point x="112" y="119" type="curve" smooth="yes"/>
      <point x="241" y="82"/>
      <point x="340" y="-1"/>
      <point x="340" y="-40" type="curve"/>
    </contour>
    <contour>
      <point x="252" y="236" type="line"/>
      <point x="193" y="274"/>
      <point x="122" y="302"/>
      <point x="59" y="314" type="curve"/>
      <point x="60" y="296" type="line"/>
      <point x="300" y="392"/>
      <point x="371" y="440"/>
      <point x="371" y="508" type="curve" smooth="yes"/>
      <point x="371" y="554"/>
      <point x="330" y="587"/>
      <point x="265" y="587" type="curve" smooth="yes"/>
      <point x="0" y="587" type="line" smooth="yes"/>
      <point x="-10" y="587"/>
      <point x="-22" y="580"/>
      <point x="-22" y="565" type="curve" smooth="yes"/>
      <point x="-22" y="551"/>
      <point x="-12" y="541"/>
      <point x="0" y="541" type="curve" smooth="yes"/>
      <point x="258" y="541" type="line" smooth="yes"/>
      <point x="305" y="541"/>
      <point x="333" y="531"/>
      <point x="333" y="512" type="curve" smooth="yes"/>
      <point x="333" y="483"/>
      <point x="270" y="448"/>
      <point x="40" y="348" type="curve" smooth="yes"/>
      <point x="17" y="338"/>
      <point x="8" y="324"/>
      <point x="8" y="308" type="curve" smooth="yes"/>
      <point x="8" y="287"/>
      <point x="24" y="272"/>
      <point x="50" y="265" type="curve" smooth="yes"/>
      <point x="81" y="255"/>
      <point x="138" y="235"/>
      <point x="194" y="206" type="curve"/>
    </contour>
  </outline>
</glyph>
<glyph name="bBJa" format="1">
  <advance width="725"/>
  <outline>
    <contour>
      <point x="503" y="19"/>
      <point x="569" y="124"/>
      <point x="569" y="205" type="curve" smooth="yes"/>
      <point x="569" y="293"/>
      <point x="520" y="340"/>
      <point x="501" y="340" type="curve" smooth="yes"/>
      <point x="462" y="340"/>
      <point x="488" y="241"/>
      <point x="406" y="241" type="curve" smooth="yes"/>
      <point x="365" y="241"/>
      <point x="337" y="281"/>
      <point x="337" y="355" type="curve" smooth="yes"/>
      <point x="337" y="449"/>
      <point x="361" y="541"/>
      <point x="428" y="541" type="curve" smooth="yes"/>
      <point x="725" y="541" type="line" smooth="yes"/>
      <point x="740" y="541"/>
      <point x="751" y="552"/>
      <point x="751" y="565" type="curve" smooth="yes"/>
      <point x="751" y="577"/>
      <point x="740" y="587"/>
      <point x="725" y="587" type="curve" smooth="yes"/>
      <point x="421" y="587" type="line" smooth="yes"/>
      <point x="339" y="587"/>
      <point x="288" y="478"/>
      <point x="288" y="371" type="curve" smooth="yes"/>
      <point x="288" y="277"/>
      <point x="316" y="190"/>
      <point x="408" y="190" type="curve" smooth="yes"/>
      <point x="492" y="190"/>
      <point x="513" y="276"/>
      <point x="513" y="303" type="curve"/>
      <point x="492" y="296" type="line"/>
      <point x="515" y="267"/>
      <point x="524" y="240"/>
      <point x="524" y="210" type="curve" smooth="yes"/>
      <point x="524" y="149"/>
      <point x="473" y="77"/>
      <point x="365" y="77" type="curve" smooth="yes"/>
      <point x="167" y="77"/>
      <point x="85" y="326"/>
      <point x="67" y="415" type="curve" smooth="yes"/>
      <point x="64" y="432"/>
      <point x="56" y="441"/>
      <point x="44" y="441" type="curve" smooth="yes"/>
      <point x="34" y="441"/>
      <point x="24" y="433"/>
      <point x="24" y="419" type="curve" smooth="yes"/>
      <point x="24" y="331"/>
      <point x="128" y="19"/>
      <point x="368" y="19" type="curve" smooth="yes"/>
    </contour>
    <contour>
      <point x="340" y="257" type="line"/>
      <point x="303" y="321"/>
      <point x="185" y="366"/>
      <point x="143" y="369" type="curve"/>
      <point x="154" y="358" type="line"/>
      <point x="246" y="397"/>
      <point x="340" y="458"/>
      <point x="340" y="513" type="curve" smooth="yes"/>
      <point x="340" y="562"/>
      <point x="297" y="587"/>
      <point x="229" y="587" type="curve" smooth="yes"/>
      <point x="-1" y="587" type="line" smooth="yes"/>
      <point x="-15" y="587"/>
      <point x="-27" y="577"/>
      <point x="-27" y="565" type="curve" smooth="yes"/>
      <point x="-27" y="552"/>
      <point x="-15" y="541"/>
      <point x="-1" y="541" type="curve" smooth="yes"/>
      <point x="230" y="541" type="line" smooth="yes"/>
      <point x="261" y="541"/>
      <point x="307" y="538"/>
      <point x="307" y="513" type="curve" smooth="yes"/>
      <point x="307" y="477"/>
      <point x="213" y="435"/>
      <point x="147" y="400" type="curve" smooth="yes"/>
      <point x="121" y="387"/>
      <point x="115" y="376"/>
      <point x="115" y="364" type="curve" smooth="yes"/>
      <point x="115" y="349"/>
      <point x="122" y="338"/>
      <point x="154" y="328" type="curve" smooth="yes"/>
      <point x="204" y="311"/>
      <point x="293" y="280"/>
      <point x="319" y="237" type="curve"/>
    </contour>
    <contour>
      <point x="657" y="-25"/>
      <point x="666" y="-10"/>
      <point x="666" y="15" type="curve" smooth="yes"/>
      <point x="666" y="104"/>
      <point x="654" y="221"/>
      <point x="654" y="275" type="curve" smooth="yes"/>
      <point x="654" y="372"/>
      <point x="703" y="415"/>
      <point x="703" y="443" type="curve" smooth="yes"/>
      <point x="703" y="456"/>
      <point x="695" y="469"/>
      <point x="675" y="469" type="curve" smooth="yes"/>
      <point x="646" y="469"/>
      <point x="615" y="424"/>
      <point x="545" y="424" type="curve" smooth="yes"/>
      <point x="462" y="424"/>
      <point x="419" y="489"/>
      <point x="415" y="552" type="curve"/>
      <point x="377" y="537" type="line"/>
      <point x="381" y="457"/>
      <point x="446" y="372"/>
      <point x="543" y="372" type="curve" smooth="yes"/>
      <point x="594" y="372"/>
      <point x="650" y="401"/>
      <point x="669" y="421" type="curve"/>
      <point x="660" y="426" type="line"/>
      <point x="616" y="380"/>
      <point x="602" y="323"/>
      <point x="602" y="258" type="curve" smooth="yes"/>
      <point x="602" y="187"/>
      <point x="613" y="109"/>
      <point x="613" y="13" type="curve" smooth="yes"/>
      <point x="613" y="-8"/>
      <point x="624" y="-25"/>
      <point x="641" y="-25" type="curve" smooth="yes"/>
    </contour>
  </outline>
</glyph>
<glyph name="bBJha" format="1">
  <advance width="655"/>
  <outline>
    <contour>
      <point x="294" y="230" type="line"/>
      <point x="230" y="271"/>
      <point x="129" y="312"/>
      <point x="75" y="314" type="curve"/>
      <point x="81" y="296" type="line"/>
      <point x="321" y="392"/>
      <point x="393" y="440"/>
      <point x="393" y="508" type="curve" smooth="yes"/>
      <point x="393" y="554"/>
      <point x="351" y="587"/>
      <point x="287" y="587" type="curve" smooth="yes"/>
      <point x="0" y="587" type="line" smooth="yes"/>
      <point x="-10" y="587"/>
      <point x="-22" y="580"/>
      <point x="-22" y="565" type="curve" smooth="yes"/>
      <point x="-22" y="551"/>
      <point x="-12" y="541"/>
      <point x="0" y="541" type="curve" smooth="yes"/>
      <point x="280" y="541" type="line" smooth="yes"/>
      <point x="315" y="541"/>
      <point x="355" y="531"/>
      <point x="355" y="512" type="curve" smooth="yes"/>
      <point x="355" y="483"/>
      <point x="291" y="448"/>
      <point x="62" y="348" type="curve" smooth="yes"/>
      <point x="39" y="338"/>
      <point x="29" y="324"/>
      <point x="29" y="308" type="curve" smooth="yes"/>
      <point x="29" y="287"/>
      <point x="45" y="272"/>
      <point x="71" y="265" type="curve" smooth="yes"/>
      <point x="108" y="254"/>
      <point x="180" y="236"/>
      <point x="247" y="203" type="curve"/>
    </contour>
    <contour>
      <point x="390" y="-16" type="line"/>
      <point x="362" y="69"/>
      <point x="214" y="148"/>
      <point x="159" y="148" type="curve"/>
      <point x="157" y="126" type="line"/>
      <point x="389" y="244" type="line"/>
      <point x="389" y="304" type="line"/>
      <point x="150" y="187" type="line" smooth="yes"/>
      <point x="117" y="171"/>
      <point x="104" y="158"/>
      <point x="104" y="140" type="curve" smooth="yes"/>
      <point x="104" y="121"/>
      <point x="115" y="110"/>
      <point x="133" y="106" type="curve" smooth="yes"/>
      <point x="262" y="70"/>
      <point x="361" y="-13"/>
      <point x="361" y="-52" type="curve"/>
    </contour>
    <contour>
      <point x="537" y="35" type="line"/>
      <point x="537" y="128"/>
      <point x="415" y="142"/>
      <point x="415" y="246" type="curve"/>
      <point x="384" y="202" type="line"/>
      <point x="384" y="120"/>
      <point x="510" y="91"/>
      <point x="510" y="10" type="curve"/>
    </contour>
    <contour>
      <point x="403" y="-97"/>
      <point x="415" y="-82"/>
      <point x="415" y="-64" type="curve" smooth="yes"/>
      <point x="415" y="576" type="line" smooth="yes"/>
      <point x="415" y="595"/>
      <point x="403" y="609"/>
      <point x="388" y="609" type="curve" smooth="yes"/>
      <point x="372" y="609"/>
      <point x="361" y="595"/>
      <point x="361" y="576" type="curve" smooth="yes"/>
      <point x="361" y="-64" type="line" smooth="yes"/>
      <point x="361" y="-82"/>
      <point x="373" y="-97"/>
      <point x="388" y="-97" type="curve" smooth="yes"/>
    </contour>
    <contour>
      <point x="552" y="-30"/>
      <point x="564" y="-15"/>
      <point x="564" y="3" type="curve" smooth="yes"/>
      <point x="564" y="461" type="line" smooth="yes"/>
      <point x="564" y="531"/>
      <point x="569" y="541"/>
      <point x="603" y="541" type="curve" smooth="yes"/>
      <point x="655" y="541" type="line" smooth="yes"/>
      <point x="670" y="541"/>
      <point x="682" y="551"/>
      <point x="682" y="565" type="curve" smooth="yes"/>
      <point x="682" y="577"/>
      <point x="670" y="587"/>
      <point x="655" y="587" type="curve" smooth="yes"/>
      <point x="588" y="587" type="line" smooth="yes"/>
      <point x="536" y="587"/>
      <point x="510" y="555"/>
      <point x="510" y="476" type="curve" smooth="yes"/>
      <point x="510" y="3" type="line" smooth="yes"/>
      <point x="510" y="-15"/>
      <point x="522" y="-30"/>
      <point x="537" y="-30" type="curve" smooth="yes"/>
    </contour>
  </outline>
</glyph>
<glyph name="bBLa" format="1">
  <advance width="485"/>
  <outline>
    <contour>
      <point x="380" y="66" type="line"/>
      <point x="380" y="179"/>
      <point x="189" y="291"/>
      <point x="47" y="314" type="curve"/>
      <point x="60" y="296" type="line"/>
      <point x="300" y="392"/>
      <point x="371" y="440"/>
      <point x="371" y="508" type="curve" smooth="yes"/>
      <point x="371" y="554"/>
      <point x="330" y="587"/>
      <point x="265" y="587" type="curve" smooth="yes"/>
      <point x="0" y="587" type="line" smooth="yes"/>
      <point x="-10" y="587"/>
      <point x="-22" y="580"/>
      <point x="-22" y="565" type="curve" smooth="yes"/>
      <point x="-22" y="551"/>
      <point x="-12" y="541"/>
      <point x="0" y="541" type="curve" smooth="yes"/>
      <point x="258" y="541" type="line" smooth="yes"/>
      <point x="305" y="541"/>
      <point x="333" y="531"/>
      <point x="333" y="512" type="curve" smooth="yes"/>
      <point x="333" y="483"/>
      <point x="270" y="448"/>
      <point x="40" y="348" type="curve" smooth="yes"/>
      <point x="17" y="338"/>
      <point x="8" y="324"/>
      <point x="8" y="308" type="curve" smooth="yes"/>
      <point x="8" y="287"/>
      <point x="24" y="272"/>
      <point x="50" y="265" type="curve" smooth="yes"/>
      <point x="121" y="243"/>
      <point x="340" y="166"/>
      <point x="340" y="53" type="curve"/>
    </contour>
    <contour>
      <point x="382" y="-87"/>
      <point x="394" y="-73"/>
      <point x="394" y="-54" type="curve" smooth="yes"/>
      <point x="394" y="461" type="line" smooth="yes"/>
      <point x="394" y="531"/>
      <point x="399" y="541"/>
      <point x="433" y="541" type="curve" smooth="yes"/>
      <point x="485" y="541" type="line" smooth="yes"/>
      <point x="500" y="541"/>
      <point x="512" y="551"/>
      <point x="512" y="565" type="curve" smooth="yes"/>
      <point x="512" y="577"/>
      <point x="500" y="587"/>
      <point x="485" y="587" type="curve" smooth="yes"/>
      <point x="418" y="587" type="line" smooth="yes"/>
      <point x="366" y="587"/>
      <point x="340" y="555"/>
      <point x="340" y="476" type="curve" smooth="yes"/>
      <point x="340" y="-54" type="line" smooth="yes"/>
      <point x="340" y="-73"/>
      <point x="352" y="-87"/>
      <point x="367" y="-87" type="curve" smooth="yes"/>
    </contour>
    <contour>
      <point x="146" y="-93"/>
      <point x="168" y="-66"/>
      <point x="168" y="-35" type="curve" smooth="yes"/>
      <point x="168" y="-9"/>
      <point x="149" y="23"/>
      <point x="110" y="23" type="curve" smooth="yes"/>
      <point x="77" y="23"/>
      <point x="55" y="-3"/>
      <point x="55" y="-32" type="curve" smooth="yes"/>
      <point x="55" y="-44"/>
      <point x="59" y="-58"/>
      <point x="67" y="-69" type="curve"/>
      <point x="81" y="-64" type="line"/>
      <point x="62" y="-44"/>
      <point x="53" y="-21"/>
      <point x="53" y="-2" type="curve" smooth="yes"/>
      <point x="53" y="42"/>
      <point x="93" y="75"/>
      <point x="142" y="75" type="curve" smooth="yes"/>
      <point x="186" y="75"/>
      <point x="239" y="45"/>
      <point x="239" y="10" type="curve" smooth="yes"/>
      <point x="239" y="0"/>
      <point x="234" y="-9"/>
      <point x="227" y="-9" type="curve" smooth="yes"/>
      <point x="220" y="-9"/>
      <point x="214" y="-3"/>
      <point x="214" y="8" type="curve" smooth="yes"/>
      <point x="214" y="35"/>
      <point x="243" y="58"/>
      <point x="276" y="58" type="curve" smooth="yes"/>
      <point x="321" y="58"/>
      <point x="343" y="21"/>
      <point x="340" y="-40" type="curve"/>
      <point x="365" y="-6" type="line"/>
      <point x="369" y="32"/>
      <point x="340" y="96"/>
      <point x="274" y="96" type="curve" smooth="yes"/>
      <point x="222" y="96"/>
      <point x="181" y="57"/>
      <point x="181" y="10" type="curve" smooth="yes"/>
      <point x="181" y="-22"/>
      <point x="199" y="-46"/>
      <point x="228" y="-46" type="curve" smooth="yes"/>
      <point x="255" y="-46"/>
      <point x="272" y="-25"/>
      <point x="272" y="5" type="curve" smooth="yes"/>
      <point x="272" y="69"/>
      <point x="206" y="120"/>
      <point x="137" y="120" type="curve" smooth="yes"/>
      <point x="64" y="120"/>
      <point x="11" y="69"/>
      <point x="11" y="6" type="curve" smooth="yes"/>
      <point x="11" y="-48"/>
      <point x="52" y="-93"/>
      <point x="105" y="-93" type="curve" smooth="yes"/>
    </contour>
    <contour>
      <point x="95" y="-58"/>
      <point x="84" y="-49"/>
      <point x="84" y="-35" type="curve" smooth="yes"/>
      <point x="84" y="-20"/>
      <point x="95" y="-11"/>
      <point x="108" y="-11" type="curve" smooth="yes"/>
      <point x="121" y="-11"/>
      <point x="132" y="-20"/>
      <point x="132" y="-35" type="curve" smooth="yes"/>
      <point x="132" y="-49"/>
      <point x="121" y="-58"/>
      <point x="108" y="-58" type="curve" smooth="yes"/>
    </contour>
  </outline>
</glyph>
<glyph name="bBa" format="1">
  <advance width="485"/>
  <outline>
    <contour>
      <point x="380" y="61" type="line"/>
      <point x="380" y="177"/>
      <point x="189" y="291"/>
      <point x="47" y="314" type="curve"/>
      <point x="60" y="296" type="line"/>
      <point x="300" y="392"/>
      <point x="371" y="440"/>
      <point x="371" y="508" type="curve" smooth="yes"/>
      <point x="371" y="554"/>
      <point x="330" y="587"/>
      <point x="265" y="587" type="curve" smooth="yes"/>
      <point x="0" y="587" type="line" smooth="yes"/>
      <point x="-10" y="587"/>
      <point x="-22" y="580"/>
      <point x="-22" y="565" type="curve" smooth="yes"/>
      <point x="-22" y="551"/>
      <point x="-12" y="541"/>
      <point x="0" y="541" type="curve" smooth="yes"/>
      <point x="258" y="541" type="line" smooth="yes"/>
      <point x="305" y="541"/>
      <point x="333" y="531"/>
      <point x="333" y="512" type="curve" smooth="yes"/>
      <point x="333" y="483"/>
      <point x="270" y="448"/>
      <point x="40" y="348" type="curve" smooth="yes"/>
      <point x="17" y="338"/>
      <point x="8" y="324"/>
      <point x="8" y="308" type="curve" smooth="yes"/>
      <point x="8" y="287"/>
      <point x="24" y="272"/>
      <point x="50" y="265" type="curve" smooth="yes"/>
      <point x="121" y="242"/>
      <point x="339" y="164"/>
      <point x="339" y="48" type="curve"/>
    </contour>
    <contour>
      <point x="381" y="-12"/>
      <point x="393" y="2"/>
      <point x="393" y="21" type="curve" smooth="yes"/>
      <point x="393" y="461" type="line" smooth="yes"/>
      <point x="393" y="531"/>
      <point x="398" y="541"/>
      <point x="432" y="541" type="curve" smooth="yes"/>
      <point x="485" y="541" type="line" smooth="yes"/>
      <point x="500" y="541"/>
      <point x="512" y="551"/>
      <point x="512" y="565" type="curve" smooth="yes"/>
      <point x="512" y="577"/>
      <point x="500" y="587"/>
      <point x="485" y="587" type="curve" smooth="yes"/>
      <point x="417" y="587" type="line" smooth="yes"/>
      <point x="365" y="587"/>
      <point x="339" y="555"/>
      <point x="339" y="476" type="curve" smooth="yes"/>
      <point x="339" y="21" type="line" smooth="yes"/>
      <point x="339" y="2"/>
      <point x="351" y="-12"/>
      <point x="366" y="-12" type="curve" smooth="yes"/>
    </contour>
  </outline>
</glyph>
<glyph name="bBaphala" format="1">
  <advance width="0"/>
  <outline>
    <contour>
      <point x="-101" y="-160"/>
      <point x="-93" y="-141"/>
      <point x="-93" y="-118" type="curve" smooth="yes"/>
      <point x="-92" y="125" type="line" smooth="yes"/>
      <point x="-92" y="144"/>
      <point x="-99" y="155"/>
      <point x="-113" y="155" type="curve" smooth="yes"/>
      <point x="-124" y="155"/>
      <point x="-144" y="141"/>
      <point x="-182" y="119" type="curve" smooth="yes"/>
      <point x="-317" y="41" type="line" smooth="yes"/>
      <point x="-346" y="25"/>
      <point x="-357" y="16"/>
      <point x="-357" y="-1" type="curve" smooth="yes"/>
      <point x="-357" y="-13"/>
      <point x="-351" y="-28"/>
      <point x="-330" y="-33" type="curve" smooth="yes"/>
      <point x="-264" y="-45"/>
      <point x="-150" y="-84"/>
      <point x="-146" y="-124" type="curve"/>
      <point x="-113" y="-103" type="line"/>
      <point x="-144" y="-34"/>
      <point x="-261" y="8"/>
      <point x="-325" y="7" type="curve"/>
      <point x="-312" y="-10" type="line"/>
      <point x="-123" y="98" type="line"/>
      <point x="-147" y="109" type="line"/>
      <point x="-147" y="-117" type="line" smooth="yes"/>
      <point x="-147" y="-141"/>
      <point x="-138" y="-160"/>
      <point x="-118" y="-160" type="curve" smooth="yes"/>
    </contour>
  </outline>
</glyph>
<glyph name="bBhBa" format="1">
  <advance width="558"/>
  <outline>
    <contour>
      <point x="459" y="-97"/>
      <point x="470" y="-82"/>
      <point x="470" y="-64" type="curve" smooth="yes"/>
      <point x="470" y="269" type="line" smooth="yes"/>
      <point x="470" y="362"/>
      <point x="425" y="413"/>
      <point x="389" y="413" type="curve" smooth="yes"/>
      <point x="371" y="413"/>
      <point x="361" y="400"/>
      <point x="347" y="373" type="curve" smooth="yes"/>
      <point x="331" y="337"/>
      <point x="282" y="290"/>
      <point x="215" y="290" type="curve" smooth="yes"/>
      <point x="182" y="290"/>
      <point x="149" y="298"/>
      <point x="124" y="331" type="curve"/>
      <point x="104" y="328" type="line"/>
      <point x="118" y="311"/>
      <point x="144" y="302"/>
      <point x="159" y="302" type="curve" smooth="yes"/>
      <point x="201" y="302"/>
      <point x="239" y="333"/>
      <point x="239" y="378" type="curve" smooth="yes"/>
      <point x="239" y="427"/>
      <point x="203" y="462"/>
      <point x="154" y="462" type="curve" smooth="yes"/>
      <point x="112" y="462"/>
      <point x="67" y="428"/>
      <point x="67" y="373" type="curve" smooth="yes"/>
      <point x="67" y="303"/>
      <point x="134" y="239"/>
      <point x="216" y="239" type="curve" smooth="yes"/>
      <point x="335" y="239"/>
      <point x="405" y="350"/>
      <point x="405" y="372" type="curve"/>
      <point x="371" y="360" type="line"/>
      <point x="388" y="360"/>
      <point x="415" y="347"/>
      <point x="415" y="276" type="curve" smooth="yes"/>
      <point x="415" y="-64" type="line" smooth="yes"/>
      <point x="415" y="-82"/>
      <point x="428" y="-97"/>
      <point x="443" y="-97" type="curve" smooth="yes"/>
    </contour>
    <contour>
      <point x="445" y="-36" type="line"/>
      <point x="405" y="59"/>
      <point x="253" y="114"/>
      <point x="174" y="114" type="curve"/>
      <point x="182" y="94" type="line"/>
      <point x="439" y="224" type="line"/>
      <point x="433" y="281" type="line"/>
      <point x="175" y="149" type="line" smooth="yes"/>
      <point x="144" y="133"/>
      <point x="133" y="124"/>
      <point x="133" y="106" type="curve" smooth="yes"/>
      <point x="133" y="92"/>
      <point x="144" y="79"/>
      <point x="162" y="74" type="curve" smooth="yes"/>
      <point x="294" y="35"/>
      <point x="410" y="-26"/>
      <point x="417" y="-67" type="curve"/>
    </contour>
    <contour>
      <point x="135" y="338"/>
      <point x="115" y="351"/>
      <point x="115" y="375" type="curve" smooth="yes"/>
      <point x="115" y="400"/>
      <point x="135" y="412"/>
      <point x="152" y="412" type="curve" smooth="yes"/>
      <point x="171" y="412"/>
      <point x="190" y="400"/>
      <point x="190" y="375" type="curve" smooth="yes"/>
      <point x="190" y="350"/>
      <point x="170" y="338"/>
      <point x="152" y="338" type="curve" smooth="yes"/>
    </contour>
    <contour>
      <point x="558" y="541" type="line" smooth="yes"/>
      <point x="572" y="541"/>
      <point x="584" y="552"/>
      <point x="584" y="565" type="curve" smooth="yes"/>
      <point x="584" y="577"/>
      <point x="572" y="587"/>
      <point x="558" y="587" type="curve" smooth="yes"/>
      <point x="-1" y="587" type="line" smooth="yes"/>
      <point x="-15" y="587"/>
      <point x="-27" y="577"/>
      <point x="-27" y="565" type="curve" smooth="yes"/>
      <point x="-27" y="552"/>
      <point x="-15" y="541"/>
      <point x="-1" y="541" type="curve" smooth="yes"/>
    </contour>
  </outline>
</glyph>
<glyph name="bBhLa" format="1">
  <advance width="558"/>
  <outline>
    <contour>
      <point x="459" y="-39"/>
      <point x="470" y="-25"/>
      <point x="470" y="-6" type="curve" smooth="yes"/>
      <point x="470" y="269" type="line" smooth="yes"/>
      <point x="470" y="362"/>
      <point x="425" y="413"/>
      <point x="389" y="413" type="curve" smooth="yes"/>
      <point x="371" y="413"/>
      <point x="361" y="400"/>
      <point x="347" y="371" type="curve" smooth="yes"/>
      <point x="331" y="338"/>
      <point x="284" y="288"/>
      <point x="215" y="288" type="curve" smooth="yes"/>
      <point x="184" y="288"/>
      <point x="161" y="298"/>
      <point x="139" y="320" type="curve"/>
      <point x="114" y="315" type="line"/>
      <point x="129" y="307"/>
      <point x="145" y="302"/>
      <point x="156" y="302" type="curve" smooth="yes"/>
      <point x="202" y="302"/>
      <point x="239" y="336"/>
      <point x="239" y="378" type="curve" smooth="yes"/>
      <point x="239" y="427"/>
      <point x="203" y="462"/>
      <point x="154" y="462" type="curve" smooth="yes"/>
      <point x="112" y="462"/>
      <point x="67" y="428"/>
      <point x="67" y="373" type="curve" smooth="yes"/>
      <point x="67" y="303"/>
      <point x="134" y="239"/>
      <point x="216" y="239" type="curve" smooth="yes"/>
      <point x="335" y="239"/>
      <point x="405" y="350"/>
      <point x="405" y="372" type="curve"/>
      <point x="371" y="360" type="line"/>
      <point x="388" y="360"/>
      <point x="415" y="347"/>
      <point x="415" y="276" type="curve" smooth="yes"/>
      <point x="415" y="-6" type="line" smooth="yes"/>
      <point x="415" y="-25"/>
      <point x="428" y="-39"/>
      <point x="443" y="-39" type="curve" smooth="yes"/>
    </contour>
    <contour>
      <point x="135" y="338"/>
      <point x="115" y="351"/>
      <point x="115" y="375" type="curve" smooth="yes"/>
      <point x="115" y="400"/>
      <point x="135" y="412"/>
      <point x="152" y="412" type="curve" smooth="yes"/>
      <point x="171" y="412"/>
      <point x="190" y="400"/>
      <point x="190" y="375" type="curve" smooth="yes"/>
      <point x="190" y="350"/>
      <point x="170" y="338"/>
      <point x="152" y="338" type="curve" smooth="yes"/>
    </contour>
    <contour>
      <point x="558" y="541" type="line" smooth="yes"/>
      <point x="572" y="541"/>
      <point x="584" y="552"/>
      <point x="584" y="565" type="curve" smooth="yes"/>
      <point x="584" y="577"/>
      <point x="572" y="587"/>
      <point x="558" y="587" type="curve" smooth="yes"/>
      <point x="-1" y="587" type="line" smooth="yes"/>
      <point x="-15" y="587"/>
      <point x="-27" y="577"/>
      <point x="-27" y="565" type="curve" smooth="yes"/>
      <point x="-27" y="552"/>
      <point x="-15" y="541"/>
      <point x="-1" y="541" type="curve" smooth="yes"/>
    </contour>
    <contour>
      <point x="221" y="-28"/>
      <point x="243" y="-2"/>
      <point x="243" y="30" type="curve" smooth="yes"/>
      <point x="243" y="56"/>
      <point x="224" y="88"/>
      <point x="185" y="88" type="curve" smooth="yes"/>
      <point x="152" y="88"/>
      <point x="130" y="62"/>
      <point x="130" y="33" type="curve" smooth="yes"/>
      <point x="130" y="21"/>
      <point x="134" y="7"/>
      <point x="142" y="-5" type="curve"/>
      <point x="156" y="1" type="line"/>
      <point x="137" y="21"/>
      <point x="128" y="44"/>
      <point x="128" y="63" type="curve" smooth="yes"/>
      <point x="128" y="107"/>
      <point x="168" y="139"/>
      <point x="217" y="139" type="curve" smooth="yes"/>
      <point x="261" y="139"/>
      <point x="314" y="109"/>
      <point x="314" y="74" type="curve" smooth="yes"/>
      <point x="314" y="65"/>
      <point x="309" y="56"/>
      <point x="302" y="56" type="curve" smooth="yes"/>
      <point x="295" y="56"/>
      <point x="289" y="62"/>
      <point x="289" y="73" type="curve" smooth="yes"/>
      <point x="289" y="99"/>
      <point x="318" y="123"/>
      <point x="351" y="123" type="curve" smooth="yes"/>
      <point x="396" y="123"/>
      <point x="418" y="85"/>
      <point x="415" y="25" type="curve"/>
      <point x="440" y="59" type="line"/>
      <point x="444" y="97"/>
      <point x="415" y="160"/>
      <point x="349" y="160" type="curve" smooth="yes"/>
      <point x="297" y="160"/>
      <point x="256" y="122"/>
      <point x="256" y="74" type="curve" smooth="yes"/>
      <point x="256" y="43"/>
      <point x="274" y="19"/>
      <point x="303" y="19" type="curve" smooth="yes"/>
      <point x="330" y="19"/>
      <point x="347" y="40"/>
      <point x="347" y="69" type="curve" smooth="yes"/>
      <point x="347" y="133"/>
      <point x="281" y="184"/>
      <point x="212" y="184" type="curve" smooth="yes"/>
      <point x="139" y="184"/>
      <point x="86" y="134"/>
      <point x="86" y="71" type="curve" smooth="yes"/>
      <point x="86" y="17"/>
      <point x="127" y="-28"/>
      <point x="180" y="-28" type="curve" smooth="yes"/>
    </contour>
    <contour>
      <point x="170" y="6"/>
      <point x="159" y="16"/>
      <point x="159" y="30" type="curve" smooth="yes"/>
      <point x="159" y="44"/>
      <point x="170" y="54"/>
      <point x="183" y="54" type="curve" smooth="yes"/>
      <point x="196" y="54"/>
      <point x="207" y="44"/>
      <point x="207" y="30" type="curve" smooth="yes"/>
      <point x="207" y="16"/>
      <point x="196" y="6"/>
      <point x="183" y="6" type="curve" smooth="yes"/>
    </contour>
  </outline>
</glyph>
<glyph name="bBhRa" format="1">
  <advance width="558"/>
  <outline>
    <contour>
      <point x="462" y="-40"/>
      <point x="470" y="-23"/>
      <point x="470" y="-5" type="curve" smooth="yes"/>
      <point x="470" y="269" type="line" smooth="yes"/>
      <point x="470" y="362"/>
      <point x="426" y="413"/>
      <point x="390" y="413" type="curve" smooth="yes"/>
      <point x="373" y="413"/>
      <point x="364" y="401"/>
      <point x="360" y="380" type="curve" smooth="yes"/>
      <point x="351" y="338"/>
      <point x="306" y="288"/>
      <point x="243" y="288" type="curve" smooth="yes"/>
      <point x="212" y="288"/>
      <point x="189" y="302"/>
      <point x="167" y="320" type="curve"/>
      <point x="135" y="317" type="line"/>
      <point x="153" y="308"/>
      <point x="171" y="302"/>
      <point x="185" y="302" type="curve" smooth="yes"/>
      <point x="230" y="302"/>
      <point x="267" y="337"/>
      <point x="267" y="378" type="curve" smooth="yes"/>
      <point x="267" y="427"/>
      <point x="231" y="462"/>
      <point x="182" y="462" type="curve" smooth="yes"/>
      <point x="140" y="462"/>
      <point x="95" y="428"/>
      <point x="95" y="373" type="curve" smooth="yes"/>
      <point x="95" y="303"/>
      <point x="162" y="239"/>
      <point x="246" y="239" type="curve" smooth="yes"/>
      <point x="369" y="239"/>
      <point x="404" y="346"/>
      <point x="408" y="372" type="curve"/>
      <point x="372" y="356" type="line"/>
      <point x="394" y="356"/>
      <point x="416" y="344"/>
      <point x="416" y="272" type="curve" smooth="yes"/>
      <point x="416" y="-5" type="line" smooth="yes"/>
      <point x="416" y="-23"/>
      <point x="426" y="-40"/>
      <point x="445" y="-40" type="curve" smooth="yes"/>
    </contour>
    <contour>
      <point x="162" y="338"/>
      <point x="142" y="351"/>
      <point x="142" y="375" type="curve" smooth="yes"/>
      <point x="142" y="400"/>
      <point x="162" y="412"/>
      <point x="179" y="412" type="curve" smooth="yes"/>
      <point x="198" y="412"/>
      <point x="217" y="400"/>
      <point x="217" y="375" type="curve" smooth="yes"/>
      <point x="217" y="350"/>
      <point x="197" y="338"/>
      <point x="179" y="338" type="curve" smooth="yes"/>
    </contour>
    <contour>
      <point x="558" y="541" type="line" smooth="yes"/>
      <point x="572" y="541"/>
      <point x="584" y="552"/>
      <point x="584" y="565" type="curve" smooth="yes"/>
      <point x="584" y="577"/>
      <point x="572" y="587"/>
      <point x="558" y="587" type="curve" smooth="yes"/>
      <point x="-1" y="587" type="line" smooth="yes"/>
      <point x="-15" y="587"/>
      <point x="-27" y="577"/>
      <point x="-27" y="565" type="curve" smooth="yes"/>
      <point x="-27" y="552"/>
      <point x="-15" y="541"/>
      <point x="-1" y="541" type="curve" smooth="yes"/>
    </contour>
    <contour>
      <point x="442" y="22" type="line"/>
      <point x="425" y="88"/>
      <point x="356" y="105"/>
      <point x="311" y="105" type="curve" smooth="yes"/>
      <point x="253" y="105"/>
      <point x="186" y="84"/>
      <point x="145" y="84" type="curve" smooth="yes"/>
      <point x="109" y="84"/>
      <point x="80" y="102"/>
      <point x="80" y="145" type="curve" smooth="yes"/>
      <point x="80" y="167"/>
      <point x="87" y="188"/>
      <point x="87" y="199" type="curve" smooth="yes"/>
      <point x="87" y="210"/>
      <point x="81" y="221"/>
      <point x="68" y="221" type="curve" smooth="yes"/>
      <point x="41" y="221"/>
      <point x="30" y="175"/>
      <point x="30" y="145" type="curve" smooth="yes"/>
      <point x="30" y="83"/>
      <point x="73" y="31"/>
      <point x="144" y="31" type="curve" smooth="yes"/>
      <point x="191" y="31"/>
      <point x="272" y="53"/>
      <point x="326" y="53" type="curve" smooth="yes"/>
      <point x="372" y="53"/>
      <point x="415" y="34"/>
      <point x="415" y="-5" type="curve"/>
    </contour>
  </outline>
</glyph>
<glyph name="bBhRa_bSignU" format="1">
  <advance width="778"/>
  <outline>
    <contour>
      <point x="689" y="82"/>
      <point x="751" y="134"/>
      <point x="751" y="217" type="curve" smooth="yes"/>
      <point x="751" y="293"/>
      <point x="698" y="353"/>
      <point x="630" y="353" type="curve" smooth="yes"/>
      <point x="582" y="353"/>
      <point x="549" y="325"/>
      <point x="549" y="285" type="curve" smooth="yes"/>
      <point x="549" y="246"/>
      <point x="582" y="215"/>
      <point x="621" y="215" type="curve" smooth="yes"/>
      <point x="658" y="215"/>
      <point x="686" y="243"/>
      <point x="686" y="276" type="curve" smooth="yes"/>
      <point x="686" y="297"/>
      <point x="674" y="329"/>
      <point x="642" y="333" type="curve"/>
      <point x="643" y="314" type="line"/>
      <point x="687" y="305"/>
      <point x="708" y="260"/>
      <point x="708" y="226" type="curve" smooth="yes"/>
      <point x="708" y="180"/>
      <point x="670" y="135"/>
      <point x="611" y="135" type="curve" smooth="yes"/>
      <point x="544" y="135"/>
      <point x="470" y="191"/>
      <point x="470" y="270" type="curve"/>
      <point x="437" y="254" type="line"/>
      <point x="437" y="182"/>
      <point x="503" y="82"/>
      <point x="615" y="82" type="curve" smooth="yes"/>
    </contour>
    <contour>
      <point x="605" y="253"/>
      <point x="594" y="267"/>
      <point x="594" y="281" type="curve" smooth="yes"/>
      <point x="594" y="297"/>
      <point x="606" y="310"/>
      <point x="623" y="310" type="curve" smooth="yes"/>
      <point x="640" y="310"/>
      <point x="652" y="297"/>
      <point x="652" y="281" type="curve" smooth="yes"/>
      <point x="652" y="267"/>
      <point x="640" y="253"/>
      <point x="623" y="253" type="curve" smooth="yes"/>
    </contour>
    <contour>
      <point x="778" y="541" type="line" smooth="yes"/>
      <point x="793" y="541"/>
      <point x="805" y="552"/>
      <point x="805" y="565" type="curve" smooth="yes"/>
      <point x="805" y="577"/>
      <point x="793" y="587"/>
      <point x="778" y="587" type="curve" smooth="yes"/>
      <point x="551" y="587" type="line" smooth="yes"/>
      <point x="544" y="587"/>
      <point x="531" y="582"/>
      <point x="531" y="565" type="curve" smooth="yes"/>
      <point x="531" y="549"/>
      <point x="542" y="541"/>
      <point x="551" y="541" type="curve" smooth="yes"/>
    </contour>
    <component base="bBhRa"/>
  </outline>
</glyph>
<glyph name="bBhRa_bSignUu" format="1">
  <advance width="725"/>
  <outline>
    <contour>
      <point x="725" y="541" type="line" smooth="yes"/>
      <point x="740" y="541"/>
      <point x="752" y="552"/>
      <point x="752" y="565" type="curve" smooth="yes"/>
      <point x="752" y="577"/>
      <point x="740" y="587"/>
      <point x="725" y="587" type="curve" smooth="yes"/>
      <point x="536" y="587" type="line" smooth="yes"/>
      <point x="529" y="587"/>
      <point x="516" y="582"/>
      <point x="516" y="565" type="curve" smooth="yes"/>
      <point x="516" y="549"/>
      <point x="527" y="541"/>
      <point x="536" y="541" type="curve" smooth="yes"/>
    </contour>
    <contour>
      <point x="621" y="-12"/>
      <point x="631" y="3"/>
      <point x="631" y="28" type="curve" smooth="yes"/>
      <point x="631" y="215" type="line" smooth="yes"/>
      <point x="631" y="302"/>
      <point x="655" y="345"/>
      <point x="655" y="373" type="curve" smooth="yes"/>
      <point x="655" y="391"/>
      <point x="644" y="407"/>
      <point x="619" y="407" type="curve" smooth="yes"/>
      <point x="591" y="407"/>
      <point x="456" y="312"/>
      <point x="433" y="289" type="curve"/>
      <point x="436" y="225" type="line"/>
      <point x="472" y="256"/>
      <point x="584" y="340"/>
      <point x="617" y="354" type="curve"/>
      <point x="613" y="377" type="line"/>
      <point x="587" y="325"/>
      <point x="578" y="263"/>
      <point x="578" y="215" type="curve" smooth="yes"/>
      <point x="578" y="28" type="line" smooth="yes"/>
      <point x="578" y="1"/>
      <point x="591" y="-12"/>
      <point x="605" y="-12" type="curve" smooth="yes"/>
    </contour>
    <component base="bBhRa"/>
  </outline>
</glyph>
<glyph name="bBha" format="1">
  <advance width="571"/>
  <outline>
    <contour>
      <point x="460" y="48"/>
      <point x="530" y="147"/>
      <point x="530" y="251" type="curve" smooth="yes"/>
      <point x="530" y="322"/>
      <point x="493" y="406"/>
      <point x="459" y="406" type="curve" smooth="yes"/>
      <point x="444" y="406"/>
      <point x="437" y="395"/>
      <point x="433" y="373" type="curve" smooth="yes"/>
      <point x="424" y="332"/>
      <point x="387" y="291"/>
      <point x="322" y="291" type="curve" smooth="yes"/>
      <point x="289" y="291"/>
      <point x="260" y="306"/>
      <point x="235" y="332" type="curve"/>
      <point x="219" y="322" type="line"/>
      <point x="230" y="311"/>
      <point x="248" y="305"/>
      <point x="265" y="305" type="curve" smooth="yes"/>
      <point x="307" y="305"/>
      <point x="346" y="338"/>
      <point x="346" y="382" type="curve" smooth="yes"/>
      <point x="346" y="426"/>
      <point x="311" y="463"/>
      <point x="263" y="463" type="curve" smooth="yes"/>
      <point x="219" y="463"/>
      <point x="175" y="430"/>
      <point x="175" y="375" type="curve" smooth="yes"/>
      <point x="175" y="306"/>
      <point x="241" y="239"/>
      <point x="326" y="239" type="curve" smooth="yes"/>
      <point x="423" y="239"/>
      <point x="471" y="323"/>
      <point x="471" y="365" type="curve"/>
      <point x="457" y="355" type="line"/>
      <point x="473" y="331"/>
      <point x="481" y="297"/>
      <point x="481" y="266" type="curve" smooth="yes"/>
      <point x="481" y="189"/>
      <point x="432" y="109"/>
      <point x="325" y="109" type="curve" smooth="yes"/>
      <point x="184" y="109"/>
      <point x="98" y="284"/>
      <point x="71" y="408" type="curve" smooth="yes"/>
      <point x="67" y="426"/>
      <point x="59" y="439"/>
      <point x="43" y="439" type="curve" smooth="yes"/>
      <point x="28" y="439"/>
      <point x="23" y="423"/>
      <point x="23" y="413" type="curve" smooth="yes"/>
      <point x="23" y="335"/>
      <point x="115" y="48"/>
      <point x="330" y="48" type="curve" smooth="yes"/>
    </contour>
    <contour>
      <point x="241" y="340"/>
      <point x="221" y="354"/>
      <point x="221" y="378" type="curve" smooth="yes"/>
      <point x="221" y="403"/>
      <point x="241" y="415"/>
      <point x="258" y="415" type="curve" smooth="yes"/>
      <point x="277" y="415"/>
      <point x="296" y="402"/>
      <point x="296" y="377" type="curve" smooth="yes"/>
      <point x="296" y="353"/>
      <point x="276" y="340"/>
      <point x="258" y="340" type="curve" smooth="yes"/>
    </contour>
    <contour>
      <point x="571" y="541" type="line" smooth="yes"/>
      <point x="582" y="541"/>
      <point x="596" y="549"/>
      <point x="596" y="565" type="curve" smooth="yes"/>
      <point x="596" y="580"/>
      <point x="582" y="587"/>
      <point x="571" y="587" type="curve" smooth="yes"/>
      <point x="0" y="587" type="line" smooth="yes"/>
      <point x="-13" y="587"/>
      <point x="-27" y="580"/>
      <point x="-27" y="565" type="curve" smooth="yes"/>
      <point x="-27" y="549"/>
      <point x="-13" y="541"/>
      <point x="0" y="541" type="curve" smooth="yes"/>
    </contour>
  </outline>
</glyph>
<glyph name="bCBa" format="1">
  <advance width="465"/>
  <outline>
    <contour>
      <point x="294" y="48"/>
      <point x="436" y="206"/>
      <point x="436" y="293" type="curve" smooth="yes"/>
      <point x="435" y="343"/>
      <point x="402" y="363"/>
      <point x="329" y="378" type="curve" smooth="yes"/>
      <point x="216" y="401"/>
      <point x="151" y="419"/>
      <point x="151" y="494" type="curve" smooth="yes"/>
      <point x="151" y="539"/>
      <point x="174" y="542"/>
      <point x="207" y="542" type="curve" smooth="yes"/>
      <point x="465" y="541" type="line" smooth="yes"/>
      <point x="479" y="541"/>
      <point x="491" y="552"/>
      <point x="491" y="565" type="curve" smooth="yes"/>
      <point x="491" y="577"/>
      <point x="479" y="587"/>
      <point x="465" y="587" type="curve" smooth="yes"/>
      <point x="180" y="587" type="line" smooth="yes"/>
      <point x="131" y="587"/>
      <point x="103" y="559"/>
      <point x="103" y="516" type="curve"/>
      <point x="115" y="528" type="line"/>
      <point x="108" y="557"/>
      <point x="78" y="587"/>
      <point x="34" y="587" type="curve" smooth="yes"/>
      <point x="-1" y="587" type="line" smooth="yes"/>
      <point x="-15" y="587"/>
      <point x="-27" y="577"/>
      <point x="-27" y="565" type="curve" smooth="yes"/>
      <point x="-27" y="552"/>
      <point x="-15" y="541"/>
      <point x="-1" y="541" type="curve" smooth="yes"/>
      <point x="32" y="541" type="line" smooth="yes"/>
      <point x="91" y="541"/>
      <point x="97" y="487"/>
      <point x="97" y="433" type="curve" smooth="yes"/>
      <point x="96" y="186" type="line" smooth="yes"/>
      <point x="95" y="95"/>
      <point x="119" y="48"/>
      <point x="179" y="48" type="curve" smooth="yes"/>
    </contour>
    <contour>
      <point x="325" y="-123" type="line"/>
      <point x="309" y="-58"/>
      <point x="188" y="5"/>
      <point x="133" y="5" type="curve"/>
      <point x="152" y="-15" type="line"/>
      <point x="315" y="101" type="line"/>
      <point x="285" y="141" type="line"/>
      <point x="130" y="31" type="line" smooth="yes"/>
      <point x="110" y="16"/>
      <point x="98" y="9"/>
      <point x="98" y="-8" type="curve" smooth="yes"/>
      <point x="98" y="-19"/>
      <point x="104" y="-33"/>
      <point x="125" y="-38" type="curve" smooth="yes"/>
      <point x="193" y="-57"/>
      <point x="285" y="-94"/>
      <point x="291" y="-142" type="curve"/>
    </contour>
    <contour>
      <point x="333" y="-177"/>
      <point x="344" y="-163"/>
      <point x="344" y="-144" type="curve" smooth="yes"/>
      <point x="344" y="148" type="line"/>
      <point x="290" y="139" type="line"/>
      <point x="290" y="-144" type="line" smooth="yes"/>
      <point x="290" y="-163"/>
      <point x="302" y="-177"/>
      <point x="318" y="-177" type="curve" smooth="yes"/>
    </contour>
    <contour>
      <point x="150" y="110"/>
      <point x="151" y="163"/>
      <point x="151" y="191" type="curve" smooth="yes"/>
      <point x="151" y="433" type="line"/>
      <point x="134" y="417" type="line"/>
      <point x="158" y="367"/>
      <point x="238" y="344"/>
      <point x="318" y="329" type="curve" smooth="yes"/>
      <point x="355" y="322"/>
      <point x="376" y="313"/>
      <point x="376" y="286" type="curve" smooth="yes"/>
      <point x="376" y="234"/>
      <point x="258" y="110"/>
      <point x="188" y="110" type="curve" smooth="yes"/>
    </contour>
  </outline>
</glyph>
<glyph name="bCCa" format="1">
  <advance width="734"/>
  <outline>
    <contour>
      <point x="287" y="63"/>
      <point x="400" y="214"/>
      <point x="400" y="293" type="curve" smooth="yes"/>
      <point x="400" y="337"/>
      <point x="389" y="369"/>
      <point x="291" y="390" type="curve" smooth="yes"/>
      <point x="226" y="404"/>
      <point x="145" y="433"/>
      <point x="145" y="507" type="curve" smooth="yes"/>
      <point x="145" y="540"/>
      <point x="163" y="541"/>
      <point x="182" y="541" type="curve" smooth="yes"/>
      <point x="286" y="541" type="line"/>
      <point x="286" y="587" type="line"/>
      <point x="166" y="587" type="line" smooth="yes"/>
      <point x="122" y="587"/>
      <point x="97" y="570"/>
      <point x="98" y="519" type="curve"/>
      <point x="109" y="520" type="line"/>
      <point x="100" y="562"/>
      <point x="83" y="587"/>
      <point x="23" y="587" type="curve" smooth="yes"/>
      <point x="-1" y="587" type="line" smooth="yes"/>
      <point x="-15" y="587"/>
      <point x="-27" y="577"/>
      <point x="-27" y="565" type="curve" smooth="yes"/>
      <point x="-27" y="552"/>
      <point x="-15" y="541"/>
      <point x="-1" y="541" type="curve" smooth="yes"/>
      <point x="31" y="541" type="line" smooth="yes"/>
      <point x="80" y="541"/>
      <point x="93" y="497"/>
      <point x="93" y="446" type="curve" smooth="yes"/>
      <point x="93" y="190" type="line" smooth="yes"/>
      <point x="93" y="108"/>
      <point x="124" y="63"/>
      <point x="184" y="63" type="curve" smooth="yes"/>
    </contour>
    <contour>
      <point x="169" y="117"/>
      <point x="147" y="128"/>
      <point x="147" y="184" type="curve" smooth="yes"/>
      <point x="146" y="441" type="line"/>
      <point x="124" y="432" type="line"/>
      <point x="156" y="370"/>
      <point x="254" y="344"/>
      <point x="291" y="335" type="curve" smooth="yes"/>
      <point x="327" y="326"/>
      <point x="349" y="314"/>
      <point x="349" y="290" type="curve" smooth="yes"/>
      <point x="349" y="235"/>
      <point x="252" y="117"/>
      <point x="190" y="117" type="curve" smooth="yes"/>
    </contour>
    <component base="bCa" xOffset="269"/>
  </outline>
</glyph>
<glyph name="bCChBa" format="1">
  <advance width="772"/>
  <outline>
    <contour>
      <point x="777" y="10"/>
      <point x="788" y="21"/>
      <point x="788" y="34" type="curve" smooth="yes"/>
      <point x="788" y="46"/>
      <point x="779" y="56"/>
      <point x="759" y="58" type="curve" smooth="yes"/>
      <point x="718" y="60"/>
      <point x="656" y="68"/>
      <point x="591" y="118" type="curve" smooth="yes"/>
      <point x="547" y="153"/>
      <point x="497" y="183"/>
      <point x="457" y="183" type="curve" smooth="yes"/>
      <point x="411" y="183"/>
      <point x="387" y="155"/>
      <point x="387" y="124" type="curve" smooth="yes"/>
      <point x="387" y="86"/>
      <point x="426" y="63"/>
      <point x="471" y="63" type="curve" smooth="yes"/>
      <point x="587" y="63"/>
      <point x="731" y="165"/>
      <point x="731" y="293" type="curve" smooth="yes"/>
      <point x="731" y="384"/>
      <point x="661" y="455"/>
      <point x="555" y="455" type="curve" smooth="yes"/>
      <point x="487" y="455"/>
      <point x="425" y="473"/>
      <point x="425" y="507" type="curve" smooth="yes"/>
      <point x="425" y="538"/>
      <point x="443" y="541"/>
      <point x="471" y="541" type="curve" smooth="yes"/>
      <point x="772" y="541" type="line" smooth="yes"/>
      <point x="786" y="541"/>
      <point x="798" y="552"/>
      <point x="798" y="565" type="curve" smooth="yes"/>
      <point x="798" y="577"/>
      <point x="786" y="587"/>
      <point x="772" y="587" type="curve" smooth="yes"/>
      <point x="455" y="587" type="line" smooth="yes"/>
      <point x="400" y="587"/>
      <point x="379" y="567"/>
      <point x="379" y="514" type="curve"/>
      <point x="393" y="524" type="line"/>
      <point x="383" y="560"/>
      <point x="359" y="587"/>
      <point x="303" y="587" type="curve" smooth="yes"/>
      <point x="166" y="587" type="line" smooth="yes"/>
      <point x="118" y="586"/>
      <point x="99" y="571"/>
      <point x="99" y="517" type="curve"/>
      <point x="112" y="517" type="line"/>
      <point x="102" y="562"/>
      <point x="83" y="587"/>
      <point x="23" y="587" type="curve" smooth="yes"/>
      <point x="-1" y="587" type="line" smooth="yes"/>
      <point x="-15" y="587"/>
      <point x="-27" y="577"/>
      <point x="-27" y="565" type="curve" smooth="yes"/>
      <point x="-27" y="552"/>
      <point x="-15" y="541"/>
      <point x="-1" y="541" type="curve" smooth="yes"/>
      <point x="31" y="541" type="line" smooth="yes"/>
      <point x="80" y="541"/>
      <point x="94" y="497"/>
      <point x="94" y="446" type="curve" smooth="yes"/>
      <point x="94" y="183" type="line" smooth="yes"/>
      <point x="94" y="108"/>
      <point x="126" y="63"/>
      <point x="182" y="63" type="curve" smooth="yes"/>
      <point x="288" y="63"/>
      <point x="405" y="215"/>
      <point x="405" y="293" type="curve" smooth="yes"/>
      <point x="405" y="337"/>
      <point x="391" y="371"/>
      <point x="291" y="392" type="curve" smooth="yes"/>
      <point x="228" y="406"/>
      <point x="146" y="433"/>
      <point x="146" y="501" type="curve" smooth="yes"/>
      <point x="146" y="534"/>
      <point x="163" y="541"/>
      <point x="185" y="541" type="curve" smooth="yes"/>
      <point x="307" y="541" type="line" smooth="yes"/>
      <point x="359" y="541"/>
      <point x="372" y="507"/>
      <point x="372" y="475" type="curve" smooth="yes"/>
      <point x="370" y="307" type="line" smooth="yes"/>
      <point x="370" y="239"/>
      <point x="402" y="213"/>
      <point x="457" y="213" type="curve" smooth="yes"/>
      <point x="545" y="213"/>
      <point x="661" y="335"/>
      <point x="628" y="409" type="curve"/>
      <point x="613" y="406" type="line"/>
      <point x="665" y="380"/>
      <point x="682" y="345"/>
      <point x="682" y="300" type="curve" smooth="yes"/>
      <point x="682" y="209"/>
      <point x="562" y="114"/>
      <point x="470" y="114" type="curve" smooth="yes"/>
      <point x="450" y="114"/>
      <point x="440" y="122"/>
      <point x="440" y="128" type="curve" smooth="yes"/>
      <point x="440" y="133"/>
      <point x="445" y="136"/>
      <point x="453" y="136" type="curve" smooth="yes"/>
      <point x="472" y="136"/>
      <point x="511" y="115"/>
      <point x="538" y="94" type="curve" smooth="yes"/>
      <point x="611" y="37"/>
      <point x="706" y="10"/>
      <point x="757" y="10" type="curve" smooth="yes"/>
    </contour>
    <contour>
      <point x="169" y="117"/>
      <point x="148" y="130"/>
      <point x="148" y="190" type="curve" smooth="yes"/>
      <point x="148" y="441" type="line"/>
      <point x="124" y="440" type="line"/>
      <point x="156" y="368"/>
      <point x="256" y="347"/>
      <point x="294" y="338" type="curve" smooth="yes"/>
      <point x="330" y="329"/>
      <point x="352" y="316"/>
      <point x="352" y="292" type="curve" smooth="yes"/>
      <point x="352" y="237"/>
      <point x="249" y="117"/>
      <point x="193" y="117" type="curve" smooth="yes"/>
    </contour>
    <contour>
      <point x="672" y="-138" type="line"/>
      <point x="643" y="-69"/>
      <point x="539" y="-33"/>
      <point x="490" y="-33" type="curve"/>
      <point x="503" y="-49" type="line"/>
      <point x="664" y="37" type="line"/>
      <point x="637" y="73" type="line"/>
      <point x="490" y="-5" type="line" smooth="yes"/>
      <point x="468" y="-16"/>
      <point x="456" y="-24"/>
      <point x="456" y="-41" type="curve" smooth="yes"/>
      <point x="456" y="-55"/>
      <point x="465" y="-64"/>
      <point x="483" y="-69" type="curve" smooth="yes"/>
      <point x="553" y="-85"/>
      <point x="638" y="-118"/>
      <point x="641" y="-151" type="curve"/>
    </contour>
    <contour>
      <point x="683" y="-179"/>
      <point x="692" y="-165"/>
      <point x="692" y="-147" type="curve" smooth="yes"/>
      <point x="692" y="56" type="line"/>
      <point x="641" y="54" type="line"/>
      <point x="641" y="-147" type="line" smooth="yes"/>
      <point x="641" y="-165"/>
      <point x="653" y="-179"/>
      <point x="668" y="-179" type="curve" smooth="yes"/>
    </contour>
    <contour>
      <point x="432" y="260"/>
      <point x="424" y="279"/>
      <point x="424" y="317" type="curve" smooth="yes"/>
      <point x="424" y="471" type="line"/>
      <point x="409" y="457" type="line"/>
      <point x="425" y="421"/>
      <point x="480" y="413"/>
      <point x="526" y="413" type="curve" smooth="yes"/>
      <point x="564" y="413"/>
      <point x="589" y="408"/>
      <point x="589" y="380" type="curve" smooth="yes"/>
      <point x="589" y="336"/>
      <point x="508" y="260"/>
      <point x="458" y="260" type="curve" smooth="yes"/>
    </contour>
  </outline>
</glyph>
<glyph name="bCChRa" format="1">
  <advance width="772"/>
  <outline>
    <contour>
      <point x="775" y="-15"/>
      <point x="788" y="-3"/>
      <point x="788" y="11" type="curve" smooth="yes"/>
      <point x="788" y="22"/>
      <point x="779" y="34"/>
      <point x="759" y="34" type="curve" smooth="yes"/>
      <point x="719" y="34"/>
      <point x="657" y="54"/>
      <point x="593" y="97" type="curve" smooth="yes"/>
      <point x="547" y="129"/>
      <point x="500" y="161"/>
      <point x="460" y="161" type="curve" smooth="yes"/>
      <point x="414" y="161"/>
      <point x="389" y="134"/>
      <point x="389" y="103" type="curve" smooth="yes"/>
      <point x="389" y="64"/>
      <point x="428" y="41"/>
      <point x="474" y="41" type="curve" smooth="yes"/>
      <point x="589" y="41"/>
      <point x="731" y="140"/>
      <point x="731" y="269" type="curve" smooth="yes"/>
      <point x="731" y="355"/>
      <point x="661" y="432"/>
      <point x="555" y="432" type="curve" smooth="yes"/>
      <point x="487" y="432"/>
      <point x="425" y="457"/>
      <point x="425" y="506" type="curve" smooth="yes"/>
      <point x="425" y="538"/>
      <point x="443" y="541"/>
      <point x="471" y="541" type="curve" smooth="yes"/>
      <point x="772" y="541" type="line" smooth="yes"/>
      <point x="786" y="541"/>
      <point x="798" y="552"/>
      <point x="798" y="565" type="curve" smooth="yes"/>
      <point x="798" y="577"/>
      <point x="786" y="587"/>
      <point x="772" y="587" type="curve" smooth="yes"/>
      <point x="455" y="587" type="line" smooth="yes"/>
      <point x="400" y="587"/>
      <point x="379" y="567"/>
      <point x="379" y="514" type="curve"/>
      <point x="393" y="524" type="line"/>
      <point x="383" y="560"/>
      <point x="359" y="587"/>
      <point x="303" y="587" type="curve" smooth="yes"/>
      <point x="166" y="587" type="line" smooth="yes"/>
      <point x="130" y="587"/>
      <point x="99" y="571"/>
      <point x="99" y="517" type="curve"/>
      <point x="112" y="517" type="line"/>
      <point x="102" y="562"/>
      <point x="83" y="587"/>
      <point x="23" y="587" type="curve" smooth="yes"/>
      <point x="-1" y="587" type="line" smooth="yes"/>
      <point x="-15" y="587"/>
      <point x="-27" y="577"/>
      <point x="-27" y="565" type="curve" smooth="yes"/>
      <point x="-27" y="552"/>
      <point x="-15" y="541"/>
      <point x="-1" y="541" type="curve" smooth="yes"/>
      <point x="31" y="541" type="line" smooth="yes"/>
      <point x="80" y="541"/>
      <point x="94" y="497"/>
      <point x="94" y="446" type="curve" smooth="yes"/>
      <point x="94" y="183" type="line" smooth="yes"/>
      <point x="94" y="108"/>
      <point x="126" y="63"/>
      <point x="182" y="63" type="curve" smooth="yes"/>
      <point x="288" y="63"/>
      <point x="405" y="215"/>
      <point x="405" y="293" type="curve" smooth="yes"/>
      <point x="405" y="337"/>
      <point x="391" y="371"/>
      <point x="291" y="392" type="curve" smooth="yes"/>
      <point x="228" y="406"/>
      <point x="146" y="433"/>
      <point x="146" y="501" type="curve" smooth="yes"/>
      <point x="146" y="534"/>
      <point x="160" y="541"/>
      <point x="192" y="541" type="curve" smooth="yes"/>
      <point x="307" y="541" type="line" smooth="yes"/>
      <point x="357" y="541"/>
      <point x="372" y="507"/>
      <point x="372" y="475" type="curve" smooth="yes"/>
      <point x="370" y="278" type="line" smooth="yes"/>
      <point x="370" y="210"/>
      <point x="402" y="184"/>
      <point x="457" y="184" type="curve" smooth="yes"/>
      <point x="545" y="184"/>
      <point x="664" y="312"/>
      <point x="629" y="383" type="curve"/>
      <point x="613" y="377" type="line"/>
      <point x="668" y="352"/>
      <point x="683" y="315"/>
      <point x="683" y="272" type="curve" smooth="yes"/>
      <point x="683" y="180"/>
      <point x="564" y="93"/>
      <point x="472" y="93" type="curve" smooth="yes"/>
      <point x="453" y="93"/>
      <point x="442" y="101"/>
      <point x="442" y="107" type="curve" smooth="yes"/>
      <point x="442" y="112"/>
      <point x="447" y="115"/>
      <point x="456" y="115" type="curve" smooth="yes"/>
      <point x="475" y="115"/>
      <point x="511" y="92"/>
      <point x="561" y="58" type="curve" smooth="yes"/>
      <point x="634" y="9"/>
      <point x="701" y="-15"/>
      <point x="755" y="-15" type="curve" smooth="yes"/>
    </contour>
    <contour>
      <point x="169" y="117"/>
      <point x="148" y="130"/>
      <point x="148" y="190" type="curve" smooth="yes"/>
      <point x="148" y="441" type="line"/>
      <point x="124" y="440" type="line"/>
      <point x="156" y="368"/>
      <point x="256" y="347"/>
      <point x="294" y="338" type="curve" smooth="yes"/>
      <point x="330" y="329"/>
      <point x="352" y="316"/>
      <point x="352" y="292" type="curve" smooth="yes"/>
      <point x="352" y="237"/>
      <point x="249" y="117"/>
      <point x="193" y="117" type="curve" smooth="yes"/>
    </contour>
    <contour>
      <point x="432" y="231"/>
      <point x="424" y="250"/>
      <point x="424" y="288" type="curve" smooth="yes"/>
      <point x="424" y="471" type="line"/>
      <point x="409" y="461" type="line"/>
      <point x="423" y="402"/>
      <point x="480" y="388"/>
      <point x="526" y="388" type="curve" smooth="yes"/>
      <point x="564" y="388"/>
      <point x="589" y="380"/>
      <point x="589" y="352" type="curve" smooth="yes"/>
      <point x="589" y="308"/>
      <point x="508" y="231"/>
      <point x="458" y="231" type="curve" smooth="yes"/>
    </contour>
    <contour>
      <point x="671" y="-100" type="line"/>
      <point x="657" y="-37"/>
      <point x="601" y="-4"/>
      <point x="549" y="-4" type="curve" smooth="yes"/>
      <point x="498" y="-4"/>
      <point x="447" y="-29"/>
      <point x="402" y="-29" type="curve" smooth="yes"/>
      <point x="368" y="-29"/>
      <point x="336" y="-12"/>
      <point x="336" y="27" type="curve" smooth="yes"/>
      <point x="336" y="51"/>
      <point x="349" y="74"/>
      <point x="349" y="88" type="curve" smooth="yes"/>
      <point x="349" y="100"/>
      <point x="342" y="109"/>
      <point x="329" y="109" type="curve" smooth="yes"/>
      <point x="302" y="109"/>
      <point x="287" y="64"/>
      <point x="287" y="30" type="curve" smooth="yes"/>
      <point x="287" y="-25"/>
      <point x="318" y="-83"/>
      <point x="404" y="-83" type="curve" smooth="yes"/>
      <point x="463" y="-83"/>
      <point x="515" y="-57"/>
      <point x="562" y="-57" type="curve" smooth="yes"/>
      <point x="603" y="-57"/>
      <point x="640" y="-78"/>
      <point x="640" y="-120" type="curve"/>
    </contour>
    <contour>
      <point x="686" y="-155"/>
      <point x="697" y="-139"/>
      <point x="697" y="-119" type="curve" smooth="yes"/>
      <point x="697" y="30" type="line"/>
      <point x="641" y="30" type="line"/>
      <point x="641" y="-120" type="line" smooth="yes"/>
      <point x="641" y="-137"/>
      <point x="651" y="-155"/>
      <point x="670" y="-155" type="curve" smooth="yes"/>
    </contour>
  </outline>
</glyph>
<glyph name="bCCha" format="1">
  <advance width="772"/>
  <outline>
    <contour>
      <point x="288" y="63"/>
      <point x="405" y="215"/>
      <point x="405" y="293" type="curve" smooth="yes"/>
      <point x="405" y="337"/>
      <point x="391" y="371"/>
      <point x="291" y="392" type="curve" smooth="yes"/>
      <point x="228" y="406"/>
      <point x="146" y="433"/>
      <point x="146" y="501" type="curve" smooth="yes"/>
      <point x="146" y="534"/>
      <point x="163" y="541"/>
      <point x="185" y="541" type="curve" smooth="yes"/>
      <point x="278" y="541" type="line"/>
      <point x="278" y="587" type="line"/>
      <point x="166" y="587" type="line" smooth="yes"/>
      <point x="118" y="586"/>
      <point x="99" y="571"/>
      <point x="99" y="517" type="curve"/>
      <point x="112" y="517" type="line"/>
      <point x="102" y="562"/>
      <point x="83" y="587"/>
      <point x="23" y="587" type="curve" smooth="yes"/>
      <point x="-1" y="587" type="line" smooth="yes"/>
      <point x="-15" y="587"/>
      <point x="-27" y="577"/>
      <point x="-27" y="565" type="curve" smooth="yes"/>
      <point x="-27" y="552"/>
      <point x="-15" y="541"/>
      <point x="-1" y="541" type="curve" smooth="yes"/>
      <point x="31" y="541" type="line" smooth="yes"/>
      <point x="80" y="541"/>
      <point x="94" y="497"/>
      <point x="94" y="446" type="curve" smooth="yes"/>
      <point x="94" y="183" type="line" smooth="yes"/>
      <point x="94" y="108"/>
      <point x="126" y="63"/>
      <point x="182" y="63" type="curve" smooth="yes"/>
    </contour>
    <contour>
      <point x="169" y="117"/>
      <point x="148" y="130"/>
      <point x="148" y="190" type="curve" smooth="yes"/>
      <point x="148" y="441" type="line"/>
      <point x="124" y="440" type="line"/>
      <point x="156" y="368"/>
      <point x="256" y="347"/>
      <point x="294" y="338" type="curve" smooth="yes"/>
      <point x="330" y="329"/>
      <point x="352" y="316"/>
      <point x="352" y="292" type="curve" smooth="yes"/>
      <point x="352" y="237"/>
      <point x="249" y="117"/>
      <point x="193" y="117" type="curve" smooth="yes"/>
    </contour>
    <component base="bCha" xOffset="272"/>
  </outline>
</glyph>
<glyph name="bCNa" format="1">
  <advance width="465"/>
  <outline>
    <contour>
      <point x="295" y="51"/>
      <point x="436" y="206"/>
      <point x="436" y="293" type="curve" smooth="yes"/>
      <point x="435" y="343"/>
      <point x="402" y="363"/>
      <point x="329" y="378" type="curve" smooth="yes"/>
      <point x="216" y="401"/>
      <point x="151" y="419"/>
      <point x="151" y="494" type="curve" smooth="yes"/>
      <point x="151" y="539"/>
      <point x="174" y="542"/>
      <point x="207" y="542" type="curve" smooth="yes"/>
      <point x="465" y="541" type="line" smooth="yes"/>
      <point x="479" y="541"/>
      <point x="491" y="552"/>
      <point x="491" y="565" type="curve" smooth="yes"/>
      <point x="491" y="577"/>
      <point x="479" y="587"/>
      <point x="465" y="587" type="curve" smooth="yes"/>
      <point x="180" y="587" type="line" smooth="yes"/>
      <point x="131" y="587"/>
      <point x="103" y="559"/>
      <point x="103" y="516" type="curve"/>
      <point x="115" y="528" type="line"/>
      <point x="108" y="557"/>
      <point x="78" y="587"/>
      <point x="34" y="587" type="curve" smooth="yes"/>
      <point x="-1" y="587" type="line" smooth="yes"/>
      <point x="-15" y="587"/>
      <point x="-27" y="577"/>
      <point x="-27" y="565" type="curve" smooth="yes"/>
      <point x="-27" y="552"/>
      <point x="-15" y="541"/>
      <point x="-1" y="541" type="curve" smooth="yes"/>
      <point x="32" y="541" type="line" smooth="yes"/>
      <point x="91" y="541"/>
      <point x="97" y="487"/>
      <point x="97" y="433" type="curve" smooth="yes"/>
      <point x="96" y="189" type="line" smooth="yes"/>
      <point x="95" y="97"/>
      <point x="119" y="51"/>
      <point x="179" y="51" type="curve" smooth="yes"/>
    </contour>
    <contour>
      <point x="332" y="-177"/>
      <point x="344" y="-163"/>
      <point x="344" y="-144" type="curve" smooth="yes"/>
      <point x="344" y="148" type="line"/>
      <point x="290" y="139" type="line"/>
      <point x="290" y="-144" type="line" smooth="yes"/>
      <point x="290" y="-163"/>
      <point x="302" y="-177"/>
      <point x="317" y="-177" type="curve" smooth="yes"/>
    </contour>
    <contour>
      <point x="102" y="-107"/>
      <point x="84" y="-91"/>
      <point x="84" y="-70" type="curve" smooth="yes"/>
      <point x="84" y="-46"/>
      <point x="101" y="-32"/>
      <point x="122" y="-32" type="curve" smooth="yes"/>
      <point x="141" y="-32"/>
      <point x="159" y="-46"/>
      <point x="159" y="-70" type="curve" smooth="yes"/>
      <point x="159" y="-91"/>
      <point x="142" y="-107"/>
      <point x="122" y="-107" type="curve" smooth="yes"/>
    </contour>
    <contour>
      <point x="162" y="-152"/>
      <point x="201" y="-121"/>
      <point x="201" y="-75" type="curve" smooth="yes"/>
      <point x="201" y="-35"/>
      <point x="171" y="-2"/>
      <point x="131" y="2" type="curve"/>
      <point x="139" y="-18" type="line"/>
      <point x="200" y="-10"/>
      <point x="290" y="-55"/>
      <point x="290" y="-126" type="curve"/>
      <point x="323" y="-103" type="line"/>
      <point x="302" y="-20"/>
      <point x="225" y="29"/>
      <point x="149" y="29" type="curve" smooth="yes"/>
      <point x="85" y="29"/>
      <point x="34" y="-11"/>
      <point x="34" y="-67" type="curve" smooth="yes"/>
      <point x="34" y="-117"/>
      <point x="72" y="-152"/>
      <point x="120" y="-152" type="curve" smooth="yes"/>
    </contour>
    <contour>
      <point x="150" y="112"/>
      <point x="151" y="165"/>
      <point x="151" y="193" type="curve" smooth="yes"/>
      <point x="151" y="433" type="line"/>
      <point x="134" y="417" type="line"/>
      <point x="158" y="367"/>
      <point x="238" y="344"/>
      <point x="318" y="329" type="curve" smooth="yes"/>
      <point x="355" y="322"/>
      <point x="376" y="313"/>
      <point x="376" y="286" type="curve" smooth="yes"/>
      <point x="376" y="235"/>
      <point x="258" y="112"/>
      <point x="188" y="112" type="curve" smooth="yes"/>
    </contour>
  </outline>
</glyph>
<glyph name="bCNya" format="1">
  <advance width="860"/>
  <outline>
    <contour>
      <point x="287" y="130"/>
      <point x="400" y="269"/>
      <point x="400" y="347" type="curve" smooth="yes"/>
      <point x="400" y="382"/>
      <point x="383" y="413"/>
      <point x="289" y="434" type="curve" smooth="yes"/>
      <point x="226" y="449"/>
      <point x="145" y="474"/>
      <point x="145" y="518" type="curve" smooth="yes"/>
      <point x="145" y="540"/>
      <point x="163" y="541"/>
      <point x="182" y="541" type="curve" smooth="yes"/>
      <point x="860" y="541" type="line" smooth="yes"/>
      <point x="874" y="541"/>
      <point x="886" y="552"/>
      <point x="886" y="565" type="curve" smooth="yes"/>
      <point x="886" y="577"/>
      <point x="874" y="587"/>
      <point x="860" y="587" type="curve" smooth="yes"/>
      <point x="166" y="587" type="line" smooth="yes"/>
      <point x="122" y="587"/>
      <point x="97" y="570"/>
      <point x="97" y="519" type="curve"/>
      <point x="109" y="520" type="line"/>
      <point x="109" y="556"/>
      <point x="83" y="587"/>
      <point x="36" y="587" type="curve" smooth="yes"/>
      <point x="-1" y="587" type="line" smooth="yes"/>
      <point x="-15" y="587"/>
      <point x="-27" y="577"/>
      <point x="-27" y="565" type="curve" smooth="yes"/>
      <point x="-27" y="552"/>
      <point x="-15" y="541"/>
      <point x="-1" y="541" type="curve" smooth="yes"/>
      <point x="40" y="541" type="line" smooth="yes"/>
      <point x="80" y="541"/>
      <point x="93" y="504"/>
      <point x="93" y="472" type="curve" smooth="yes"/>
      <point x="93" y="248" type="line" smooth="yes"/>
      <point x="93" y="169"/>
      <point x="125" y="130"/>
      <point x="176" y="130" type="curve" smooth="yes"/>
    </contour>
    <contour>
      <point x="584" y="-153"/>
      <point x="593" y="-138"/>
      <point x="593" y="-119" type="curve" smooth="yes"/>
      <point x="594" y="290" type="line" smooth="yes"/>
      <point x="594" y="357"/>
      <point x="581" y="401"/>
      <point x="520" y="401" type="curve" smooth="yes"/>
      <point x="405" y="401"/>
      <point x="274" y="263"/>
      <point x="274" y="156" type="curve" smooth="yes"/>
      <point x="274" y="96"/>
      <point x="312" y="62"/>
      <point x="360" y="62" type="curve" smooth="yes"/>
      <point x="407" y="62"/>
      <point x="448" y="90"/>
      <point x="448" y="142" type="curve" smooth="yes"/>
      <point x="448" y="188"/>
      <point x="411" y="221"/>
      <point x="368" y="221" type="curve" smooth="yes"/>
      <point x="349" y="221"/>
      <point x="330" y="214"/>
      <point x="314" y="200" type="curve"/>
      <point x="340" y="196" type="line"/>
      <point x="362" y="278"/>
      <point x="453" y="352"/>
      <point x="509" y="352" type="curve" smooth="yes"/>
      <point x="541" y="352"/>
      <point x="540" y="327"/>
      <point x="540" y="276" type="curve" smooth="yes"/>
      <point x="540" y="-73" type="line"/>
      <point x="560" y="-57" type="line"/>
      <point x="539" y="-20"/>
      <point x="495" y="7"/>
      <point x="436" y="7" type="curve" smooth="yes"/>
      <point x="348" y="7"/>
      <point x="271" y="-46"/>
      <point x="180" y="-46" type="curve" smooth="yes"/>
      <point x="142" y="-46"/>
      <point x="87" y="-31"/>
      <point x="87" y="34" type="curve" smooth="yes"/>
      <point x="87" y="79"/>
      <point x="104" y="95"/>
      <point x="104" y="116" type="curve" smooth="yes"/>
      <point x="104" y="132"/>
      <point x="93" y="138"/>
      <point x="82" y="138" type="curve" smooth="yes"/>
      <point x="54" y="138"/>
      <point x="31" y="95"/>
      <point x="31" y="39" type="curve" smooth="yes"/>
      <point x="31" y="-69"/>
      <point x="116" y="-107"/>
      <point x="184" y="-107" type="curve" smooth="yes"/>
      <point x="302" y="-107"/>
      <point x="367" y="-52"/>
      <point x="445" y="-52" type="curve" smooth="yes"/>
      <point x="482" y="-52"/>
      <point x="533" y="-61"/>
      <point x="537" y="-122" type="curve" smooth="yes"/>
      <point x="540" y="-138"/>
      <point x="550" y="-153"/>
      <point x="566" y="-153" type="curve" smooth="yes"/>
    </contour>
    <contour>
      <point x="169" y="183"/>
      <point x="147" y="193"/>
      <point x="147" y="252" type="curve" smooth="yes"/>
      <point x="147" y="479" type="line"/>
      <point x="122" y="460" type="line"/>
      <point x="149" y="414"/>
      <point x="249" y="389"/>
      <point x="286" y="380" type="curve" smooth="yes"/>
      <point x="323" y="371"/>
      <point x="345" y="359"/>
      <point x="345" y="335" type="curve" smooth="yes"/>
      <point x="345" y="286"/>
      <point x="248" y="183"/>
      <point x="190" y="183" type="curve" smooth="yes"/>
    </contour>
    <contour>
      <point x="343" y="107"/>
      <point x="326" y="123"/>
      <point x="326" y="143" type="curve" smooth="yes"/>
      <point x="326" y="164"/>
      <point x="342" y="180"/>
      <point x="363" y="180" type="curve" smooth="yes"/>
      <point x="383" y="180"/>
      <point x="399" y="164"/>
      <point x="399" y="143" type="curve" smooth="yes"/>
      <point x="399" y="123"/>
      <point x="383" y="107"/>
      <point x="363" y="107" type="curve" smooth="yes"/>
    </contour>
    <contour>
      <point x="803" y="-59"/>
      <point x="862" y="-15"/>
      <point x="862" y="57" type="curve" smooth="yes"/>
      <point x="862" y="123"/>
      <point x="810" y="188"/>
      <point x="746" y="188" type="curve" smooth="yes"/>
      <point x="713" y="188"/>
      <point x="687" y="165"/>
      <point x="687" y="134" type="curve" smooth="yes"/>
      <point x="687" y="104"/>
      <point x="711" y="84"/>
      <point x="745" y="84" type="curve" smooth="yes"/>
      <point x="807" y="84"/>
      <point x="857" y="164"/>
      <point x="857" y="228" type="curve" smooth="yes"/>
      <point x="857" y="284"/>
      <point x="811" y="340"/>
      <point x="736" y="340" type="curve" smooth="yes"/>
      <point x="625" y="340"/>
      <point x="556" y="226"/>
      <point x="556" y="136" type="curve" smooth="yes"/>
      <point x="556" y="42"/>
      <point x="632" y="-59"/>
      <point x="737" y="-59" type="curve" smooth="yes"/>
    </contour>
    <contour>
      <point x="662" y="-8"/>
      <point x="594" y="52"/>
      <point x="594" y="132" type="curve" smooth="yes"/>
      <point x="594" y="211"/>
      <point x="660" y="290"/>
      <point x="736" y="290" type="curve" smooth="yes"/>
      <point x="781" y="290"/>
      <point x="809" y="259"/>
      <point x="809" y="216" type="curve" smooth="yes"/>
      <point x="809" y="169"/>
      <point x="780" y="124"/>
      <point x="746" y="124" type="curve" smooth="yes"/>
      <point x="733" y="124"/>
      <point x="727" y="130"/>
      <point x="727" y="137" type="curve" smooth="yes"/>
      <point x="727" y="143"/>
      <point x="732" y="150"/>
      <point x="746" y="150" type="curve" smooth="yes"/>
      <point x="779" y="150"/>
      <point x="813" y="113"/>
      <point x="813" y="72" type="curve" smooth="yes"/>
      <point x="813" y="27"/>
      <point x="779" y="-8"/>
      <point x="728" y="-8" type="curve" smooth="yes"/>
    </contour>
  </outline>
</glyph>
<glyph name="bCRa" format="1">
  <advance width="500"/>
  <outline>
    <contour>
      <point x="328" y="18"/>
      <point x="471" y="182"/>
      <point x="471" y="290" type="curve" smooth="yes"/>
      <point x="471" y="343"/>
      <point x="437" y="363"/>
      <point x="364" y="378" type="curve" smooth="yes"/>
      <point x="251" y="401"/>
      <point x="186" y="418"/>
      <point x="186" y="495" type="curve" smooth="yes"/>
      <point x="186" y="537"/>
      <point x="208" y="542"/>
      <point x="238" y="542" type="curve" smooth="yes"/>
      <point x="500" y="541" type="line" smooth="yes"/>
      <point x="514" y="541"/>
      <point x="526" y="552"/>
      <point x="526" y="565" type="curve" smooth="yes"/>
      <point x="526" y="577"/>
      <point x="514" y="587"/>
      <point x="500" y="587" type="curve" smooth="yes"/>
      <point x="215" y="587" type="line" smooth="yes"/>
      <point x="166" y="587"/>
      <point x="138" y="559"/>
      <point x="138" y="516" type="curve"/>
      <point x="150" y="528" type="line"/>
      <point x="143" y="557"/>
      <point x="113" y="587"/>
      <point x="69" y="587" type="curve" smooth="yes"/>
      <point x="-1" y="587" type="line" smooth="yes"/>
      <point x="-15" y="587"/>
      <point x="-27" y="577"/>
      <point x="-27" y="565" type="curve" smooth="yes"/>
      <point x="-27" y="552"/>
      <point x="-15" y="541"/>
      <point x="-1" y="541" type="curve" smooth="yes"/>
      <point x="67" y="541" type="line" smooth="yes"/>
      <point x="138" y="541"/>
      <point x="132" y="458"/>
      <point x="132" y="397" type="curve" smooth="yes"/>
      <point x="131" y="150" type="line" smooth="yes"/>
      <point x="130" y="46"/>
      <point x="154" y="18"/>
      <point x="213" y="18" type="curve" smooth="yes"/>
    </contour>
    <contour>
      <point x="185" y="77"/>
      <point x="186" y="130"/>
      <point x="186" y="158" type="curve" smooth="yes"/>
      <point x="186" y="430" type="line"/>
      <point x="169" y="414" type="line"/>
      <point x="192" y="364"/>
      <point x="270" y="341"/>
      <point x="351" y="326" type="curve" smooth="yes"/>
      <point x="390" y="320"/>
      <point x="411" y="310"/>
      <point x="411" y="283" type="curve" smooth="yes"/>
      <point x="411" y="218"/>
      <point x="292" y="77"/>
      <point x="223" y="77" type="curve" smooth="yes"/>
    </contour>
    <contour>
      <point x="421" y="-175"/>
      <point x="432" y="-159"/>
      <point x="432" y="-140" type="curve" smooth="yes"/>
      <point x="432" y="207" type="line"/>
      <point x="378" y="164" type="line"/>
      <point x="378" y="-140" type="line" smooth="yes"/>
      <point x="378" y="-158"/>
      <point x="388" y="-175"/>
      <point x="406" y="-175" type="curve" smooth="yes"/>
    </contour>
    <contour>
      <point x="408" y="-122" type="line"/>
      <point x="397" y="-60"/>
      <point x="351" y="-23"/>
      <point x="302" y="-23" type="curve" smooth="yes"/>
      <point x="253" y="-23"/>
      <point x="195" y="-47"/>
      <point x="149" y="-47" type="curve" smooth="yes"/>
      <point x="114" y="-47"/>
      <point x="84" y="-27"/>
      <point x="84" y="12" type="curve" smooth="yes"/>
      <point x="84" y="36"/>
      <point x="95" y="59"/>
      <point x="95" y="73" type="curve" smooth="yes"/>
      <point x="95" y="85"/>
      <point x="87" y="94"/>
      <point x="75" y="94" type="curve" smooth="yes"/>
      <point x="47" y="94"/>
      <point x="35" y="48"/>
      <point x="35" y="16" type="curve" smooth="yes"/>
      <point x="35" y="-40"/>
      <point x="69" y="-98"/>
      <point x="155" y="-98" type="curve" smooth="yes"/>
      <point x="213" y="-98"/>
      <point x="273" y="-76"/>
      <point x="318" y="-76" type="curve" smooth="yes"/>
      <point x="348" y="-76"/>
      <point x="379" y="-97"/>
      <point x="379" y="-140" type="curve"/>
    </contour>
  </outline>
</glyph>
<glyph name="bCa" format="1">
  <advance width="465"/>
  <outline>
    <contour>
      <point x="293" y="-12"/>
      <point x="436" y="187"/>
      <point x="436" y="285" type="curve" smooth="yes"/>
      <point x="436" y="338"/>
      <point x="402" y="358"/>
      <point x="329" y="373" type="curve" smooth="yes"/>
      <point x="216" y="396"/>
      <point x="151" y="416"/>
      <point x="151" y="492" type="curve" smooth="yes"/>
      <point x="151" y="537"/>
      <point x="174" y="542"/>
      <point x="207" y="542" type="curve" smooth="yes"/>
      <point x="465" y="541" type="line" smooth="yes"/>
      <point x="479" y="541"/>
      <point x="491" y="552"/>
      <point x="491" y="565" type="curve" smooth="yes"/>
      <point x="491" y="577"/>
      <point x="479" y="587"/>
      <point x="465" y="587" type="curve" smooth="yes"/>
      <point x="180" y="587" type="line" smooth="yes"/>
      <point x="131" y="587"/>
      <point x="103" y="559"/>
      <point x="103" y="516" type="curve"/>
      <point x="115" y="528" type="line"/>
      <point x="108" y="557"/>
      <point x="78" y="587"/>
      <point x="34" y="587" type="curve" smooth="yes"/>
      <point x="-1" y="587" type="line" smooth="yes"/>
      <point x="-15" y="587"/>
      <point x="-27" y="577"/>
      <point x="-27" y="565" type="curve" smooth="yes"/>
      <point x="-27" y="552"/>
      <point x="-15" y="541"/>
      <point x="-1" y="541" type="curve" smooth="yes"/>
      <point x="32" y="541" type="line" smooth="yes"/>
      <point x="91" y="541"/>
      <point x="97" y="487"/>
      <point x="97" y="433" type="curve" smooth="yes"/>
      <point x="96" y="126" type="line" smooth="yes"/>
      <point x="95" y="35"/>
      <point x="119" y="-12"/>
      <point x="181" y="-12" type="curve" smooth="yes"/>
    </contour>
    <contour>
      <point x="150" y="50"/>
      <point x="151" y="103"/>
      <point x="151" y="131" type="curve" smooth="yes"/>
      <point x="151" y="428" type="line"/>
      <point x="134" y="412" type="line"/>
      <point x="158" y="362"/>
      <point x="238" y="339"/>
      <point x="318" y="324" type="curve" smooth="yes"/>
      <point x="355" y="317"/>
      <point x="376" y="305"/>
      <point x="376" y="279" type="curve" smooth="yes"/>
      <point x="376" y="214"/>
      <point x="258" y="50"/>
      <point x="188" y="50" type="curve" smooth="yes"/>
    </contour>
  </outline>
</glyph>
<glyph name="bChBa" format="1">
  <advance width="500"/>
  <outline>
    <contour>
      <point x="505" y="7"/>
      <point x="516" y="19"/>
      <point x="516" y="32" type="curve" smooth="yes"/>
      <point x="516" y="43"/>
      <point x="507" y="54"/>
      <point x="487" y="56" type="curve" smooth="yes"/>
      <point x="446" y="58"/>
      <point x="384" y="66"/>
      <point x="319" y="116" type="curve" smooth="yes"/>
      <point x="275" y="151"/>
      <point x="225" y="180"/>
      <point x="185" y="180" type="curve" smooth="yes"/>
      <point x="139" y="180"/>
      <point x="115" y="153"/>
      <point x="115" y="122" type="curve" smooth="yes"/>
      <point x="115" y="83"/>
      <point x="154" y="60"/>
      <point x="199" y="60" type="curve" smooth="yes"/>
      <point x="315" y="60"/>
      <point x="459" y="163"/>
      <point x="459" y="291" type="curve" smooth="yes"/>
      <point x="459" y="382"/>
      <point x="389" y="453"/>
      <point x="283" y="453" type="curve" smooth="yes"/>
      <point x="215" y="453"/>
      <point x="153" y="470"/>
      <point x="153" y="506" type="curve" smooth="yes"/>
      <point x="153" y="538"/>
      <point x="171" y="541"/>
      <point x="199" y="541" type="curve" smooth="yes"/>
      <point x="500" y="541" type="line" smooth="yes"/>
      <point x="514" y="541"/>
      <point x="526" y="552"/>
      <point x="526" y="565" type="curve" smooth="yes"/>
      <point x="526" y="577"/>
      <point x="514" y="587"/>
      <point x="500" y="587" type="curve" smooth="yes"/>
      <point x="183" y="587" type="line" smooth="yes"/>
      <point x="128" y="587"/>
      <point x="107" y="567"/>
      <point x="107" y="514" type="curve"/>
      <point x="121" y="524" type="line"/>
      <point x="111" y="560"/>
      <point x="87" y="587"/>
      <point x="31" y="587" type="curve" smooth="yes"/>
      <point x="-1" y="587" type="line" smooth="yes"/>
      <point x="-15" y="587"/>
      <point x="-27" y="577"/>
      <point x="-27" y="565" type="curve" smooth="yes"/>
      <point x="-27" y="552"/>
      <point x="-15" y="541"/>
      <point x="-1" y="541" type="curve" smooth="yes"/>
      <point x="35" y="541" type="line" smooth="yes"/>
      <point x="87" y="541"/>
      <point x="100" y="507"/>
      <point x="100" y="475" type="curve" smooth="yes"/>
      <point x="98" y="305" type="line" smooth="yes"/>
      <point x="98" y="237"/>
      <point x="130" y="211"/>
      <point x="185" y="211" type="curve" smooth="yes"/>
      <point x="273" y="211"/>
      <point x="389" y="333"/>
      <point x="356" y="406" type="curve"/>
      <point x="341" y="404" type="line"/>
      <point x="393" y="378"/>
      <point x="410" y="342"/>
      <point x="410" y="298" type="curve" smooth="yes"/>
      <point x="410" y="207"/>
      <point x="290" y="112"/>
      <point x="198" y="112" type="curve" smooth="yes"/>
      <point x="178" y="112"/>
      <point x="168" y="120"/>
      <point x="168" y="126" type="curve" smooth="yes"/>
      <point x="168" y="131"/>
      <point x="173" y="134"/>
      <point x="181" y="134" type="curve" smooth="yes"/>
      <point x="200" y="134"/>
      <point x="239" y="112"/>
      <point x="266" y="91" type="curve" smooth="yes"/>
      <point x="339" y="35"/>
      <point x="434" y="7"/>
      <point x="485" y="7" type="curve" smooth="yes"/>
    </contour>
    <contour>
      <point x="413" y="-138" type="line"/>
      <point x="384" y="-69"/>
      <point x="280" y="-33"/>
      <point x="231" y="-33" type="curve"/>
      <point x="244" y="-49" type="line"/>
      <point x="405" y="37" type="line"/>
      <point x="378" y="73" type="line"/>
      <point x="231" y="-5" type="line" smooth="yes"/>
      <point x="210" y="-16"/>
      <point x="197" y="-24"/>
      <point x="197" y="-41" type="curve" smooth="yes"/>
      <point x="197" y="-55"/>
      <point x="206" y="-64"/>
      <point x="224" y="-69" type="curve" smooth="yes"/>
      <point x="294" y="-85"/>
      <point x="379" y="-118"/>
      <point x="382" y="-151" type="curve"/>
    </contour>
    <contour>
      <point x="424" y="-179"/>
      <point x="433" y="-165"/>
      <point x="433" y="-147" type="curve" smooth="yes"/>
      <point x="433" y="56" type="line"/>
      <point x="382" y="54" type="line"/>
      <point x="382" y="-147" type="line" smooth="yes"/>
      <point x="382" y="-165"/>
      <point x="394" y="-179"/>
      <point x="409" y="-179" type="curve" smooth="yes"/>
    </contour>
    <contour>
      <point x="160" y="258"/>
      <point x="152" y="277"/>
      <point x="152" y="315" type="curve" smooth="yes"/>
      <point x="152" y="471" type="line"/>
      <point x="137" y="461" type="line"/>
      <point x="151" y="423"/>
      <point x="208" y="410"/>
      <point x="254" y="410" type="curve" smooth="yes"/>
      <point x="292" y="410"/>
      <point x="317" y="407"/>
      <point x="317" y="379" type="curve" smooth="yes"/>
      <point x="317" y="335"/>
      <point x="236" y="258"/>
      <point x="186" y="258" type="curve" smooth="yes"/>
    </contour>
  </outline>
</glyph>
<glyph name="bChRa" format="1">
  <advance width="548"/>
  <outline>
    <contour>
      <point x="511" y="-15"/>
      <point x="524" y="-3"/>
      <point x="524" y="11" type="curve" smooth="yes"/>
      <point x="524" y="22"/>
      <point x="515" y="34"/>
      <point x="495" y="34" type="curve" smooth="yes"/>
      <point x="454" y="34"/>
      <point x="390" y="54"/>
      <point x="327" y="97" type="curve" smooth="yes"/>
      <point x="280" y="129"/>
      <point x="233" y="161"/>
      <point x="193" y="161" type="curve" smooth="yes"/>
      <point x="147" y="161"/>
      <point x="123" y="134"/>
      <point x="123" y="103" type="curve" smooth="yes"/>
      <point x="123" y="64"/>
      <point x="162" y="41"/>
      <point x="207" y="41" type="curve" smooth="yes"/>
      <point x="323" y="41"/>
      <point x="467" y="139"/>
      <point x="467" y="268" type="curve" smooth="yes"/>
      <point x="467" y="355"/>
      <point x="397" y="432"/>
      <point x="291" y="432" type="curve" smooth="yes"/>
      <point x="223" y="432"/>
      <point x="161" y="457"/>
      <point x="161" y="506" type="curve" smooth="yes"/>
      <point x="161" y="538"/>
      <point x="179" y="541"/>
      <point x="207" y="541" type="curve" smooth="yes"/>
      <point x="548" y="541" type="line" smooth="yes"/>
      <point x="562" y="541"/>
      <point x="574" y="552"/>
      <point x="574" y="565" type="curve" smooth="yes"/>
      <point x="574" y="577"/>
      <point x="562" y="587"/>
      <point x="548" y="587" type="curve" smooth="yes"/>
      <point x="191" y="587" type="line" smooth="yes"/>
      <point x="136" y="587"/>
      <point x="115" y="567"/>
      <point x="115" y="514" type="curve"/>
      <point x="129" y="524" type="line"/>
      <point x="119" y="560"/>
      <point x="95" y="587"/>
      <point x="39" y="587" type="curve" smooth="yes"/>
      <point x="-1" y="587" type="line" smooth="yes"/>
      <point x="-15" y="587"/>
      <point x="-27" y="577"/>
      <point x="-27" y="565" type="curve" smooth="yes"/>
      <point x="-27" y="552"/>
      <point x="-15" y="541"/>
      <point x="-1" y="541" type="curve" smooth="yes"/>
      <point x="43" y="541" type="line" smooth="yes"/>
      <point x="95" y="541"/>
      <point x="108" y="507"/>
      <point x="108" y="475" type="curve" smooth="yes"/>
      <point x="106" y="278" type="line" smooth="yes"/>
      <point x="106" y="210"/>
      <point x="138" y="184"/>
      <point x="193" y="184" type="curve" smooth="yes"/>
      <point x="281" y="184"/>
      <point x="401" y="313"/>
      <point x="365" y="386" type="curve"/>
      <point x="348" y="379" type="line"/>
      <point x="402" y="352"/>
      <point x="418" y="316"/>
      <point x="418" y="274" type="curve" smooth="yes"/>
      <point x="418" y="178"/>
      <point x="298" y="93"/>
      <point x="206" y="93" type="curve" smooth="yes"/>
      <point x="186" y="93"/>
      <point x="176" y="101"/>
      <point x="176" y="107" type="curve" smooth="yes"/>
      <point x="176" y="112"/>
      <point x="181" y="115"/>
      <point x="189" y="115" type="curve" smooth="yes"/>
      <point x="208" y="115"/>
      <point x="245" y="91"/>
      <point x="277" y="70" type="curve" smooth="yes"/>
      <point x="349" y="23"/>
      <point x="442" y="-15"/>
      <point x="491" y="-15" type="curve" smooth="yes"/>
    </contour>
    <contour>
      <point x="168" y="231"/>
      <point x="160" y="250"/>
      <point x="160" y="288" type="curve" smooth="yes"/>
      <point x="160" y="471" type="line"/>
      <point x="145" y="461" type="line"/>
      <point x="159" y="402"/>
      <point x="216" y="388"/>
      <point x="262" y="388" type="curve" smooth="yes"/>
      <point x="300" y="388"/>
      <point x="325" y="380"/>
      <point x="325" y="352" type="curve" smooth="yes"/>
      <point x="325" y="308"/>
      <point x="244" y="231"/>
      <point x="194" y="231" type="curve" smooth="yes"/>
    </contour>
    <contour>
      <point x="412" y="-100" type="line"/>
      <point x="399" y="-35"/>
      <point x="348" y="-5"/>
      <point x="297" y="-5" type="curve" smooth="yes"/>
      <point x="246" y="-5"/>
      <point x="190" y="-29"/>
      <point x="143" y="-29" type="curve" smooth="yes"/>
      <point x="107" y="-29"/>
      <point x="77" y="-9"/>
      <point x="77" y="30" type="curve" smooth="yes"/>
      <point x="77" y="53"/>
      <point x="88" y="77"/>
      <point x="88" y="91" type="curve" smooth="yes"/>
      <point x="88" y="103"/>
      <point x="80" y="112"/>
      <point x="68" y="112" type="curve" smooth="yes"/>
      <point x="40" y="112"/>
      <point x="28" y="66"/>
      <point x="28" y="34" type="curve" smooth="yes"/>
      <point x="28" y="-26"/>
      <point x="66" y="-81"/>
      <point x="149" y="-81" type="curve" smooth="yes"/>
      <point x="214" y="-81"/>
      <point x="265" y="-57"/>
      <point x="308" y="-57" type="curve" smooth="yes"/>
      <point x="346" y="-57"/>
      <point x="379" y="-77"/>
      <point x="379" y="-120" type="curve"/>
    </contour>
    <contour>
      <point x="422" y="-155"/>
      <point x="433" y="-139"/>
      <point x="433" y="-119" type="curve" smooth="yes"/>
      <point x="433" y="35" type="line"/>
      <point x="379" y="35" type="line"/>
      <point x="379" y="-120" type="line" smooth="yes"/>
      <point x="379" y="-137"/>
      <point x="389" y="-155"/>
      <point x="407" y="-155" type="curve" smooth="yes"/>
    </contour>
  </outline>
</glyph>
<glyph name="bCha" format="1">
  <advance width="500"/>
  <outline>
    <contour>
      <point x="510" y="-82"/>
      <point x="521" y="-71"/>
      <point x="521" y="-58" type="curve" smooth="yes"/>
      <point x="521" y="-46"/>
      <point x="512" y="-36"/>
      <point x="492" y="-34" type="curve" smooth="yes"/>
      <point x="451" y="-32"/>
      <point x="391" y="35"/>
      <point x="326" y="87" type="curve" smooth="yes"/>
      <point x="284" y="123"/>
      <point x="233" y="154"/>
      <point x="193" y="154" type="curve" smooth="yes"/>
      <point x="147" y="154"/>
      <point x="122" y="126"/>
      <point x="122" y="95" type="curve" smooth="yes"/>
      <point x="122" y="57"/>
      <point x="161" y="34"/>
      <point x="207" y="34" type="curve" smooth="yes"/>
      <point x="322" y="34"/>
      <point x="459" y="136"/>
      <point x="459" y="264" type="curve" smooth="yes"/>
      <point x="459" y="355"/>
      <point x="389" y="432"/>
      <point x="283" y="432" type="curve" smooth="yes"/>
      <point x="211" y="432"/>
      <point x="153" y="457"/>
      <point x="153" y="506" type="curve" smooth="yes"/>
      <point x="153" y="538"/>
      <point x="171" y="541"/>
      <point x="199" y="541" type="curve" smooth="yes"/>
      <point x="500" y="541" type="line" smooth="yes"/>
      <point x="514" y="541"/>
      <point x="526" y="552"/>
      <point x="526" y="565" type="curve" smooth="yes"/>
      <point x="526" y="577"/>
      <point x="514" y="587"/>
      <point x="500" y="587" type="curve" smooth="yes"/>
      <point x="181" y="587" type="line" smooth="yes"/>
      <point x="125" y="587"/>
      <point x="104" y="567"/>
      <point x="104" y="514" type="curve"/>
      <point x="121" y="524" type="line"/>
      <point x="111" y="560"/>
      <point x="87" y="587"/>
      <point x="31" y="587" type="curve" smooth="yes"/>
      <point x="-1" y="587" type="line" smooth="yes"/>
      <point x="-15" y="587"/>
      <point x="-27" y="577"/>
      <point x="-27" y="565" type="curve" smooth="yes"/>
      <point x="-27" y="552"/>
      <point x="-15" y="541"/>
      <point x="-1" y="541" type="curve" smooth="yes"/>
      <point x="35" y="541" type="line" smooth="yes"/>
      <point x="87" y="541"/>
      <point x="100" y="507"/>
      <point x="100" y="475" type="curve" smooth="yes"/>
      <point x="98" y="278" type="line" smooth="yes"/>
      <point x="98" y="210"/>
      <point x="130" y="184"/>
      <point x="185" y="184" type="curve" smooth="yes"/>
      <point x="267" y="184"/>
      <point x="361" y="286"/>
      <point x="361" y="357" type="curve" smooth="yes"/>
      <point x="361" y="386"/>
      <point x="342" y="401"/>
      <point x="332" y="401" type="curve"/>
      <point x="334" y="382" type="line"/>
      <point x="388" y="361"/>
      <point x="410" y="321"/>
      <point x="410" y="271" type="curve" smooth="yes"/>
      <point x="410" y="180"/>
      <point x="297" y="85"/>
      <point x="205" y="85" type="curve" smooth="yes"/>
      <point x="186" y="85"/>
      <point x="175" y="93"/>
      <point x="175" y="99" type="curve" smooth="yes"/>
      <point x="175" y="104"/>
      <point x="180" y="107"/>
      <point x="189" y="107" type="curve" smooth="yes"/>
      <point x="208" y="107"/>
      <point x="248" y="84"/>
      <point x="274" y="62" type="curve" smooth="yes"/>
      <point x="345" y="5"/>
      <point x="434" y="-82"/>
      <point x="492" y="-82" type="curve" smooth="yes"/>
    </contour>
    <contour>
      <point x="160" y="231"/>
      <point x="152" y="250"/>
      <point x="152" y="288" type="curve" smooth="yes"/>
      <point x="152" y="471" type="line"/>
      <point x="137" y="462" type="line"/>
      <point x="151" y="405"/>
      <point x="208" y="389"/>
      <point x="254" y="389" type="curve" smooth="yes"/>
      <point x="292" y="389"/>
      <point x="314" y="380"/>
      <point x="314" y="352" type="curve" smooth="yes"/>
      <point x="314" y="308"/>
      <point x="236" y="231"/>
      <point x="186" y="231" type="curve" smooth="yes"/>
    </contour>
  </outline>
</glyph>
<glyph name="bDBa" format="1">
  <advance width="528"/>
  <outline>
    <contour>
      <point x="427" y="-82"/>
      <point x="436" y="-65"/>
      <point x="436" y="-42" type="curve" smooth="yes"/>
      <point x="434" y="120"/>
      <point x="425" y="169"/>
      <point x="425" y="235" type="curve" smooth="yes"/>
      <point x="425" y="317"/>
      <point x="451" y="383"/>
      <point x="451" y="414" type="curve" smooth="yes"/>
      <point x="451" y="427"/>
      <point x="445" y="441"/>
      <point x="427" y="441" type="curve" smooth="yes"/>
      <point x="387" y="441"/>
      <point x="230" y="354"/>
      <point x="115" y="259" type="curve"/>
      <point x="140" y="237" type="line"/>
      <point x="140" y="444" type="line" smooth="yes"/>
      <point x="140" y="487"/>
      <point x="141" y="541"/>
      <point x="190" y="541" type="curve" smooth="yes"/>
      <point x="528" y="541" type="line" smooth="yes"/>
      <point x="542" y="541"/>
      <point x="554" y="552"/>
      <point x="554" y="565" type="curve" smooth="yes"/>
      <point x="554" y="577"/>
      <point x="542" y="587"/>
      <point x="528" y="587" type="curve" smooth="yes"/>
      <point x="171" y="587" type="line" smooth="yes"/>
      <point x="129" y="587"/>
      <point x="98" y="561"/>
      <point x="97" y="520" type="curve"/>
      <point x="111" y="528" type="line"/>
      <point x="111" y="560"/>
      <point x="73" y="587"/>
      <point x="30" y="587" type="curve" smooth="yes"/>
      <point x="-1" y="587" type="line" smooth="yes"/>
      <point x="-15" y="587"/>
      <point x="-27" y="577"/>
      <point x="-27" y="565" type="curve" smooth="yes"/>
      <point x="-27" y="552"/>
      <point x="-15" y="541"/>
      <point x="-1" y="541" type="curve" smooth="yes"/>
      <point x="29" y="541" type="line" smooth="yes"/>
      <point x="90" y="541"/>
      <point x="87" y="486"/>
      <point x="87" y="449" type="curve" smooth="yes"/>
      <point x="87" y="220" type="line" smooth="yes"/>
      <point x="87" y="193"/>
      <point x="98" y="186"/>
      <point x="111" y="187" type="curve" smooth="yes"/>
      <point x="127" y="188"/>
      <point x="136" y="198"/>
      <point x="171" y="226" type="curve" smooth="yes"/>
      <point x="237" y="279"/>
      <point x="343" y="355"/>
      <point x="417" y="382" type="curve"/>
      <point x="413" y="404" type="line"/>
      <point x="379" y="357"/>
      <point x="373" y="294"/>
      <point x="373" y="240" type="curve" smooth="yes"/>
      <point x="373" y="167"/>
      <point x="380" y="137"/>
      <point x="383" y="-43" type="curve" smooth="yes"/>
      <point x="383" y="-67"/>
      <point x="394" y="-82"/>
      <point x="410" y="-82" type="curve" smooth="yes"/>
    </contour>
    <contour>
      <point x="413" y="-8" type="line"/>
      <point x="376" y="59"/>
      <point x="258" y="121"/>
      <point x="195" y="118" type="curve"/>
      <point x="204" y="98" type="line"/>
      <point x="403" y="220" type="line"/>
      <point x="403" y="284" type="line"/>
      <point x="197" y="160" type="line" smooth="yes"/>
      <point x="165" y="141"/>
      <point x="151" y="131"/>
      <point x="151" y="112" type="curve" smooth="yes"/>
      <point x="151" y="93"/>
      <point x="162" y="83"/>
      <point x="180" y="79" type="curve" smooth="yes"/>
      <point x="309" y="42"/>
      <point x="382" y="-11"/>
      <point x="383" y="-43" type="curve"/>
    </contour>
  </outline>
</glyph>
<glyph name="bDBhRa" format="1">
  <advance width="571"/>
  <outline>
    <contour>
      <point x="396" y="174" type="line"/>
      <point x="392" y="223"/>
      <point x="375" y="267"/>
      <point x="375" y="327" type="curve" smooth="yes"/>
      <point x="375" y="396"/>
      <point x="413" y="440"/>
      <point x="413" y="471" type="curve" smooth="yes"/>
      <point x="413" y="485"/>
      <point x="407" y="498"/>
      <point x="388" y="498" type="curve" smooth="yes"/>
      <point x="349" y="498"/>
      <point x="212" y="427"/>
      <point x="141" y="371" type="curve"/>
      <point x="169" y="352" type="line"/>
      <point x="169" y="450" type="line" smooth="yes"/>
      <point x="169" y="487"/>
      <point x="170" y="541"/>
      <point x="219" y="541" type="curve" smooth="yes"/>
      <point x="564" y="541" type="line" smooth="yes"/>
      <point x="579" y="541"/>
      <point x="590" y="552"/>
      <point x="590" y="565" type="curve" smooth="yes"/>
      <point x="590" y="577"/>
      <point x="579" y="587"/>
      <point x="564" y="587" type="curve" smooth="yes"/>
      <point x="200" y="587" type="line" smooth="yes"/>
      <point x="158" y="587"/>
      <point x="127" y="561"/>
      <point x="126" y="520" type="curve"/>
      <point x="140" y="528" type="line"/>
      <point x="140" y="560"/>
      <point x="102" y="587"/>
      <point x="59" y="587" type="curve" smooth="yes"/>
      <point x="-8" y="587" type="line" smooth="yes"/>
      <point x="-22" y="587"/>
      <point x="-34" y="577"/>
      <point x="-34" y="565" type="curve" smooth="yes"/>
      <point x="-34" y="552"/>
      <point x="-22" y="541"/>
      <point x="-8" y="541" type="curve" smooth="yes"/>
      <point x="58" y="541" type="line" smooth="yes"/>
      <point x="119" y="541"/>
      <point x="116" y="486"/>
      <point x="116" y="449" type="curve" smooth="yes"/>
      <point x="116" y="338" type="line" smooth="yes"/>
      <point x="116" y="314"/>
      <point x="128" y="307"/>
      <point x="138" y="307" type="curve" smooth="yes"/>
      <point x="153" y="307"/>
      <point x="166" y="320"/>
      <point x="190" y="336" type="curve" smooth="yes"/>
      <point x="235" y="371"/>
      <point x="310" y="417"/>
      <point x="382" y="444" type="curve"/>
      <point x="372" y="463" type="line"/>
      <point x="339" y="416"/>
      <point x="327" y="374"/>
      <point x="327" y="327" type="curve" smooth="yes"/>
      <point x="327" y="282"/>
      <point x="346" y="227"/>
      <point x="349" y="151" type="curve"/>
    </contour>
    <contour>
      <point x="502" y="-64"/>
      <point x="510" y="-47"/>
      <point x="510" y="-29" type="curve" smooth="yes"/>
      <point x="510" y="131" type="line" smooth="yes"/>
      <point x="510" y="218"/>
      <point x="474" y="289"/>
      <point x="438" y="289" type="curve" smooth="yes"/>
      <point x="420" y="289"/>
      <point x="411" y="275"/>
      <point x="408" y="250" type="curve" smooth="yes"/>
      <point x="403" y="209"/>
      <point x="367" y="157"/>
      <point x="300" y="157" type="curve" smooth="yes"/>
      <point x="274" y="157"/>
      <point x="239" y="168"/>
      <point x="214" y="189" type="curve"/>
      <point x="186" y="187" type="line"/>
      <point x="203" y="171"/>
      <point x="222" y="163"/>
      <point x="241" y="163" type="curve" smooth="yes"/>
      <point x="290" y="163"/>
      <point x="315" y="203"/>
      <point x="315" y="236" type="curve" smooth="yes"/>
      <point x="315" y="277"/>
      <point x="286" y="315"/>
      <point x="239" y="315" type="curve" smooth="yes"/>
      <point x="199" y="315"/>
      <point x="155" y="285"/>
      <point x="155" y="232" type="curve" smooth="yes"/>
      <point x="155" y="171"/>
      <point x="217" y="109"/>
      <point x="304" y="109" type="curve" smooth="yes"/>
      <point x="415" y="109"/>
      <point x="446" y="213"/>
      <point x="446" y="238" type="curve"/>
      <point x="428" y="231" type="line"/>
      <point x="449" y="213"/>
      <point x="457" y="170"/>
      <point x="457" y="129" type="curve" smooth="yes"/>
      <point x="457" y="-5" type="line"/>
      <point x="473" y="-14" type="line"/>
      <point x="466" y="34"/>
      <point x="407" y="56"/>
      <point x="355" y="56" type="curve" smooth="yes"/>
      <point x="303" y="56"/>
      <point x="227" y="34"/>
      <point x="183" y="34" type="curve" smooth="yes"/>
      <point x="141" y="34"/>
      <point x="113" y="53"/>
      <point x="113" y="93" type="curve" smooth="yes"/>
      <point x="113" y="117"/>
      <point x="122" y="142"/>
      <point x="122" y="156" type="curve" smooth="yes"/>
      <point x="122" y="166"/>
      <point x="116" y="175"/>
      <point x="103" y="175" type="curve" smooth="yes"/>
      <point x="73" y="175"/>
      <point x="63" y="127"/>
      <point x="63" y="97" type="curve" smooth="yes"/>
      <point x="63" y="39"/>
      <point x="99" y="-20"/>
      <point x="181" y="-20" type="curve" smooth="yes"/>
      <point x="233" y="-20"/>
      <point x="322" y="3"/>
      <point x="370" y="3" type="curve" smooth="yes"/>
      <point x="410" y="3"/>
      <point x="451" y="-16"/>
      <point x="454" y="-39" type="curve" smooth="yes"/>
      <point x="457" y="-52"/>
      <point x="466" y="-64"/>
      <point x="482" y="-64" type="curve" smooth="yes"/>
    </contour>
    <contour>
      <point x="220" y="196"/>
      <point x="201" y="209"/>
      <point x="201" y="232" type="curve" smooth="yes"/>
      <point x="201" y="255"/>
      <point x="220" y="267"/>
      <point x="237" y="267" type="curve" smooth="yes"/>
      <point x="254" y="267"/>
      <point x="272" y="255"/>
      <point x="272" y="231" type="curve" smooth="yes"/>
      <point x="272" y="208"/>
      <point x="253" y="196"/>
      <point x="237" y="196" type="curve" smooth="yes"/>
    </contour>
  </outline>
</glyph>
<glyph name="bDBha" format="1">
  <advance width="571"/>
  <outline>
    <contour>
      <point x="440" y="174" type="line"/>
      <point x="437" y="223"/>
      <point x="420" y="267"/>
      <point x="420" y="325" type="curve" smooth="yes"/>
      <point x="420" y="396"/>
      <point x="457" y="440"/>
      <point x="457" y="471" type="curve" smooth="yes"/>
      <point x="457" y="485"/>
      <point x="451" y="498"/>
      <point x="433" y="498" type="curve" smooth="yes"/>
      <point x="393" y="498"/>
      <point x="256" y="427"/>
      <point x="186" y="371" type="curve"/>
      <point x="214" y="352" type="line"/>
      <point x="214" y="450" type="line" smooth="yes"/>
      <point x="214" y="487"/>
      <point x="214" y="541"/>
      <point x="263" y="541" type="curve" smooth="yes"/>
      <point x="599" y="541" type="line" smooth="yes"/>
      <point x="613" y="541"/>
      <point x="625" y="552"/>
      <point x="625" y="565" type="curve" smooth="yes"/>
      <point x="625" y="577"/>
      <point x="613" y="587"/>
      <point x="599" y="587" type="curve" smooth="yes"/>
      <point x="244" y="587" type="line" smooth="yes"/>
      <point x="202" y="587"/>
      <point x="171" y="561"/>
      <point x="170" y="520" type="curve"/>
      <point x="184" y="528" type="line"/>
      <point x="185" y="560"/>
      <point x="147" y="587"/>
      <point x="104" y="587" type="curve" smooth="yes"/>
      <point x="-1" y="587" type="line" smooth="yes"/>
      <point x="-15" y="587"/>
      <point x="-27" y="577"/>
      <point x="-27" y="565" type="curve" smooth="yes"/>
      <point x="-27" y="552"/>
      <point x="-15" y="541"/>
      <point x="-1" y="541" type="curve" smooth="yes"/>
      <point x="103" y="541" type="line" smooth="yes"/>
      <point x="164" y="541"/>
      <point x="160" y="486"/>
      <point x="160" y="449" type="curve" smooth="yes"/>
      <point x="160" y="338" type="line" smooth="yes"/>
      <point x="160" y="314"/>
      <point x="172" y="307"/>
      <point x="182" y="307" type="curve" smooth="yes"/>
      <point x="198" y="307"/>
      <point x="211" y="320"/>
      <point x="234" y="336" type="curve" smooth="yes"/>
      <point x="279" y="371"/>
      <point x="354" y="417"/>
      <point x="427" y="444" type="curve"/>
      <point x="416" y="463" type="line"/>
      <point x="385" y="417"/>
      <point x="373" y="376"/>
      <point x="373" y="329" type="curve" smooth="yes"/>
      <point x="373" y="279"/>
      <point x="390" y="234"/>
      <point x="393" y="151" type="curve"/>
    </contour>
    <contour>
      <point x="478" y="-39"/>
      <point x="553" y="48"/>
      <point x="553" y="148" type="curve" smooth="yes"/>
      <point x="553" y="221"/>
      <point x="517" y="289"/>
      <point x="483" y="289" type="curve" smooth="yes"/>
      <point x="466" y="289"/>
      <point x="457" y="275"/>
      <point x="456" y="252" type="curve" smooth="yes"/>
      <point x="453" y="215"/>
      <point x="416" y="160"/>
      <point x="348" y="160" type="curve" smooth="yes"/>
      <point x="319" y="160"/>
      <point x="284" y="168"/>
      <point x="258" y="189" type="curve"/>
      <point x="231" y="187" type="line"/>
      <point x="247" y="171"/>
      <point x="267" y="163"/>
      <point x="286" y="163" type="curve" smooth="yes"/>
      <point x="335" y="163"/>
      <point x="360" y="203"/>
      <point x="360" y="236" type="curve" smooth="yes"/>
      <point x="360" y="277"/>
      <point x="331" y="315"/>
      <point x="284" y="315" type="curve" smooth="yes"/>
      <point x="244" y="315"/>
      <point x="200" y="285"/>
      <point x="200" y="232" type="curve" smooth="yes"/>
      <point x="200" y="171"/>
      <point x="261" y="109"/>
      <point x="350" y="109" type="curve" smooth="yes"/>
      <point x="460" y="109"/>
      <point x="492" y="204"/>
      <point x="492" y="235" type="curve"/>
      <point x="477" y="230" type="line"/>
      <point x="494" y="213"/>
      <point x="504" y="179"/>
      <point x="504" y="149" type="curve" smooth="yes"/>
      <point x="504" y="70"/>
      <point x="441" y="22"/>
      <point x="355" y="22" type="curve" smooth="yes"/>
      <point x="160" y="22"/>
      <point x="78" y="285"/>
      <point x="52" y="435" type="curve" smooth="yes"/>
      <point x="50" y="452"/>
      <point x="44" y="464"/>
      <point x="28" y="464" type="curve" smooth="yes"/>
      <point x="11" y="464"/>
      <point x="7" y="449"/>
      <point x="7" y="434" type="curve" smooth="yes"/>
      <point x="7" y="342"/>
      <point x="96" y="-39"/>
      <point x="354" y="-39" type="curve" smooth="yes"/>
    </contour>
    <contour>
      <point x="265" y="196"/>
      <point x="246" y="209"/>
      <point x="246" y="232" type="curve" smooth="yes"/>
      <point x="246" y="255"/>
      <point x="265" y="267"/>
      <point x="282" y="267" type="curve" smooth="yes"/>
      <point x="299" y="267"/>
      <point x="317" y="255"/>
      <point x="317" y="231" type="curve" smooth="yes"/>
      <point x="317" y="208"/>
      <point x="298" y="196"/>
      <point x="282" y="196" type="curve" smooth="yes"/>
    </contour>
  </outline>
</glyph>
<glyph name="bDDBa" format="1">
  <advance width="692"/>
  <outline>
    <contour>
      <point x="623" y="-140"/>
      <point x="631" y="-124"/>
      <point x="631" y="-106" type="curve" smooth="yes"/>
      <point x="631" y="75"/>
      <point x="617" y="108"/>
      <point x="617" y="197" type="curve" smooth="yes"/>
      <point x="617" y="299"/>
      <point x="646" y="345"/>
      <point x="646" y="376" type="curve" smooth="yes"/>
      <point x="646" y="390"/>
      <point x="641" y="404"/>
      <point x="622" y="404" type="curve" smooth="yes"/>
      <point x="582" y="404"/>
      <point x="454" y="295"/>
      <point x="355" y="197" type="curve"/>
      <point x="383" y="185" type="line"/>
      <point x="383" y="291" type="line" smooth="yes"/>
      <point x="383" y="398"/>
      <point x="414" y="419"/>
      <point x="414" y="449" type="curve" smooth="yes"/>
      <point x="414" y="462"/>
      <point x="408" y="477"/>
      <point x="389" y="477" type="curve" smooth="yes"/>
      <point x="350" y="477"/>
      <point x="214" y="358"/>
      <point x="119" y="251" type="curve"/>
      <point x="141" y="233" type="line"/>
      <point x="141" y="444" type="line" smooth="yes"/>
      <point x="141" y="489"/>
      <point x="139" y="541"/>
      <point x="192" y="541" type="curve" smooth="yes"/>
      <point x="692" y="541" type="line" smooth="yes"/>
      <point x="705" y="541"/>
      <point x="715" y="551"/>
      <point x="715" y="564" type="curve" smooth="yes"/>
      <point x="715" y="577"/>
      <point x="704" y="587"/>
      <point x="692" y="587" type="curve" smooth="yes"/>
      <point x="171" y="587" type="line" smooth="yes"/>
      <point x="126" y="587"/>
      <point x="92" y="559"/>
      <point x="96" y="512" type="curve"/>
      <point x="110" y="520" type="line"/>
      <point x="109" y="558"/>
      <point x="74" y="587"/>
      <point x="29" y="587" type="curve" smooth="yes"/>
      <point x="-1" y="587" type="line" smooth="yes"/>
      <point x="-16" y="587"/>
      <point x="-27" y="577"/>
      <point x="-27" y="564" type="curve" smooth="yes"/>
      <point x="-27" y="551"/>
      <point x="-16" y="541"/>
      <point x="-1" y="541" type="curve" smooth="yes"/>
      <point x="29" y="541" type="line" smooth="yes"/>
      <point x="90" y="541"/>
      <point x="87" y="486"/>
      <point x="87" y="449" type="curve" smooth="yes"/>
      <point x="87" y="199" type="line" smooth="yes"/>
      <point x="87" y="177"/>
      <point x="97" y="169"/>
      <point x="110" y="169" type="curve" smooth="yes"/>
      <point x="125" y="169"/>
      <point x="135" y="181"/>
      <point x="161" y="211" type="curve" smooth="yes"/>
      <point x="205" y="264"/>
      <point x="308" y="364"/>
      <point x="372" y="412" type="curve"/>
      <point x="361" y="418" type="line"/>
      <point x="338" y="381"/>
      <point x="329" y="341"/>
      <point x="329" y="289" type="curve" smooth="yes"/>
      <point x="329" y="165" type="line" smooth="yes"/>
      <point x="329" y="137"/>
      <point x="341" y="130"/>
      <point x="354" y="130" type="curve" smooth="yes"/>
      <point x="366" y="130"/>
      <point x="382" y="145"/>
      <point x="406" y="168" type="curve" smooth="yes"/>
      <point x="463" y="222"/>
      <point x="547" y="295"/>
      <point x="607" y="343" type="curve"/>
      <point x="599" y="352" type="line"/>
      <point x="572" y="306"/>
      <point x="566" y="251"/>
      <point x="566" y="189" type="curve" smooth="yes"/>
      <point x="566" y="103"/>
      <point x="576" y="74"/>
      <point x="578" y="-99" type="curve" smooth="yes"/>
      <point x="578" y="-124"/>
      <point x="590" y="-140"/>
      <point x="607" y="-140" type="curve" smooth="yes"/>
    </contour>
    <contour>
      <point x="609" y="-88" type="line"/>
      <point x="583" y="-10"/>
      <point x="451" y="43"/>
      <point x="391" y="43" type="curve"/>
      <point x="410" y="24" type="line"/>
      <point x="597" y="145" type="line"/>
      <point x="597" y="210" type="line"/>
      <point x="397" y="81" type="line" smooth="yes"/>
      <point x="366" y="61"/>
      <point x="355" y="54"/>
      <point x="355" y="35" type="curve" smooth="yes"/>
      <point x="355" y="21"/>
      <point x="366" y="8"/>
      <point x="384" y="4" type="curve" smooth="yes"/>
      <point x="515" y="-35"/>
      <point x="577" y="-76"/>
      <point x="579" y="-107" type="curve"/>
    </contour>
  </outline>
</glyph>
<glyph name="bDDRa" format="1">
  <advance width="692"/>
  <outline>
    <contour>
      <point x="609" y="-106" type="line"/>
      <point x="591" y="-36"/>
      <point x="524" y="-15"/>
      <point x="472" y="-15" type="curve" smooth="yes"/>
      <point x="413" y="-15"/>
      <point x="351" y="-45"/>
      <point x="295" y="-45" type="curve" smooth="yes"/>
      <point x="262" y="-45"/>
      <point x="233" y="-29"/>
      <point x="233" y="13" type="curve" smooth="yes"/>
      <point x="233" y="36"/>
      <point x="241" y="58"/>
      <point x="241" y="70" type="curve" smooth="yes"/>
      <point x="241" y="81"/>
      <point x="235" y="90"/>
      <point x="222" y="90" type="curve" smooth="yes"/>
      <point x="194" y="90"/>
      <point x="183" y="44"/>
      <point x="183" y="13" type="curve" smooth="yes"/>
      <point x="183" y="-47"/>
      <point x="223" y="-98"/>
      <point x="294" y="-98" type="curve" smooth="yes"/>
      <point x="358" y="-98"/>
      <point x="428" y="-66"/>
      <point x="484" y="-66" type="curve" smooth="yes"/>
      <point x="543" y="-66"/>
      <point x="579" y="-88"/>
      <point x="579" y="-128" type="curve"/>
    </contour>
    <contour>
      <point x="623" y="-163"/>
      <point x="632" y="-147"/>
      <point x="632" y="-128" type="curve" smooth="yes"/>
      <point x="632" y="-36" type="line" smooth="yes"/>
      <point x="632" y="42"/>
      <point x="617" y="110"/>
      <point x="617" y="163" type="curve" smooth="yes"/>
      <point x="617" y="247"/>
      <point x="646" y="315"/>
      <point x="646" y="346" type="curve" smooth="yes"/>
      <point x="646" y="360"/>
      <point x="641" y="374"/>
      <point x="622" y="374" type="curve" smooth="yes"/>
      <point x="582" y="374"/>
      <point x="454" y="232"/>
      <point x="357" y="124" type="curve"/>
      <point x="382" y="118" type="line"/>
      <point x="381" y="256" type="line" smooth="yes"/>
      <point x="380" y="379"/>
      <point x="414" y="412"/>
      <point x="414" y="449" type="curve" smooth="yes"/>
      <point x="414" y="462"/>
      <point x="408" y="477"/>
      <point x="389" y="477" type="curve" smooth="yes"/>
      <point x="350" y="477"/>
      <point x="214" y="336"/>
      <point x="119" y="229" type="curve"/>
      <point x="141" y="211" type="line"/>
      <point x="141" y="444" type="line" smooth="yes"/>
      <point x="141" y="489"/>
      <point x="139" y="541"/>
      <point x="192" y="541" type="curve" smooth="yes"/>
      <point x="692" y="541" type="line" smooth="yes"/>
      <point x="706" y="541"/>
      <point x="718" y="552"/>
      <point x="718" y="565" type="curve" smooth="yes"/>
      <point x="718" y="577"/>
      <point x="706" y="587"/>
      <point x="692" y="587" type="curve" smooth="yes"/>
      <point x="171" y="587" type="line" smooth="yes"/>
      <point x="127" y="587"/>
      <point x="95" y="559"/>
      <point x="98" y="512" type="curve"/>
      <point x="110" y="520" type="line"/>
      <point x="109" y="558"/>
      <point x="69" y="587"/>
      <point x="24" y="587" type="curve" smooth="yes"/>
      <point x="-1" y="587" type="line" smooth="yes"/>
      <point x="-15" y="587"/>
      <point x="-27" y="577"/>
      <point x="-27" y="565" type="curve" smooth="yes"/>
      <point x="-27" y="552"/>
      <point x="-15" y="541"/>
      <point x="-1" y="541" type="curve" smooth="yes"/>
      <point x="29" y="541" type="line" smooth="yes"/>
      <point x="90" y="541"/>
      <point x="87" y="486"/>
      <point x="87" y="449" type="curve" smooth="yes"/>
      <point x="87" y="177" type="line" smooth="yes"/>
      <point x="87" y="154"/>
      <point x="97" y="146"/>
      <point x="110" y="146" type="curve" smooth="yes"/>
      <point x="125" y="146"/>
      <point x="135" y="158"/>
      <point x="161" y="188" type="curve" smooth="yes"/>
      <point x="205" y="242"/>
      <point x="308" y="359"/>
      <point x="372" y="412" type="curve"/>
      <point x="361" y="418" type="line"/>
      <point x="338" y="374"/>
      <point x="329" y="313"/>
      <point x="329" y="249" type="curve" smooth="yes"/>
      <point x="329" y="74" type="line" smooth="yes"/>
      <point x="329" y="52"/>
      <point x="338" y="44"/>
      <point x="351" y="44" type="curve" smooth="yes"/>
      <point x="366" y="44"/>
      <point x="376" y="55"/>
      <point x="403" y="87" type="curve" smooth="yes"/>
      <point x="445" y="140"/>
      <point x="544" y="257"/>
      <point x="607" y="313" type="curve"/>
      <point x="599" y="322" type="line"/>
      <point x="572" y="276"/>
      <point x="566" y="221"/>
      <point x="566" y="170" type="curve" smooth="yes"/>
      <point x="566" y="110"/>
      <point x="578" y="42"/>
      <point x="578" y="-36" type="curve" smooth="yes"/>
      <point x="578" y="-128" type="line" smooth="yes"/>
      <point x="578" y="-147"/>
      <point x="590" y="-163"/>
      <point x="606" y="-163" type="curve" smooth="yes"/>
    </contour>
  </outline>
</glyph>
<glyph name="bDDa" format="1">
  <advance width="692"/>
  <outline>
    <contour>
      <point x="627" y="-92"/>
      <point x="632" y="-68"/>
      <point x="632" y="-38" type="curve" smooth="yes"/>
      <point x="632" y="62"/>
      <point x="617" y="108"/>
      <point x="617" y="163" type="curve" smooth="yes"/>
      <point x="617" y="247"/>
      <point x="646" y="315"/>
      <point x="646" y="346" type="curve" smooth="yes"/>
      <point x="646" y="360"/>
      <point x="641" y="374"/>
      <point x="622" y="374" type="curve" smooth="yes"/>
      <point x="582" y="374"/>
      <point x="454" y="232"/>
      <point x="357" y="124" type="curve"/>
      <point x="382" y="118" type="line"/>
      <point x="381" y="256" type="line" smooth="yes"/>
      <point x="380" y="379"/>
      <point x="414" y="412"/>
      <point x="414" y="449" type="curve" smooth="yes"/>
      <point x="414" y="462"/>
      <point x="408" y="477"/>
      <point x="389" y="477" type="curve" smooth="yes"/>
      <point x="350" y="477"/>
      <point x="214" y="336"/>
      <point x="119" y="229" type="curve"/>
      <point x="141" y="211" type="line"/>
      <point x="141" y="444" type="line" smooth="yes"/>
      <point x="141" y="489"/>
      <point x="139" y="541"/>
      <point x="192" y="541" type="curve" smooth="yes"/>
      <point x="692" y="541" type="line" smooth="yes"/>
      <point x="706" y="541"/>
      <point x="718" y="552"/>
      <point x="718" y="565" type="curve" smooth="yes"/>
      <point x="718" y="577"/>
      <point x="706" y="587"/>
      <point x="692" y="587" type="curve" smooth="yes"/>
      <point x="171" y="587" type="line" smooth="yes"/>
      <point x="127" y="587"/>
      <point x="95" y="559"/>
      <point x="98" y="512" type="curve"/>
      <point x="110" y="520" type="line"/>
      <point x="109" y="558"/>
      <point x="69" y="587"/>
      <point x="24" y="587" type="curve" smooth="yes"/>
      <point x="-1" y="587" type="line" smooth="yes"/>
      <point x="-15" y="587"/>
      <point x="-27" y="577"/>
      <point x="-27" y="565" type="curve" smooth="yes"/>
      <point x="-27" y="552"/>
      <point x="-15" y="541"/>
      <point x="-1" y="541" type="curve" smooth="yes"/>
      <point x="29" y="541" type="line" smooth="yes"/>
      <point x="90" y="541"/>
      <point x="87" y="486"/>
      <point x="87" y="449" type="curve" smooth="yes"/>
      <point x="87" y="177" type="line" smooth="yes"/>
      <point x="87" y="154"/>
      <point x="97" y="146"/>
      <point x="110" y="146" type="curve" smooth="yes"/>
      <point x="125" y="146"/>
      <point x="135" y="158"/>
      <point x="161" y="188" type="curve" smooth="yes"/>
      <point x="205" y="242"/>
      <point x="308" y="359"/>
      <point x="372" y="412" type="curve"/>
      <point x="361" y="418" type="line"/>
      <point x="338" y="374"/>
      <point x="329" y="313"/>
      <point x="329" y="249" type="curve" smooth="yes"/>
      <point x="329" y="74" type="line" smooth="yes"/>
      <point x="329" y="52"/>
      <point x="338" y="44"/>
      <point x="351" y="44" type="curve" smooth="yes"/>
      <point x="366" y="44"/>
      <point x="376" y="55"/>
      <point x="403" y="87" type="curve" smooth="yes"/>
      <point x="445" y="140"/>
      <point x="544" y="257"/>
      <point x="607" y="313" type="curve"/>
      <point x="599" y="322" type="line"/>
      <point x="572" y="276"/>
      <point x="566" y="221"/>
      <point x="566" y="170" type="curve" smooth="yes"/>
      <point x="566" y="108"/>
      <point x="578" y="62"/>
      <point x="578" y="-38" type="curve" smooth="yes"/>
      <point x="578" y="-68"/>
      <point x="586" y="-92"/>
      <point x="608" y="-92" type="curve" smooth="yes"/>
    </contour>
  </outline>
</glyph>
<glyph name="bDDhBa" format="1">
  <advance width="663"/>
  <outline>
    <contour>
      <point x="427" y="-124"/>
      <point x="436" y="-107"/>
      <point x="436" y="-84" type="curve" smooth="yes"/>
      <point x="434" y="128"/>
      <point x="429" y="191"/>
      <point x="429" y="284" type="curve" smooth="yes"/>
      <point x="429" y="383"/>
      <point x="451" y="425"/>
      <point x="451" y="456" type="curve" smooth="yes"/>
      <point x="451" y="470"/>
      <point x="445" y="483"/>
      <point x="427" y="483" type="curve" smooth="yes"/>
      <point x="387" y="483"/>
      <point x="230" y="395"/>
      <point x="115" y="298" type="curve"/>
      <point x="140" y="279" type="line"/>
      <point x="140" y="444" type="line" smooth="yes"/>
      <point x="140" y="487"/>
      <point x="141" y="541"/>
      <point x="190" y="541" type="curve" smooth="yes"/>
      <point x="663" y="541" type="line" smooth="yes"/>
      <point x="677" y="541"/>
      <point x="689" y="552"/>
      <point x="689" y="565" type="curve" smooth="yes"/>
      <point x="689" y="577"/>
      <point x="677" y="587"/>
      <point x="663" y="587" type="curve" smooth="yes"/>
      <point x="171" y="587" type="line" smooth="yes"/>
      <point x="129" y="587"/>
      <point x="98" y="561"/>
      <point x="97" y="520" type="curve"/>
      <point x="111" y="528" type="line"/>
      <point x="111" y="560"/>
      <point x="73" y="587"/>
      <point x="30" y="587" type="curve" smooth="yes"/>
      <point x="-1" y="587" type="line" smooth="yes"/>
      <point x="-15" y="587"/>
      <point x="-27" y="577"/>
      <point x="-27" y="565" type="curve" smooth="yes"/>
      <point x="-27" y="552"/>
      <point x="-15" y="541"/>
      <point x="-1" y="541" type="curve" smooth="yes"/>
      <point x="29" y="541" type="line" smooth="yes"/>
      <point x="90" y="541"/>
      <point x="87" y="486"/>
      <point x="87" y="449" type="curve" smooth="yes"/>
      <point x="87" y="263" type="line" smooth="yes"/>
      <point x="87" y="235"/>
      <point x="98" y="228"/>
      <point x="111" y="229" type="curve" smooth="yes"/>
      <point x="127" y="230"/>
      <point x="136" y="241"/>
      <point x="171" y="268" type="curve" smooth="yes"/>
      <point x="237" y="322"/>
      <point x="343" y="399"/>
      <point x="417" y="427" type="curve"/>
      <point x="413" y="446" type="line"/>
      <point x="383" y="400"/>
      <point x="378" y="353"/>
      <point x="378" y="283" type="curve" smooth="yes"/>
      <point x="378" y="192"/>
      <point x="383" y="128"/>
      <point x="383" y="-85" type="curve" smooth="yes"/>
      <point x="383" y="-109"/>
      <point x="394" y="-124"/>
      <point x="410" y="-124" type="curve" smooth="yes"/>
    </contour>
    <contour>
      <point x="416" y="-62" type="line"/>
      <point x="388" y="0"/>
      <point x="291" y="56"/>
      <point x="226" y="55" type="curve"/>
      <point x="235" y="40" type="line"/>
      <point x="406" y="136" type="line"/>
      <point x="400" y="189" type="line"/>
      <point x="233" y="92" type="line" smooth="yes"/>
      <point x="200" y="73"/>
      <point x="190" y="64"/>
      <point x="190" y="48" type="curve" smooth="yes"/>
      <point x="190" y="32"/>
      <point x="200" y="21"/>
      <point x="219" y="17" type="curve" smooth="yes"/>
      <point x="290" y="2"/>
      <point x="381" y="-48"/>
      <point x="385" y="-88" type="curve"/>
    </contour>
    <contour>
      <point x="315" y="117" type="line"/>
      <point x="277" y="137"/>
      <point x="219" y="153"/>
      <point x="181" y="153" type="curve"/>
      <point x="192" y="131" type="line"/>
      <point x="576" y="366" type="line"/>
      <point x="575" y="379" type="line"/>
      <point x="539" y="346"/>
      <point x="536" y="286"/>
      <point x="536" y="238" type="curve" smooth="yes"/>
      <point x="536" y="-29" type="line" smooth="yes"/>
      <point x="536" y="-48"/>
      <point x="548" y="-63"/>
      <point x="563" y="-63" type="curve" smooth="yes"/>
      <point x="578" y="-63"/>
      <point x="589" y="-48"/>
      <point x="589" y="-28" type="curve" smooth="yes"/>
      <point x="589" y="243" type="line" smooth="yes"/>
      <point x="589" y="353"/>
      <point x="613" y="371"/>
      <point x="613" y="407" type="curve" smooth="yes"/>
      <point x="613" y="420"/>
      <point x="606" y="429"/>
      <point x="595" y="429" type="curve" smooth="yes"/>
      <point x="583" y="429"/>
      <point x="571" y="424"/>
      <point x="542" y="407" type="curve" smooth="yes"/>
      <point x="185" y="191" type="line" smooth="yes"/>
      <point x="155" y="173"/>
      <point x="143" y="164"/>
      <point x="143" y="145" type="curve" smooth="yes"/>
      <point x="143" y="132"/>
      <point x="154" y="118"/>
      <point x="172" y="114" type="curve" smooth="yes"/>
      <point x="204" y="108"/>
      <point x="239" y="103"/>
      <point x="269" y="91" type="curve"/>
    </contour>
  </outline>
</glyph>
<glyph name="bDDha" format="1">
  <advance width="663"/>
  <outline>
    <contour>
      <point x="427" y="-97"/>
      <point x="436" y="-80"/>
      <point x="436" y="-56" type="curve" smooth="yes"/>
      <point x="434" y="105"/>
      <point x="425" y="164"/>
      <point x="425" y="235" type="curve" smooth="yes"/>
      <point x="425" y="317"/>
      <point x="451" y="383"/>
      <point x="451" y="414" type="curve" smooth="yes"/>
      <point x="451" y="427"/>
      <point x="445" y="441"/>
      <point x="427" y="441" type="curve" smooth="yes"/>
      <point x="387" y="441"/>
      <point x="230" y="352"/>
      <point x="115" y="254" type="curve"/>
      <point x="140" y="237" type="line"/>
      <point x="140" y="444" type="line" smooth="yes"/>
      <point x="140" y="487"/>
      <point x="141" y="541"/>
      <point x="190" y="541" type="curve" smooth="yes"/>
      <point x="663" y="541" type="line" smooth="yes"/>
      <point x="677" y="541"/>
      <point x="689" y="552"/>
      <point x="689" y="565" type="curve" smooth="yes"/>
      <point x="689" y="577"/>
      <point x="677" y="587"/>
      <point x="663" y="587" type="curve" smooth="yes"/>
      <point x="171" y="587" type="line" smooth="yes"/>
      <point x="129" y="587"/>
      <point x="98" y="561"/>
      <point x="97" y="520" type="curve"/>
      <point x="111" y="528" type="line"/>
      <point x="111" y="560"/>
      <point x="73" y="587"/>
      <point x="30" y="587" type="curve" smooth="yes"/>
      <point x="-1" y="587" type="line" smooth="yes"/>
      <point x="-15" y="587"/>
      <point x="-27" y="577"/>
      <point x="-27" y="565" type="curve" smooth="yes"/>
      <point x="-27" y="552"/>
      <point x="-15" y="541"/>
      <point x="-1" y="541" type="curve" smooth="yes"/>
      <point x="29" y="541" type="line" smooth="yes"/>
      <point x="90" y="541"/>
      <point x="87" y="486"/>
      <point x="87" y="449" type="curve" smooth="yes"/>
      <point x="87" y="220" type="line" smooth="yes"/>
      <point x="87" y="193"/>
      <point x="98" y="186"/>
      <point x="111" y="187" type="curve" smooth="yes"/>
      <point x="127" y="188"/>
      <point x="136" y="198"/>
      <point x="171" y="226" type="curve" smooth="yes"/>
      <point x="237" y="280"/>
      <point x="343" y="357"/>
      <point x="417" y="385" type="curve"/>
      <point x="413" y="404" type="line"/>
      <point x="379" y="357"/>
      <point x="373" y="294"/>
      <point x="373" y="240" type="curve" smooth="yes"/>
      <point x="373" y="163"/>
      <point x="380" y="123"/>
      <point x="383" y="-57" type="curve" smooth="yes"/>
      <point x="383" y="-82"/>
      <point x="394" y="-97"/>
      <point x="410" y="-97" type="curve" smooth="yes"/>
    </contour>
    <contour>
      <point x="578" y="-63"/>
      <point x="589" y="-48"/>
      <point x="589" y="-28" type="curve" smooth="yes"/>
      <point x="589" y="188" type="line" smooth="yes"/>
      <point x="589" y="298"/>
      <point x="613" y="316"/>
      <point x="613" y="352" type="curve" smooth="yes"/>
      <point x="613" y="365"/>
      <point x="606" y="374"/>
      <point x="595" y="374" type="curve" smooth="yes"/>
      <point x="583" y="374"/>
      <point x="571" y="369"/>
      <point x="542" y="352" type="curve" smooth="yes"/>
      <point x="185" y="136" type="line" smooth="yes"/>
      <point x="155" y="118"/>
      <point x="143" y="109"/>
      <point x="143" y="90" type="curve" smooth="yes"/>
      <point x="143" y="77"/>
      <point x="154" y="63"/>
      <point x="172" y="59" type="curve" smooth="yes"/>
      <point x="290" y="37"/>
      <point x="381" y="-14"/>
      <point x="383" y="-63" type="curve"/>
      <point x="412" y="-27" type="line"/>
      <point x="389" y="41"/>
      <point x="267" y="98"/>
      <point x="184" y="98" type="curve"/>
      <point x="192" y="76" type="line"/>
      <point x="576" y="311" type="line"/>
      <point x="575" y="324" type="line"/>
      <point x="539" y="291"/>
      <point x="536" y="231"/>
      <point x="536" y="183" type="curve" smooth="yes"/>
      <point x="536" y="-29" type="line" smooth="yes"/>
      <point x="536" y="-48"/>
      <point x="548" y="-63"/>
      <point x="563" y="-63" type="curve" smooth="yes"/>
    </contour>
  </outline>
</glyph>
